<svg xmlns="http://www.w3.org/2000/svg" width="25" height="17" viewBox="0 0 25 17"><defs><style>.a{fill:#c8d1ec;}</style></defs><path class="a" d="M-2676-3792a8.009,8.009,0,0,1,8-8,7.924,7.924,0,0,1,4.855,1.645A7,7,0,0,0-2664-3795a7.043,7.043,0,0,0,3.412,6.013,8.008,8.008,0,0,1-2.9,3.589A7.946,7.946,0,0,1-2668-3784,8.009,8.009,0,0,1-2676-3792Zm6.243,1.271h0l-.566,4.166a.383.383,0,0,0,.246.41.373.373,0,0,0,.134.024.374.374,0,0,0,.086-.01.383.383,0,0,0,.236-.165l4.568-7.075a.383.383,0,0,0-.009-.428.383.383,0,0,0-.313-.163.381.381,0,0,0-.086.01l-1.61.371.445-4.147a.379.379,0,0,0-.256-.4.376.376,0,0,0-.126-.022.382.382,0,0,0-.323.178l-4.43,7.042a.383.383,0,0,0,.011.426.384.384,0,0,0,.312.16.364.364,0,0,0,.087-.01l1.591-.367ZM-2663-3795a6.007,6.007,0,0,1,6-6,6.007,6.007,0,0,1,6,6,6.007,6.007,0,0,1-6,6A6.007,6.007,0,0,1-2663-3795Zm3.676-.032a1.475,1.475,0,0,0-.487.306,1.858,1.858,0,0,0-.339.442,2.662,2.662,0,0,0-.226.511,4.149,4.149,0,0,0-.133.548,4.66,4.66,0,0,0-.071.546c-.011.165-.018.336-.018.509a1.422,1.422,0,0,0,.427,1.082,1.524,1.524,0,0,0,1.095.4h4.152a1.531,1.531,0,0,0,1.1-.4,1.43,1.43,0,0,0,.424-1.082c0-.191,0-.358-.016-.509a5.172,5.172,0,0,0-.07-.546,4.272,4.272,0,0,0-.134-.548,2.7,2.7,0,0,0-.226-.511,1.941,1.941,0,0,0-.34-.442,1.494,1.494,0,0,0-.487-.306,1.677,1.677,0,0,0-.623-.113.623.623,0,0,0-.338.143l-.351.226a1.937,1.937,0,0,1-.456.2,1.765,1.765,0,0,1-.555.091,1.764,1.764,0,0,1-.556-.091,2,2,0,0,1-.456-.2l-.224-.145-.127-.081a.623.623,0,0,0-.338-.143A1.685,1.685,0,0,0-2659.324-3795.032Zm.8-3.671a2.021,2.021,0,0,0-.609,1.47,2.018,2.018,0,0,0,.609,1.468,2.013,2.013,0,0,0,1.47.609,2.006,2.006,0,0,0,1.467-.609,2.011,2.011,0,0,0,.609-1.468,2.014,2.014,0,0,0-.609-1.47,2.012,2.012,0,0,0-1.467-.608A2.017,2.017,0,0,0-2658.523-3798.7Z" transform="translate(2676 3801)"/></svg>