<svg xmlns="http://www.w3.org/2000/svg" width="74" height="74" viewBox="0 0 74 74"><defs><style>.a{fill:#f1f5ff;}.b,.c{fill:#c8d1ec;}.d,.e{stroke:none;}.e{fill:#fff;}</style></defs><rect class="a" width="74" height="74" rx="12"/><g transform="translate(-243 -577)"><path class="b" d="M-6326-3134.437a21.225,21.225,0,0,1-14.849-5.949,19.851,19.851,0,0,1-6.15-14.364,19.562,19.562,0,0,1,2.286-9.227A20.7,20.7,0,0,1-6338.6-3171h25.2a20.692,20.692,0,0,1,6.111,7.023,19.584,19.584,0,0,1,2.288,9.227,19.858,19.858,0,0,1-6.151,14.364A21.225,21.225,0,0,1-6326-3134.437Z" transform="translate(6606 3767.016)"/><g class="c" transform="translate(281.186 617.309)"><path class="d" d="M 5 9.25 C 2.656539916992188 9.25 0.75 7.343460083007813 0.75 5 C 0.75 2.656539916992188 2.656539916992188 0.75 5 0.75 C 7.343460083007813 0.75 9.25 2.656539916992188 9.25 5 C 9.25 7.343460083007813 7.343460083007813 9.25 5 9.25 Z"/><path class="e" d="M 5 1.5 C 3.070089817047119 1.5 1.5 3.070089817047119 1.5 5 C 1.5 6.929909706115723 3.070089817047119 8.5 5 8.5 C 6.929909706115723 8.5 8.5 6.929909706115723 8.5 5 C 8.5 3.070089817047119 6.929909706115723 1.5 5 1.5 M 5 0 C 7.761420249938965 0 10 2.238580226898193 10 5 C 10 7.761420249938965 7.761420249938965 10 5 10 C 2.238580226898193 10 0 7.761420249938965 0 5 C 0 2.238580226898193 2.238580226898193 0 5 0 Z"/></g><g class="c" transform="translate(268.701 617.309)"><path class="d" d="M 5 9.25 C 2.656539916992188 9.25 0.75 7.343460083007813 0.75 5 C 0.75 2.656539916992188 2.656539916992188 0.75 5 0.75 C 7.343460083007813 0.75 9.25 2.656539916992188 9.25 5 C 9.25 7.343460083007813 7.343460083007813 9.25 5 9.25 Z"/><path class="e" d="M 5 1.5 C 3.070089817047119 1.5 1.5 3.070089817047119 1.5 5 C 1.5 6.929909706115723 3.070089817047119 8.5 5 8.5 C 6.929909706115723 8.5 8.5 6.929909706115723 8.5 5 C 8.5 3.070089817047119 6.929909706115723 1.5 5 1.5 M 5 0 C 7.761420249938965 0 10 2.238580226898193 10 5 C 10 7.761420249938965 7.761420249938965 10 5 10 C 2.238580226898193 10 0 7.761420249938965 0 5 C 0 2.238580226898193 2.238580226898193 0 5 0 Z"/></g><g class="c" transform="translate(287.428 607.5)"><path class="d" d="M 5 9.25 C 2.656539916992188 9.25 0.75 7.343460083007813 0.75 5 C 0.75 2.656539916992188 2.656539916992188 0.75 5 0.75 C 7.343460083007813 0.75 9.25 2.656539916992188 9.25 5 C 9.25 7.343460083007813 7.343460083007813 9.25 5 9.25 Z"/><path class="e" d="M 5 1.5 C 3.070089817047119 1.5 1.5 3.070089817047119 1.5 5 C 1.5 6.929909706115723 3.070089817047119 8.5 5 8.5 C 6.929909706115723 8.5 8.5 6.929909706115723 8.5 5 C 8.5 3.070089817047119 6.929909706115723 1.5 5 1.5 M 5 0 C 7.761420249938965 0 10 2.238580226898193 10 5 C 10 7.761420249938965 7.761420249938965 10 5 10 C 2.238580226898193 10 0 7.761420249938965 0 5 C 0 2.238580226898193 2.238580226898193 0 5 0 Z"/></g><g class="c" transform="translate(274.943 607.5)"><path class="d" d="M 5 9.25 C 2.656539916992188 9.25 0.75 7.343460083007813 0.75 5 C 0.75 2.656539916992188 2.656539916992188 0.75 5 0.75 C 7.343460083007813 0.75 9.25 2.656539916992188 9.25 5 C 9.25 7.343460083007813 7.343460083007813 9.25 5 9.25 Z"/><path class="e" d="M 5 1.5 C 3.070089817047119 1.5 1.5 3.070089817047119 1.5 5 C 1.5 6.929909706115723 3.070089817047119 8.5 5 8.5 C 6.929909706115723 8.5 8.5 6.929909706115723 8.5 5 C 8.5 3.070089817047119 6.929909706115723 1.5 5 1.5 M 5 0 C 7.761420249938965 0 10 2.238580226898193 10 5 C 10 7.761420249938965 7.761420249938965 10 5 10 C 2.238580226898193 10 0 7.761420249938965 0 5 C 0 2.238580226898193 2.238580226898193 0 5 0 Z"/></g><g class="c" transform="translate(262.459 607.5)"><path class="d" d="M 5 9.25 C 2.656539916992188 9.25 0.75 7.343460083007813 0.75 5 C 0.75 2.656539916992188 2.656539916992188 0.75 5 0.75 C 7.343460083007813 0.75 9.25 2.656539916992188 9.25 5 C 9.25 7.343460083007813 7.343460083007813 9.25 5 9.25 Z"/><path class="e" d="M 5 1.5 C 3.070089817047119 1.5 1.5 3.070089817047119 1.5 5 C 1.5 6.929909706115723 3.070089817047119 8.5 5 8.5 C 6.929909706115723 8.5 8.5 6.929909706115723 8.5 5 C 8.5 3.070089817047119 6.929909706115723 1.5 5 1.5 M 5 0 C 7.761420249938965 0 10 2.238580226898193 10 5 C 10 7.761420249938965 7.761420249938965 10 5 10 C 2.238580226898193 10 0 7.761420249938965 0 5 C 0 2.238580226898193 2.238580226898193 0 5 0 Z"/></g><g class="c" transform="translate(269.593 599.474)"><path class="d" d="M 4 7.25 C 2.207940101623535 7.25 0.75 5.792059898376465 0.75 4 C 0.75 2.207940101623535 2.207940101623535 0.75 4 0.75 C 5.792059898376465 0.75 7.25 2.207940101623535 7.25 4 C 7.25 5.792059898376465 5.792059898376465 7.25 4 7.25 Z"/><path class="e" d="M 4 1.5 C 2.621500015258789 1.5 1.5 2.621500015258789 1.5 4 C 1.5 5.378499984741211 2.621500015258789 6.5 4 6.5 C 5.378499984741211 6.5 6.5 5.378499984741211 6.5 4 C 6.5 2.621500015258789 5.378499984741211 1.5 4 1.5 M 4 0 C 6.209139823913574 0 8 1.790860176086426 8 4 C 8 6.209139823913574 6.209139823913574 8 4 8 C 1.790860176086426 8 0 6.209139823913574 0 4 C 0 1.790860176086426 1.790860176086426 0 4 0 Z"/></g><g class="c" transform="translate(282.078 599.474)"><path class="d" d="M 4 7.25 C 2.207940101623535 7.25 0.75 5.792059898376465 0.75 4 C 0.75 2.207940101623535 2.207940101623535 0.75 4 0.75 C 5.792059898376465 0.75 7.25 2.207940101623535 7.25 4 C 7.25 5.792059898376465 5.792059898376465 7.25 4 7.25 Z"/><path class="e" d="M 4 1.5 C 2.621500015258789 1.5 1.5 2.621500015258789 1.5 4 C 1.5 5.378499984741211 2.621500015258789 6.5 4 6.5 C 5.378499984741211 6.5 6.5 5.378499984741211 6.5 4 C 6.5 2.621500015258789 5.378499984741211 1.5 4 1.5 M 4 0 C 6.209139823913574 0 8 1.790860176086426 8 4 C 8 6.209139823913574 6.209139823913574 8 4 8 C 1.790860176086426 8 0 6.209139823913574 0 4 C 0 1.790860176086426 1.790860176086426 0 4 0 Z"/></g></g></svg>