<svg xmlns="http://www.w3.org/2000/svg" xmlns:xlink="http://www.w3.org/1999/xlink" width="74" height="74" viewBox="0 0 74 74"><defs><style>.a{fill:#f1f5ff;stroke:#353841;stroke-width:1.5px;}.b{fill:#cad0e4;}.c{fill:#353841;}.d,.g{fill:#71778a;}.e,.g{stroke:none;}.f{fill:none;}.h{filter:url(#k);}.i{filter:url(#i);}.j{filter:url(#g);}.k{filter:url(#e);}.l{filter:url(#c);}.m{filter:url(#a);}</style><filter id="a" x="37" y="27.031" width="20" height="20" filterUnits="userSpaceOnUse"><feOffset input="SourceAlpha"/><feGaussianBlur stdDeviation="1" result="b"/><feFlood flood-opacity="0.161"/><feComposite operator="in" in2="b"/><feComposite in="SourceGraphic"/></filter><filter id="c" x="29" y="18" width="16" height="16" filterUnits="userSpaceOnUse"><feOffset input="SourceAlpha"/><feGaussianBlur stdDeviation="1" result="d"/><feFlood flood-opacity="0.161"/><feComposite operator="in" in2="d"/><feComposite in="SourceGraphic"/></filter><filter id="e" x="29" y="40" width="16" height="16" filterUnits="userSpaceOnUse"><feOffset input="SourceAlpha"/><feGaussianBlur stdDeviation="1" result="f"/><feFlood flood-opacity="0.161"/><feComposite operator="in" in2="f"/><feComposite in="SourceGraphic"/></filter><filter id="g" x="17" y="27.031" width="20" height="20" filterUnits="userSpaceOnUse"><feOffset input="SourceAlpha"/><feGaussianBlur stdDeviation="1" result="h"/><feFlood flood-opacity="0.161"/><feComposite operator="in" in2="h"/><feComposite in="SourceGraphic"/></filter><filter id="i" x="33" y="22" width="8" height="8" filterUnits="userSpaceOnUse"><feOffset input="SourceAlpha"/><feGaussianBlur stdDeviation="1" result="j"/><feFlood flood-opacity="0.161"/><feComposite operator="in" in2="j"/><feComposite in="SourceGraphic"/></filter><filter id="k" x="33" y="44" width="8" height="8" filterUnits="userSpaceOnUse"><feOffset input="SourceAlpha"/><feGaussianBlur stdDeviation="1" result="l"/><feFlood flood-opacity="0.161"/><feComposite operator="in" in2="l"/><feComposite in="SourceGraphic"/></filter></defs><g class="a"><rect class="e" width="74" height="74" rx="12"/><rect class="f" x="0.75" y="0.75" width="72.5" height="72.5" rx="11.25"/></g><g transform="translate(-335 -577)"><path class="b" d="M21,0A21,21,0,1,1,0,21,21,21,0,0,1,21,0Z" transform="translate(351 593)"/><g class="m" transform="matrix(1, 0, 0, 1, 335, 577)"><g class="c" transform="translate(40 30.03)"><path class="e" d="M 7 13 C 3.691590070724487 13 1 10.30840969085693 1 7 C 1 3.691590070724487 3.691590070724487 1 7 1 C 10.30840969085693 1 13 3.691590070724487 13 7 C 13 10.30840969085693 10.30840969085693 13 7 13 Z"/><path class="g" d="M 7 2 C 4.242989540100098 2 2 4.242989540100098 2 7 C 2 9.757009506225586 4.242989540100098 12 7 12 C 9.757009506225586 12 12 9.757009506225586 12 7 C 12 4.242989540100098 9.757009506225586 2 7 2 M 7 0 C 10.86598968505859 0 14 3.134010314941406 14 7 C 14 10.86598968505859 10.86598968505859 14 7 14 C 3.134010314941406 14 0 10.86598968505859 0 7 C 0 3.134010314941406 3.134010314941406 0 7 0 Z"/></g></g><g class="l" transform="matrix(1, 0, 0, 1, 335, 577)"><g class="c" transform="translate(32 21)"><path class="e" d="M 5 9 C 2.794389963150024 9 1 7.205609798431396 1 5 C 1 2.794389963150024 2.794389963150024 1 5 1 C 7.205609798431396 1 9 2.794389963150024 9 5 C 9 7.205609798431396 7.205609798431396 9 5 9 Z"/><path class="g" d="M 5 2 C 3.345789909362793 2 2 3.345789909362793 2 5 C 2 6.654210090637207 3.345789909362793 8 5 8 C 6.654210090637207 8 8 6.654210090637207 8 5 C 8 3.345789909362793 6.654210090637207 2 5 2 M 5 0 C 7.761420249938965 0 10 2.238580226898193 10 5 C 10 7.761420249938965 7.761420249938965 10 5 10 C 2.238580226898193 10 0 7.761420249938965 0 5 C 0 2.238580226898193 2.238580226898193 0 5 0 Z"/></g></g><g class="k" transform="matrix(1, 0, 0, 1, 335, 577)"><g class="c" transform="translate(32 43)"><path class="e" d="M 5 9 C 2.794389963150024 9 1 7.205609798431396 1 5 C 1 2.794389963150024 2.794389963150024 1 5 1 C 7.205609798431396 1 9 2.794389963150024 9 5 C 9 7.205609798431396 7.205609798431396 9 5 9 Z"/><path class="g" d="M 5 2 C 3.345789909362793 2 2 3.345789909362793 2 5 C 2 6.654210090637207 3.345789909362793 8 5 8 C 6.654210090637207 8 8 6.654210090637207 8 5 C 8 3.345789909362793 6.654210090637207 2 5 2 M 5 0 C 7.761420249938965 0 10 2.238580226898193 10 5 C 10 7.761420249938965 7.761420249938965 10 5 10 C 2.238580226898193 10 0 7.761420249938965 0 5 C 0 2.238580226898193 2.238580226898193 0 5 0 Z"/></g></g><g class="j" transform="matrix(1, 0, 0, 1, 335, 577)"><g class="c" transform="translate(20 30.03)"><path class="e" d="M 7 13 C 3.691590070724487 13 1 10.30840969085693 1 7 C 1 3.691590070724487 3.691590070724487 1 7 1 C 10.30840969085693 1 13 3.691590070724487 13 7 C 13 10.30840969085693 10.30840969085693 13 7 13 Z"/><path class="g" d="M 7 2 C 4.242989540100098 2 2 4.242989540100098 2 7 C 2 9.757009506225586 4.242989540100098 12 7 12 C 9.757009506225586 12 12 9.757009506225586 12 7 C 12 4.242989540100098 9.757009506225586 2 7 2 M 7 0 C 10.86598968505859 0 14 3.134010314941406 14 7 C 14 10.86598968505859 10.86598968505859 14 7 14 C 3.134010314941406 14 0 10.86598968505859 0 7 C 0 3.134010314941406 3.134010314941406 0 7 0 Z"/></g></g><g class="i" transform="matrix(1, 0, 0, 1, 335, 577)"><path class="d" d="M1,0A1,1,0,1,1,0,1,1,1,0,0,1,1,0Z" transform="translate(36 25)"/></g><g class="h" transform="matrix(1, 0, 0, 1, 335, 577)"><path class="d" d="M1,0A1,1,0,1,1,0,1,1,1,0,0,1,1,0Z" transform="translate(36 47)"/></g></g></svg>