<svg xmlns="http://www.w3.org/2000/svg" xmlns:xlink="http://www.w3.org/1999/xlink" width="74" height="74" viewBox="0 0 74 74"><defs><style>.a{fill:#f1f5ff;stroke:#353841;stroke-width:1.5px;}.b{fill:#cad0e4;}.c{fill:#353841;}.d,.f{stroke:none;}.e{fill:none;}.f{fill:#71778a;}.g{filter:url(#m);}.h{filter:url(#k);}.i{filter:url(#i);}.j{filter:url(#g);}.k{filter:url(#e);}.l{filter:url(#c);}.m{filter:url(#a);}</style><filter id="a" x="35.186" y="37.309" width="16" height="16" filterUnits="userSpaceOnUse"><feOffset input="SourceAlpha"/><feGaussianBlur stdDeviation="1" result="b"/><feFlood flood-opacity="0.161"/><feComposite operator="in" in2="b"/><feComposite in="SourceGraphic"/></filter><filter id="c" x="22.701" y="37.309" width="16" height="16" filterUnits="userSpaceOnUse"><feOffset input="SourceAlpha"/><feGaussianBlur stdDeviation="1" result="d"/><feFlood flood-opacity="0.161"/><feComposite operator="in" in2="d"/><feComposite in="SourceGraphic"/></filter><filter id="e" x="41.428" y="27.5" width="16" height="16" filterUnits="userSpaceOnUse"><feOffset input="SourceAlpha"/><feGaussianBlur stdDeviation="1" result="f"/><feFlood flood-opacity="0.161"/><feComposite operator="in" in2="f"/><feComposite in="SourceGraphic"/></filter><filter id="g" x="28.943" y="27.5" width="16" height="16" filterUnits="userSpaceOnUse"><feOffset input="SourceAlpha"/><feGaussianBlur stdDeviation="1" result="h"/><feFlood flood-opacity="0.161"/><feComposite operator="in" in2="h"/><feComposite in="SourceGraphic"/></filter><filter id="i" x="16.459" y="27.5" width="16" height="16" filterUnits="userSpaceOnUse"><feOffset input="SourceAlpha"/><feGaussianBlur stdDeviation="1" result="j"/><feFlood flood-opacity="0.161"/><feComposite operator="in" in2="j"/><feComposite in="SourceGraphic"/></filter><filter id="k" x="23.593" y="19.474" width="14" height="14" filterUnits="userSpaceOnUse"><feOffset input="SourceAlpha"/><feGaussianBlur stdDeviation="1" result="l"/><feFlood flood-opacity="0.161"/><feComposite operator="in" in2="l"/><feComposite in="SourceGraphic"/></filter><filter id="m" x="36.078" y="19.474" width="14" height="14" filterUnits="userSpaceOnUse"><feOffset input="SourceAlpha"/><feGaussianBlur stdDeviation="1" result="n"/><feFlood flood-opacity="0.161"/><feComposite operator="in" in2="n"/><feComposite in="SourceGraphic"/></filter></defs><g class="a"><rect class="d" width="74" height="74" rx="12"/><rect class="e" x="0.75" y="0.75" width="72.5" height="72.5" rx="11.25"/></g><g transform="translate(-243 -577)"><path class="b" d="M-6326-3134.437a21.225,21.225,0,0,1-14.849-5.949,19.851,19.851,0,0,1-6.15-14.364,19.562,19.562,0,0,1,2.286-9.227A20.7,20.7,0,0,1-6338.6-3171h25.2a20.692,20.692,0,0,1,6.111,7.023,19.584,19.584,0,0,1,2.288,9.227,19.858,19.858,0,0,1-6.151,14.364A21.225,21.225,0,0,1-6326-3134.437Z" transform="translate(6606 3767.016)"/><g class="m" transform="matrix(1, 0, 0, 1, 243, 577)"><g class="c" transform="translate(38.19 40.31)"><path class="d" d="M 5 9.25 C 2.656539916992188 9.25 0.75 7.343460083007813 0.75 5 C 0.75 2.656539916992188 2.656539916992188 0.75 5 0.75 C 7.343460083007813 0.75 9.25 2.656539916992188 9.25 5 C 9.25 7.343460083007813 7.343460083007813 9.25 5 9.25 Z"/><path class="f" d="M 5 1.5 C 3.070089817047119 1.5 1.5 3.070089817047119 1.5 5 C 1.5 6.929909706115723 3.070089817047119 8.5 5 8.5 C 6.929909706115723 8.5 8.5 6.929909706115723 8.5 5 C 8.5 3.070089817047119 6.929909706115723 1.5 5 1.5 M 5 0 C 7.761420249938965 0 10 2.238580226898193 10 5 C 10 7.761420249938965 7.761420249938965 10 5 10 C 2.238580226898193 10 0 7.761420249938965 0 5 C 0 2.238580226898193 2.238580226898193 0 5 0 Z"/></g></g><g class="l" transform="matrix(1, 0, 0, 1, 243, 577)"><g class="c" transform="translate(25.7 40.31)"><path class="d" d="M 5 9.25 C 2.656539916992188 9.25 0.75 7.343460083007813 0.75 5 C 0.75 2.656539916992188 2.656539916992188 0.75 5 0.75 C 7.343460083007813 0.75 9.25 2.656539916992188 9.25 5 C 9.25 7.343460083007813 7.343460083007813 9.25 5 9.25 Z"/><path class="f" d="M 5 1.5 C 3.070089817047119 1.5 1.5 3.070089817047119 1.5 5 C 1.5 6.929909706115723 3.070089817047119 8.5 5 8.5 C 6.929909706115723 8.5 8.5 6.929909706115723 8.5 5 C 8.5 3.070089817047119 6.929909706115723 1.5 5 1.5 M 5 0 C 7.761420249938965 0 10 2.238580226898193 10 5 C 10 7.761420249938965 7.761420249938965 10 5 10 C 2.238580226898193 10 0 7.761420249938965 0 5 C 0 2.238580226898193 2.238580226898193 0 5 0 Z"/></g></g><g class="k" transform="matrix(1, 0, 0, 1, 243, 577)"><g class="c" transform="translate(44.43 30.5)"><path class="d" d="M 5 9.25 C 2.656539916992188 9.25 0.75 7.343460083007813 0.75 5 C 0.75 2.656539916992188 2.656539916992188 0.75 5 0.75 C 7.343460083007813 0.75 9.25 2.656539916992188 9.25 5 C 9.25 7.343460083007813 7.343460083007813 9.25 5 9.25 Z"/><path class="f" d="M 5 1.5 C 3.070089817047119 1.5 1.5 3.070089817047119 1.5 5 C 1.5 6.929909706115723 3.070089817047119 8.5 5 8.5 C 6.929909706115723 8.5 8.5 6.929909706115723 8.5 5 C 8.5 3.070089817047119 6.929909706115723 1.5 5 1.5 M 5 0 C 7.761420249938965 0 10 2.238580226898193 10 5 C 10 7.761420249938965 7.761420249938965 10 5 10 C 2.238580226898193 10 0 7.761420249938965 0 5 C 0 2.238580226898193 2.238580226898193 0 5 0 Z"/></g></g><g class="j" transform="matrix(1, 0, 0, 1, 243, 577)"><g class="c" transform="translate(31.94 30.5)"><path class="d" d="M 5 9.25 C 2.656539916992188 9.25 0.75 7.343460083007813 0.75 5 C 0.75 2.656539916992188 2.656539916992188 0.75 5 0.75 C 7.343460083007813 0.75 9.25 2.656539916992188 9.25 5 C 9.25 7.343460083007813 7.343460083007813 9.25 5 9.25 Z"/><path class="f" d="M 5 1.5 C 3.070089817047119 1.5 1.5 3.070089817047119 1.5 5 C 1.5 6.929909706115723 3.070089817047119 8.5 5 8.5 C 6.929909706115723 8.5 8.5 6.929909706115723 8.5 5 C 8.5 3.070089817047119 6.929909706115723 1.5 5 1.5 M 5 0 C 7.761420249938965 0 10 2.238580226898193 10 5 C 10 7.761420249938965 7.761420249938965 10 5 10 C 2.238580226898193 10 0 7.761420249938965 0 5 C 0 2.238580226898193 2.238580226898193 0 5 0 Z"/></g></g><g class="i" transform="matrix(1, 0, 0, 1, 243, 577)"><g class="c" transform="translate(19.46 30.5)"><path class="d" d="M 5 9.25 C 2.656539916992188 9.25 0.75 7.343460083007813 0.75 5 C 0.75 2.656539916992188 2.656539916992188 0.75 5 0.75 C 7.343460083007813 0.75 9.25 2.656539916992188 9.25 5 C 9.25 7.343460083007813 7.343460083007813 9.25 5 9.25 Z"/><path class="f" d="M 5 1.5 C 3.070089817047119 1.5 1.5 3.070089817047119 1.5 5 C 1.5 6.929909706115723 3.070089817047119 8.5 5 8.5 C 6.929909706115723 8.5 8.5 6.929909706115723 8.5 5 C 8.5 3.070089817047119 6.929909706115723 1.5 5 1.5 M 5 0 C 7.761420249938965 0 10 2.238580226898193 10 5 C 10 7.761420249938965 7.761420249938965 10 5 10 C 2.238580226898193 10 0 7.761420249938965 0 5 C 0 2.238580226898193 2.238580226898193 0 5 0 Z"/></g></g><g class="h" transform="matrix(1, 0, 0, 1, 243, 577)"><g class="c" transform="translate(26.59 22.47)"><path class="d" d="M 4 7.25 C 2.207940101623535 7.25 0.75 5.792059898376465 0.75 4 C 0.75 2.207940101623535 2.207940101623535 0.75 4 0.75 C 5.792059898376465 0.75 7.25 2.207940101623535 7.25 4 C 7.25 5.792059898376465 5.792059898376465 7.25 4 7.25 Z"/><path class="f" d="M 4 1.5 C 2.621500015258789 1.5 1.5 2.621500015258789 1.5 4 C 1.5 5.378499984741211 2.621500015258789 6.5 4 6.5 C 5.378499984741211 6.5 6.5 5.378499984741211 6.5 4 C 6.5 2.621500015258789 5.378499984741211 1.5 4 1.5 M 4 0 C 6.209139823913574 0 8 1.790860176086426 8 4 C 8 6.209139823913574 6.209139823913574 8 4 8 C 1.790860176086426 8 0 6.209139823913574 0 4 C 0 1.790860176086426 1.790860176086426 0 4 0 Z"/></g></g><g class="g" transform="matrix(1, 0, 0, 1, 243, 577)"><g class="c" transform="translate(39.08 22.47)"><path class="d" d="M 4 7.25 C 2.207940101623535 7.25 0.75 5.792059898376465 0.75 4 C 0.75 2.207940101623535 2.207940101623535 0.75 4 0.75 C 5.792059898376465 0.75 7.25 2.207940101623535 7.25 4 C 7.25 5.792059898376465 5.792059898376465 7.25 4 7.25 Z"/><path class="f" d="M 4 1.5 C 2.621500015258789 1.5 1.5 2.621500015258789 1.5 4 C 1.5 5.378499984741211 2.621500015258789 6.5 4 6.5 C 5.378499984741211 6.5 6.5 5.378499984741211 6.5 4 C 6.5 2.621500015258789 5.378499984741211 1.5 4 1.5 M 4 0 C 6.209139823913574 0 8 1.790860176086426 8 4 C 8 6.209139823913574 6.209139823913574 8 4 8 C 1.790860176086426 8 0 6.209139823913574 0 4 C 0 1.790860176086426 1.790860176086426 0 4 0 Z"/></g></g></g></svg>