<svg xmlns="http://www.w3.org/2000/svg" xmlns:xlink="http://www.w3.org/1999/xlink" width="74" height="74" viewBox="0 0 74 74"><defs><style>.a{fill:#f1f5ff;stroke:#353841;stroke-width:1.5px;}.b{fill:#cad0e4;}.c{fill:#71778a;}.d{fill:#353841;}.e{stroke:none;}.f{fill:none;}.g{filter:url(#a);}</style><filter id="a" x="29" y="38" width="16" height="16" filterUnits="userSpaceOnUse"><feOffset input="SourceAlpha"/><feGaussianBlur stdDeviation="1" result="b"/><feFlood flood-opacity="0.161"/><feComposite operator="in" in2="b"/><feComposite in="SourceGraphic"/></filter></defs><g class="a"><rect class="e" width="74" height="74" rx="12"/><rect class="f" x="0.75" y="0.75" width="72.5" height="72.5" rx="11.25"/></g><path class="b" d="M-16476,2854a20.877,20.877,0,0,1-14.854-6.15,21.49,21.49,0,0,1-2.148-2.513v-24.674a21.613,21.613,0,0,1,2.148-2.513A20.876,20.876,0,0,1-16476,2812a21.031,21.031,0,0,1,9.688,2.365,21.153,21.153,0,0,1,7.309,6.3v24.664a21.143,21.143,0,0,1-7.309,6.3A21.031,21.031,0,0,1-16476,2854Z" transform="translate(2870.002 16512.998) rotate(90)"/><rect class="c" width="2" height="12" rx="1" transform="translate(28 25)"/><rect class="c" width="2" height="12" rx="1" transform="translate(44 25)"/><g class="g" transform="matrix(1, 0, 0, 1, 0, 0)"><path class="c" d="M5,0H5a5,5,0,0,1,5,5V9a1,1,0,0,1-1,1H1A1,1,0,0,1,0,9V5A5,5,0,0,1,5,0Z" transform="translate(32 41)"/></g><path class="d" d="M3,0H3A3,3,0,0,1,6,3V6A0,0,0,0,1,6,6H0A0,0,0,0,1,0,6V3A3,3,0,0,1,3,0Z" transform="translate(34 43)"/></svg>