<?xml version="1.0" encoding="utf-8"?>
<svg viewBox="200.919 80.105 25 25" width="25" height="25" xmlns="http://www.w3.org/2000/svg">
  <g transform="matrix(1, 0, 0, 1, -611.081329, -4004.894745)">
    <g class="b" transform="translate(812 4085)" style="fill: none; stroke: rgb(53, 56, 65); stroke-width: 1.5px;">
      <rect class="d" width="12" height="12" rx="1" style="stroke: none;"/>
      <rect class="e" x="0.75" y="0.75" width="10.5" height="10.5" rx="0.25"/>
    </g>
    <g class="b" transform="translate(825 4085)" style="fill: none; stroke: rgb(53, 56, 65); stroke-width: 1.5px;">
      <rect class="d" width="12" height="12" rx="1" style="stroke: none;"/>
      <rect class="e" x="0.75" y="0.75" width="10.5" height="10.5" rx="0.25"/>
    </g>
    <g class="b" transform="translate(812 4098)" style="fill: none; stroke: rgb(53, 56, 65); stroke-width: 1.5px;">
      <rect class="d" width="12" height="12" rx="1" style="stroke: none;"/>
      <rect class="e" x="0.75" y="0.75" width="10.5" height="10.5" rx="0.25"/>
    </g>
    <g class="b" transform="translate(815 4088)" style="fill: none; stroke: rgb(53, 56, 65); stroke-width: 1.5px;">
      <rect class="d" width="6" height="6" rx="1" style="stroke: none;"/>
      <rect class="e" x="0.75" y="0.75" width="4.5" height="4.5" rx="0.25"/>
    </g>
    <g class="b" transform="translate(815 4101)" style="fill: none; stroke: rgb(53, 56, 65); stroke-width: 1.5px;">
      <rect class="d" width="6" height="6" rx="1" style="stroke: none;"/>
      <rect class="e" x="0.75" y="0.75" width="4.5" height="4.5" rx="0.25"/>
    </g>
    <g class="b" transform="translate(828 4088)" style="fill: none; stroke: rgb(53, 56, 65); stroke-width: 1.5px;">
      <rect class="d" width="6" height="6" rx="1" style="stroke: none;"/>
      <rect class="e" x="0.75" y="0.75" width="4.5" height="4.5" rx="0.25"/>
    </g>
    <g class="b" transform="translate(828 4101)" style="fill: none; stroke: rgb(53, 56, 65); stroke-width: 1.5px;">
      <rect class="d" width="6" height="6" rx="1" style="stroke: none;"/>
      <rect class="e" x="0.75" y="0.75" width="4.5" height="4.5" rx="0.25"/>
    </g>
    <path class="c" d="M-1346.74,3219.724v-3.339h3.333" transform="translate(2172.729 882.605)" style="fill: none; stroke: rgb(53, 56, 65); stroke-linecap: round; stroke-linejoin: round; stroke-width: 1.5px;"/>
    <path class="c" d="M0,3.333V0H3.333" transform="translate(836.227 4098.994) rotate(90)" style="fill: none; stroke: rgb(53, 56, 65); stroke-linecap: round; stroke-linejoin: round; stroke-width: 1.5px;"/>
    <path class="c" d="M-1346.74,3216.385v3.336h3.333" transform="translate(2172.729 889.506)" style="fill: none; stroke: rgb(53, 56, 65); stroke-linecap: round; stroke-linejoin: round; stroke-width: 1.5px;"/>
    <path class="c" d="M0,0V3.333H3.333" transform="translate(832.893 4109.225) rotate(-90)" style="fill: none; stroke: rgb(53, 56, 65); stroke-linecap: round; stroke-linejoin: round; stroke-width: 1.5px;"/>
  </g>
</svg>