<svg xmlns="http://www.w3.org/2000/svg" width="62" height="62" viewBox="0 0 62 62"><defs><style>.a{fill:#e1e6f3;}.b{fill:#fff;}</style></defs><g transform="translate(-587 -474)"><g transform="translate(567 -43)"><circle class="a" cx="31" cy="31" r="31" transform="translate(20 517)"/></g><g transform="translate(603.001 494.177)"><path class="b" d="M28.18,20.354H25.441a.71.71,0,0,1-.709-.709V17.932H23.043l.2,0c-.13-2.955-2.175-3.233-2.2-3.236s-3.834-.01-6.907-.01c-1.82,0-3.054,0-3.669.01-1.958.018-2.218,2.909-2.242,3.239H6.77v1.712a.71.71,0,0,1-.709.709H3.322a.71.71,0,0,1-.709-.709V9.894A1.467,1.467,0,0,1,3.66,8.482l0-.011V8.458c0-.031,0-.059,0-.084H.78a.638.638,0,0,1-.562-.388,2.835,2.835,0,0,1,0-2.183A.638.638,0,0,1,.78,5.416H3.659A.636.636,0,0,1,4.22,5.8a3.993,3.993,0,0,1,.2.795C5.5,4.524,6.728,2.144,7.079,1.464l.009-.017a1.148,1.148,0,0,1,.874-.74,43.276,43.276,0,0,1,15.58,0,1.148,1.148,0,0,1,.873.74l.17.329.008.017.363.7c.538,1.039,1.351,2.61,2.127,4.1a3.906,3.906,0,0,1,.2-.795.638.638,0,0,1,.562-.388h2.879a.636.636,0,0,1,.562.388,2.835,2.835,0,0,1,0,2.183.639.639,0,0,1-.562.388H27.849c0,.043,0,.076-.006.107A1.468,1.468,0,0,1,28.89,9.894v9.751A.71.71,0,0,1,28.18,20.354Zm-3.545-10.06a13.111,13.111,0,0,0-2.217.241c-1.4.151-1.646,2.148-1.647,2.168h5.17c.008-.016.862-1.637,0-2.168A2.627,2.627,0,0,0,24.636,10.294Zm-17.532,0a2.625,2.625,0,0,0-1.3.241c-.866.533-.009,2.152,0,2.168h5.17c0-.019-.243-2.016-1.647-2.168A13.055,13.055,0,0,0,7.1,10.294Zm8.626-8.807a47.392,47.392,0,0,0-6.991.605h0L5.965,7.915h19.53L22.782,2.093A48.74,48.74,0,0,0,15.729,1.487Z" transform="translate(-0.001 0)"/><path class="b" d="M1531.957,7869.469s.16-2.525,1.653-2.561,10.41,0,10.41,0,1.5.207,1.625,2.561C1543.647,7869.484,1531.957,7869.469,1531.957,7869.469Z" transform="translate(-1523.059 -7851.581)"/></g></g></svg>