<svg xmlns="http://www.w3.org/2000/svg" width="74" height="74" viewBox="0 0 74 74"><defs><style>.a{fill:#f1f5ff;}.a,.b,.c,.d{stroke:#353841;stroke-width:1.5px;}.b,.c,.d,.f{fill:none;}.c,.d{stroke-linecap:round;}.c{stroke-linejoin:round;}.e{stroke:none;}</style></defs><g class="a"><rect class="e" width="74" height="74" rx="12"/><rect class="f" x="0.75" y="0.75" width="72.5" height="72.5" rx="11.25"/></g><g transform="translate(20.447 25.836)"><g class="b" transform="translate(20.663 8.149)"><ellipse class="e" cx="6.685" cy="6.685" rx="6.685" ry="6.685"/><ellipse class="f" cx="6.685" cy="6.685" rx="5.935" ry="5.935"/></g><g class="b" transform="translate(0 8.149)"><ellipse class="e" cx="6.685" cy="6.685" rx="6.685" ry="6.685"/><ellipse class="f" cx="6.685" cy="6.685" rx="5.935" ry="5.935"/></g><path class="c" d="M6008.573,10173.962l4.623-8.417h9.5l-3.748,7.137s-.4,1.459-2.859,1.406S6008.573,10173.962,6008.573,10173.962Z" transform="translate(-6001.011 -10159.505)"/><path class="c" d="M6014.885,10163.1h-3.332l5.041,9.514" transform="translate(-6001.375 -10161.484)"/><path class="c" d="M6019.977,10160.3h3.25a1.875,1.875,0,0,1,2.1,1.611" transform="translate(-5999.294 -10160.296)"/><path class="c" d="M6020.847,10160.513v5.74l6.021,8.605" transform="translate(-5999.164 -10160.264)"/><path class="d" d="M5748.74,10034.7h-2.678" transform="translate(-5737.936 -10033.084)"/></g></svg>