<svg xmlns="http://www.w3.org/2000/svg" width="33.999" height="29.067" viewBox="0 0 33.999 29.067"><defs><style>.a{fill:#fff;}</style></defs><path class="a" d="M-1600.709,14748.068v0c-.157-4.981-3.6-8.461-8.379-8.461a18.214,18.214,0,0,1-3.666.57,12.329,12.329,0,0,1-3.414-.692,8.537,8.537,0,0,0-8.625,8.447,16.9,16.9,0,0,1-4.889-11.932,16.885,16.885,0,0,1,4.979-12.02,16.887,16.887,0,0,1,12.019-4.979,16.892,16.892,0,0,1,12.022,4.979,16.884,16.884,0,0,1,4.979,12.02,16.886,16.886,0,0,1-5.025,12.068Zm-12.045-23.327a7.077,7.077,0,0,0-7.069,7.069,7.077,7.077,0,0,0,7.069,7.069,7.079,7.079,0,0,0,7.073-7.069A7.079,7.079,0,0,0-1612.754,14724.741Z" transform="translate(1629.682 -14719.001)"/></svg>