<?xml version="1.0" encoding="UTF-8"?>
<!DOCTYPE svg PUBLIC "-//W3C//DTD SVG 1.1//EN" "http://www.w3.org/Graphics/SVG/1.1/DTD/svg11.dtd">
<svg version="1.1" xmlns="http://www.w3.org/2000/svg" xmlns:xlink="http://www.w3.org/1999/xlink" width="152" height="112"  xml:space="preserve" id="no_objects_defaultCanvas">
    <!-- Generated by PaintCode - http://www.paintcodeapp.com -->
    <g id="no_objects_defaultCanvas-group">
        <rect id="no_objects_defaultCanvas-rectangle" stroke="none" fill="rgb(241, 245, 255)" x="0" y="82" width="89" height="20" rx="10" />
        <rect id="no_objects_defaultCanvas-rectangle2" stroke="none" fill="rgb(241, 245, 255)" x="91" y="62" width="59" height="20" rx="10" />
        <rect id="no_objects_defaultCanvas-rectangle3" stroke="none" fill="rgb(241, 245, 255)" x="93" y="92" width="59" height="20" rx="10" />
        <g id="no_objects_defaultCanvas-group2">
            <circle id="no_objects_defaultCanvas-oval" stroke="none" fill="rgb(255, 255, 255)" cx="39" cy="22" r="5" />
            <circle id="no_objects_defaultCanvas-oval2" stroke="rgb(200, 209, 236)" stroke-width="2" stroke-miterlimit="10" fill="none" cx="39" cy="22" r="4" />
        </g>
        <g id="no_objects_defaultCanvas-group3">
            <circle id="no_objects_defaultCanvas-oval3" stroke="none" fill="rgb(255, 255, 255)" cx="136" cy="68" r="4" />
            <circle id="no_objects_defaultCanvas-oval4" stroke="rgb(200, 209, 236)" stroke-width="2" stroke-miterlimit="10" fill="none" cx="136" cy="68" r="3" />
        </g>
        <circle id="no_objects_defaultCanvas-oval5" stroke="none" fill="rgb(200, 209, 236)" cx="127" cy="61" r="2" />
        <circle id="no_objects_defaultCanvas-oval6" stroke="none" fill="rgb(200, 209, 236)" cx="48.05" cy="29.3" r="2" />
        <circle id="no_objects_defaultCanvas-oval7" stroke="none" fill="rgb(200, 209, 236)" cx="51" cy="15" r="3" />
        <path id="no_objects_defaultCanvas-bezier" stroke="none" fill="rgb(200, 209, 236)" d="M 71.8,8.99 L 71.8,8.99 C 73.46,6.12 77.13,5.14 80,6.8 80.91,7.32 81.66,8.08 82.19,8.99 L 123.8,81 123.8,81 C 125.46,83.87 124.47,87.54 121.6,89.2 120.69,89.72 119.66,90 118.6,90 L 35.4,90 35.4,90 C 32.08,90 29.4,87.31 29.4,84 29.4,82.95 29.67,81.91 30.2,81 L 71.8,8.99 Z M 71.8,8.99" />
        <g id="no_objects_defaultCanvas-group4">
            <path id="no_objects_defaultCanvas-bezier2" stroke="none" fill="rgb(255, 255, 255)" d="M 74.8,64.72 L 74.8,64.72 C 74.8,64.64 74.8,64.57 74.81,64.5 L 73.13,30.72 73.14,30.74 C 73.05,30.43 73,30.12 73,29.8 73,27.7 75.01,26 77.5,26 79.99,26 82,27.7 82,29.8 L 82,29.8 C 82,30.09 81.96,30.37 81.89,30.64 L 80.2,64.83 80.2,64.83 80.2,64.82 C 80.02,66.14 78.84,67.09 77.51,67 L 77.48,67 C 76.11,67.1 74.92,66.08 74.8,64.71 L 74.8,64.72 Z M 74.8,64.72" />
            <ellipse id="no_objects_defaultCanvas-oval8" stroke="none" fill="rgb(255, 255, 255)" cx="77.36" cy="75.7" rx="3.75" ry="3.8" />
        </g>
    </g>
</svg>
