<svg xmlns="http://www.w3.org/2000/svg" xmlns:xlink="http://www.w3.org/1999/xlink" width="52" height="52.006" viewBox="0 0 52 52.006"><defs><style>.a{fill:url(#a);}</style><linearGradient id="a" x1="0.238" y1="0.392" x2="0.418" y2="-0.116" gradientUnits="objectBoundingBox"><stop offset="0" stop-color="#2fffd1"/><stop offset="1" stop-color="#1db795"/></linearGradient></defs><path class="a" d="M15.88,49.964A26.03,26.03,0,0,1,2.043,15.886q.076-.179.154-.357a5.47,5.47,0,0,1,.331-.721q.059-.123.118-.244l.018.009a5.5,5.5,0,0,1,9.772,4.978l.02.01A14.839,14.839,0,0,0,11,26.006a15,15,0,1,0,15-15V11a5.5,5.5,0,0,1,.047-11q.157,0,.312.009A25.992,25.992,0,0,1,44.385,44.392,26.03,26.03,0,0,1,15.88,49.964Z"/></svg>