<?xml version="1.0" encoding="UTF-8"?>
<!DOCTYPE svg PUBLIC "-//W3C//DTD SVG 1.1//EN" "http://www.w3.org/Graphics/SVG/1.1/DTD/svg11.dtd">
<svg version="1.1" xmlns="http://www.w3.org/2000/svg" xmlns:xlink="http://www.w3.org/1999/xlink" width="315" height="100"  xml:space="preserve" id="group15101Canvas">
    <!-- Generated by PaintCode - http://www.paintcodeapp.com -->
    <defs>
        <linearGradient id="group15101Canvas-gradient-bezier" x1="295" y1="50" x2="0" y2="50" gradientUnits="userSpaceOnUse" >
            <stop offset="0" stop-color="rgb(128, 128, 128)" stop-opacity="1" />
            <stop offset="0.53" stop-color="rgb(90, 92, 96)" stop-opacity="1" />
            <stop offset="1" stop-color="rgb(53, 56, 65)" stop-opacity="1" />
        </linearGradient>
        <pattern id="group15101Canvas-image2-rectangle2" x="697" y="158" width="158" height="158" patternUnits="userSpaceOnUse" viewBox="0 0 158 158">
            <image xlink:href="images/image2.png" x="0" y="0" width="158" height="158" />
        </pattern>
        <filter id="group15101Canvas-shadow-outer" filterUnits="objectBoundingBox">
            <feGaussianBlur stdDeviation="5" />
            <feOffset dx="0" dy="-0" result="blur" />
            <feFlood flood-color="rgb(132, 130, 130)" flood-opacity="1" />
            <feComposite in2="blur" operator="in" result="colorShadow" />
            <feComposite in="SourceGraphic" in2="colorShadow" operator="over" />
        </filter>
    </defs>
    <path id="group15101Canvas-bezier" stroke="none" fill="url(#group15101Canvas-gradient-bezier)" d="M 285,100 L 10,100 C 4.49,100 0,95.51 0,90 L 0,10 C 0,4.49 4.49,-0 10,-0 L 285,-0 C 290.51,-0 295,4.49 295,10 L 295,26.03 C 281.78,26.23 271.03,37.15 271.03,50.37 271.03,63.6 281.78,74.53 295,74.73 L 295,90 C 295,95.51 290.51,100 285,100 Z M 285,100" />
    <path id="group15101Canvas-bezier2" opacity="0.2" stroke="none" fill="rgb(225, 230, 243)" d="M 274.66,100 L 274.66,100 264.01,100 C 264.13,96.43 264.99,93.02 266.57,89.88 268.12,86.79 270.28,84.12 272.98,81.95 273.87,81.23 274.92,80.86 276.02,80.86 277.26,80.86 278.5,81.35 279.4,82.2 280.37,83.11 280.9,84.36 280.9,85.72 280.9,87.09 280.32,88.38 279.26,89.36 276.44,91.97 274.8,95.75 274.66,100 L 274.66,100 Z M 201.53,100 L 201.53,100 190.87,100 C 190.68,95.94 189.05,92.25 186.27,89.61 185.21,88.61 184.63,87.3 184.63,85.92 L 184.63,85.85 C 184.63,84.46 185.18,83.18 186.17,82.25 187.1,81.37 188.37,80.86 189.64,80.86 190.76,80.86 191.83,81.24 192.72,81.97 195.4,84.13 197.53,86.79 199.06,89.88 200.61,93.02 201.44,96.42 201.53,100 L 201.53,100 Z M 162.66,100 L 162.66,100 152.01,100 C 152.13,96.43 152.99,93.03 154.57,89.88 156.12,86.79 158.28,84.12 160.98,81.95 161.87,81.23 162.92,80.86 164.02,80.86 165.26,80.86 166.5,81.35 167.4,82.2 168.37,83.11 168.9,84.36 168.9,85.72 168.9,87.08 168.32,88.38 167.26,89.36 164.44,91.97 162.81,95.75 162.66,100 L 162.66,100 Z M 87.53,100 L 87.53,100 76.87,100 C 76.68,95.94 75.05,92.25 72.27,89.61 71.22,88.61 70.63,87.3 70.63,85.92 L 70.63,85.85 C 70.63,84.46 71.18,83.18 72.17,82.25 73.1,81.37 74.37,80.86 75.64,80.86 76.76,80.86 77.83,81.24 78.72,81.97 81.4,84.13 83.53,86.79 85.06,89.88 86.61,93.02 87.44,96.42 87.53,100 L 87.53,100 Z M 48.66,100 L 48.66,100 38.01,100 C 38.13,96.43 38.99,93.03 40.57,89.88 42.12,86.79 44.28,84.12 46.98,81.95 47.87,81.23 48.92,80.86 50.02,80.86 51.26,80.86 52.5,81.35 53.4,82.2 54.37,83.11 54.9,84.36 54.9,85.72 54.9,87.09 54.32,88.38 53.26,89.36 50.43,91.98 48.8,95.76 48.66,100 L 48.66,100 Z M 231.63,90.98 C 224.85,90.98 218.59,88.47 214.01,83.92 209.49,79.43 207,73.41 207,66.96 L 207,66.78 C 207,59.4 210.28,52.53 215.98,47.95 216.87,47.23 217.92,46.86 219.02,46.86 220.26,46.86 221.5,47.35 222.4,48.2 223.37,49.11 223.9,50.36 223.9,51.72 223.9,53.06 223.3,54.39 222.26,55.36 219.33,58.07 217.65,62.17 217.65,66.61 L 217.65,66.78 C 217.65,75.12 223.87,81.65 231.81,81.65 239.97,81.65 245.89,75.47 245.89,66.96 L 245.89,66.78 C 245.89,62.47 244.21,58.4 241.27,55.61 240.22,54.6 239.63,53.29 239.63,51.92 L 239.63,51.85 C 239.63,50.46 240.18,49.18 241.17,48.24 242.1,47.36 243.37,46.86 244.64,46.86 245.76,46.86 246.82,47.24 247.72,47.97 253.32,52.49 256.53,59.29 256.53,66.61 L 256.53,66.78 C 256.53,73.25 254.02,79.3 249.46,83.83 244.82,88.44 238.49,90.98 231.63,90.98 Z M 119.64,90.98 C 112.86,90.98 106.59,88.47 102.01,83.92 97.49,79.43 95,73.41 95,66.96 L 95,66.78 C 95,59.4 98.27,52.53 103.98,47.95 104.87,47.23 105.92,46.86 107.02,46.86 108.26,46.86 109.5,47.35 110.4,48.2 111.37,49.11 111.9,50.36 111.9,51.72 111.9,53.08 111.32,54.38 110.26,55.36 107.33,58.07 105.65,62.17 105.65,66.61 L 105.65,66.78 C 105.65,75.12 111.87,81.65 119.81,81.65 127.97,81.65 133.89,75.47 133.89,66.96 L 133.89,66.78 C 133.89,62.47 132.21,58.4 129.27,55.61 128.21,54.6 127.63,53.29 127.63,51.92 L 127.63,51.85 C 127.63,50.46 128.18,49.18 129.17,48.24 130.1,47.36 131.37,46.86 132.64,46.86 133.76,46.86 134.83,47.24 135.72,47.97 141.32,52.5 144.53,59.29 144.53,66.61 L 144.53,66.78 C 144.53,73.25 142.02,79.3 137.46,83.83 132.82,88.44 126.49,90.98 119.64,90.98 Z M 5.64,90.98 C 3.73,90.98 1.83,90.78 0.01,90.38 L 0.01,90.33 C 0,90.22 0,90.11 0,90 L 0,80.42 C 1.81,81.24 3.76,81.65 5.81,81.65 13.97,81.65 19.89,75.47 19.89,66.96 L 19.89,66.78 C 19.89,62.47 18.21,58.4 15.27,55.61 14.21,54.6 13.63,53.29 13.63,51.92 L 13.63,51.85 C 13.63,50.46 14.18,49.18 15.17,48.24 16.1,47.36 17.36,46.86 18.63,46.86 19.76,46.86 20.82,47.24 21.72,47.97 27.32,52.49 30.53,59.29 30.53,66.61 L 30.53,66.78 C 30.53,73.25 28.02,79.3 23.46,83.83 18.82,88.44 12.49,90.98 5.64,90.98 Z M 288.75,87.04 C 286.26,87.04 284.23,85.01 284.23,82.52 284.23,80.03 286.26,78 288.75,78 291.24,78 293.27,80.03 293.27,82.52 293.27,85.01 291.24,87.04 288.75,87.04 Z M 176.75,87.04 C 174.26,87.04 172.23,85.01 172.23,82.52 172.23,80.03 174.26,78 176.75,78 179.24,78 181.27,80.03 181.27,82.52 181.27,85.01 179.24,87.04 176.75,87.04 Z M 62.75,87.04 C 60.26,87.04 58.23,85.01 58.23,82.52 58.23,80.03 60.26,78 62.75,78 65.24,78 67.27,80.03 67.27,82.52 67.27,85.01 65.24,87.04 62.75,87.04 Z M 176.63,58.98 C 169.85,58.98 163.59,56.47 159.01,51.92 154.49,47.43 152,41.41 152,34.96 L 152,34.78 C 152,27.4 155.27,20.53 160.98,15.95 161.87,15.24 162.92,14.86 164.02,14.86 165.26,14.86 166.5,15.35 167.4,16.2 168.37,17.11 168.9,18.36 168.9,19.72 168.9,21.07 168.3,22.39 167.26,23.36 164.33,26.07 162.65,30.17 162.65,34.61 L 162.65,34.78 C 162.65,43.12 168.87,49.65 176.81,49.65 184.97,49.65 190.89,43.47 190.89,34.96 L 190.89,34.78 C 190.89,30.47 189.21,26.4 186.27,23.61 185.21,22.6 184.63,21.29 184.63,19.92 L 184.63,19.85 C 184.63,18.46 185.18,17.18 186.17,16.24 187.1,15.36 188.37,14.86 189.63,14.86 190.76,14.86 191.82,15.24 192.72,15.97 198.32,20.49 201.53,27.29 201.53,34.61 L 201.53,34.78 C 201.53,41.25 199.02,47.3 194.46,51.83 189.82,56.44 183.49,58.98 176.63,58.98 Z M 62.63,58.98 C 55.85,58.98 49.59,56.47 45.01,51.92 40.49,47.43 38,41.41 38,34.96 L 38,34.78 C 38,27.4 41.27,20.54 46.98,15.95 47.87,15.24 48.92,14.86 50.02,14.86 51.26,14.86 52.5,15.35 53.4,16.2 54.37,17.11 54.9,18.36 54.9,19.72 54.9,21.07 54.3,22.39 53.26,23.36 50.33,26.08 48.65,30.17 48.65,34.61 L 48.65,34.78 C 48.65,43.12 54.87,49.65 62.81,49.65 70.97,49.65 76.89,43.47 76.89,34.96 L 76.89,34.78 C 76.89,30.47 75.21,26.4 72.27,23.61 71.22,22.61 70.63,21.29 70.63,19.92 L 70.63,19.85 C 70.63,18.46 71.18,17.18 72.17,16.24 73.1,15.36 74.37,14.86 75.64,14.86 76.76,14.86 77.83,15.24 78.72,15.97 84.32,20.5 87.53,27.29 87.53,34.61 L 87.53,34.78 C 87.53,41.25 85.02,47.3 80.46,51.83 75.82,56.44 69.49,58.98 62.63,58.98 Z M 231.75,53.03 C 229.26,53.03 227.23,51.01 227.23,48.52 227.23,46.03 229.26,44 231.75,44 234.24,44 236.27,46.03 236.27,48.52 236.27,51.01 234.24,53.03 231.75,53.03 Z M 119.75,53.03 C 117.26,53.03 115.23,51.01 115.23,48.52 115.23,46.03 117.26,44 119.75,44 122.24,44 124.27,46.03 124.27,48.52 124.27,51.01 122.24,53.03 119.75,53.03 Z M 5.75,53.03 C 3.26,53.03 1.23,51.01 1.23,48.52 1.23,46.03 3.26,44 5.75,44 8.24,44 10.27,46.03 10.27,48.52 10.27,51.01 8.24,53.03 5.75,53.03 Z M 271.08,51.99 L 271.08,51.99 C 266.51,47.49 264,41.45 264,34.96 L 264,34.78 C 264,27.4 267.27,20.53 272.98,15.95 273.87,15.24 274.92,14.86 276.02,14.86 277.26,14.86 278.5,15.35 279.4,16.2 280.37,17.11 280.9,18.36 280.9,19.72 280.9,21.07 280.3,22.39 279.26,23.36 276.33,26.07 274.65,30.17 274.65,34.61 L 274.65,34.78 C 274.65,35.62 274.71,36.46 274.84,37.28 272.34,41.19 271.02,45.72 271.02,50.37 271.02,50.91 271.04,51.46 271.08,51.98 L 271.08,51.99 Z M 231.63,23.98 C 224.86,23.98 218.61,21.47 214.02,16.93 209.5,12.46 207.01,6.44 207,-0 L 217.65,-0 C 217.75,8.35 223.84,14.65 231.81,14.65 239.95,14.65 245.87,8.49 245.89,-0 L 256.53,-0 C 256.48,6.42 253.94,12.42 249.39,16.9 244.75,21.46 238.45,23.98 231.63,23.98 Z M 119.64,23.98 C 112.86,23.98 106.61,21.47 102.02,16.93 97.51,12.46 95.01,6.44 95,-0 L 105.65,-0 C 105.76,8.35 111.84,14.65 119.81,14.65 127.95,14.65 133.87,8.49 133.89,-0 L 144.53,-0 C 144.48,6.42 141.94,12.42 137.39,16.9 132.75,21.46 126.45,23.98 119.64,23.98 Z M 5.64,23.98 C 3.72,23.98 1.82,23.78 0,23.38 L 0,13.42 C 1.81,14.24 3.76,14.65 5.81,14.65 13.95,14.65 19.87,8.49 19.89,-0 L 30.53,-0 C 30.48,6.42 27.94,12.42 23.39,16.9 18.75,21.46 12.45,23.98 5.64,23.98 Z M 288.75,21.03 C 286.26,21.03 284.23,19.01 284.23,16.52 284.23,14.03 286.26,12 288.75,12 291.24,12 293.27,14.03 293.27,16.52 293.27,19.01 291.24,21.03 288.75,21.03 Z M 176.75,21.03 C 174.26,21.03 172.23,19.01 172.23,16.52 172.23,14.03 174.26,12 176.75,12 179.24,12 181.27,14.03 181.27,16.52 181.27,19.01 179.24,21.03 176.75,21.03 Z M 62.75,21.03 C 60.26,21.03 58.23,19.01 58.23,16.52 58.23,14.03 60.26,12 62.75,12 65.24,12 67.27,14.03 67.27,16.52 67.27,19.01 65.24,21.03 62.75,21.03 Z M 62.75,21.03" />
    <rect id="group15101Canvas-rectangle2" stroke="none" fill="url(#group15101Canvas-image2-rectangle2)" x="0" y="0" width="158" height="158"  transform="translate(523.75, -13.25) scale(0.5, 0.5)" />
    <circle id="group15101Canvas-oval" stroke="none" fill="rgb(47, 255, 209)" filter="url(#group15101Canvas-shadow-outer)" cx="295" cy="51" r="20" />
    <path id="group15101Canvas-bezier3" stroke="none" fill="rgb(53, 56, 65)" d="M 294.16,58.39 L 294.16,42.35 C 294.16,42.19 294.19,42.03 294.25,41.89 294.31,41.74 294.4,41.6 294.51,41.49 294.63,41.37 294.76,41.29 294.91,41.22 295.06,41.16 295.22,41.13 295.38,41.13 295.54,41.13 295.69,41.16 295.84,41.22 295.99,41.29 296.13,41.37 296.24,41.49 296.36,41.6 296.44,41.74 296.51,41.89 296.57,42.03 296.6,42.19 296.6,42.35 L 296.6,58.39 C 296.6,58.56 296.57,58.71 296.51,58.86 296.44,59.01 296.36,59.14 296.24,59.26 296.13,59.37 295.99,59.46 295.84,59.52 295.69,59.58 295.54,59.62 295.38,59.62 295.22,59.62 295.06,59.58 294.91,59.52 294.76,59.46 294.63,59.37 294.51,59.26 294.4,59.14 294.31,59.01 294.25,58.86 294.19,58.71 294.16,58.56 294.16,58.39 Z M 294.16,58.39" />
    <path id="group15101Canvas-bezier4" stroke="none" fill="rgb(53, 56, 65)" d="M 287.36,49.15 L 303.4,49.15 C 303.56,49.15 303.72,49.18 303.87,49.24 304.02,49.31 304.15,49.39 304.26,49.51 304.38,49.62 304.46,49.76 304.53,49.91 304.59,50.06 304.62,50.21 304.62,50.37 304.62,50.54 304.59,50.69 304.53,50.84 304.46,50.99 304.38,51.12 304.26,51.24 304.15,51.35 304.02,51.44 303.87,51.5 303.72,51.56 303.56,51.59 303.4,51.59 L 287.36,51.59 C 287.19,51.59 287.04,51.56 286.89,51.5 286.74,51.44 286.61,51.35 286.49,51.24 286.38,51.12 286.29,50.99 286.23,50.84 286.17,50.69 286.13,50.54 286.13,50.37 286.13,50.21 286.17,50.06 286.23,49.91 286.29,49.76 286.38,49.62 286.49,49.51 286.61,49.39 286.74,49.31 286.89,49.24 287.04,49.18 287.19,49.15 287.36,49.15 Z M 287.36,49.15" />
    <path id="group15101Canvas-bezier5" stroke="none" fill="rgb(225, 230, 243)" d="M 53.57,56 C 53.26,56.37 52.9,56.7 52.5,56.97 L 52.5,61.11 53.02,61.11 C 54.11,61.11 54.99,60.24 55,59.15 L 55,54.15 53.57,56 Z M 53.57,56" />
    <path id="group15101Canvas-bezier6" stroke="none" fill="rgb(225, 230, 243)" d="M 44.87,46.47 L 50.17,46.47 C 50.32,46.47 50.49,46.45 50.65,46.41 L 50.65,40.92 C 50.65,39.78 49.77,38.88 48.7,38.88 L 20.96,38.88 C 19.88,38.88 19.01,39.79 19,40.92 L 19,62.93 C 19.01,64.07 19.88,64.99 20.96,65 L 48.7,65 C 49.78,64.99 50.65,64.07 50.65,62.93 L 50.65,57.36 C 50.49,57.37 50.32,57.39 50.16,57.4 L 44.87,57.4 C 41.99,57.39 39.65,54.95 39.65,51.93 39.65,48.92 41.99,46.47 44.87,46.47 Z M 44.87,46.47" />
    <path id="group15101Canvas-bezier7" stroke="none" fill="rgb(225, 230, 243)" d="M 53.04,35 L 25.3,35 C 24.22,35.01 23.35,35.9 23.35,36.99 L 23.35,37.03 48.73,37.03 C 50.83,37.03 52.52,38.73 52.52,40.84 L 52.52,44.71 55,41.49 55,36.99 C 54.99,35.9 54.12,35.01 53.04,35 Z M 53.04,35" />
    <path id="group15101Canvas-bezier8" stroke="none" fill="rgb(225, 230, 243)" d="M 54.99,45 L 53.56,46.85 C 53.14,47.39 52.61,47.82 52,48.11 51.42,48.39 50.79,48.53 50.16,48.53 L 44.83,48.53 C 42.94,48.54 41.42,50.06 41.42,51.95 41.42,53.84 42.94,55.36 44.83,55.37 L 50.16,55.37 C 50.92,55.36 51.64,55.01 52.11,54.41 L 55,50.65 54.99,45 Z M 46.9,52.87 L 44.68,52.87 C 44.17,52.87 43.76,52.46 43.76,51.95 43.76,51.44 44.17,51.02 44.68,51.02 L 46.9,51.02 C 47.41,51.02 47.83,51.44 47.83,51.95 47.83,52.46 47.41,52.87 46.9,52.87 Z M 46.9,52.87" />
</svg>
