<svg xmlns="http://www.w3.org/2000/svg" width="16.031" height="15.237" viewBox="0 0 16.031 15.237">
  <g id="icon-home" transform="translate(0 -12.676)">
    <g id="Group_11717" data-name="Group 11717" transform="translate(0 12.675)">
      <g id="Group_11716" data-name="Group 11716" transform="translate(0 0)">
        <path id="Path_15623" data-name="Path 15623" d="M15.762,19.445,8.569,12.891a.818.818,0,0,0-1.107,0L.269,19.445a.822.822,0,0,0,.554,1.43H1.972v6.567a.471.471,0,0,0,.471.471H6.386a.471.471,0,0,0,.471-.471V23.454H9.174v3.987a.471.471,0,0,0,.471.471h3.942a.471.471,0,0,0,.471-.471V20.875h1.149a.822.822,0,0,0,.554-1.43Z" transform="translate(0 -12.675)" fill="#c8d1ec"/>
      </g>
    </g>
    <g id="Group_11719" data-name="Group 11719" transform="translate(10.77 13.617)">
      <g id="Group_11718" data-name="Group 11718">
        <path id="Path_15624" data-name="Path 15624" d="M347.139,42.73h-3.166l3.638,3.308V43.2A.471.471,0,0,0,347.139,42.73Z" transform="translate(-343.973 -42.73)" fill="#c8d1ec"/>
      </g>
    </g>
  </g>
</svg>
