<svg xmlns="http://www.w3.org/2000/svg" xmlns:xlink="http://www.w3.org/1999/xlink" width="42" height="41.576" viewBox="0 0 42 41.576"><defs><style>.a{fill:#cad0e4;}.b,.c{fill:#353841;}.d,.e{stroke:none;}.e{fill:#71778a;}.f{filter:url(#e);}.g{filter:url(#c);}.h{filter:url(#a);}</style><filter id="a" x="16" y="15.491" width="10" height="10" filterUnits="userSpaceOnUse"><feOffset input="SourceAlpha"/><feGaussianBlur stdDeviation="1" result="b"/><feFlood flood-opacity="0.161"/><feComposite operator="in" in2="b"/><feComposite in="SourceGraphic"/></filter><filter id="c" x="1.187" y="12.8" width="16" height="16" filterUnits="userSpaceOnUse"><feOffset input="SourceAlpha"/><feGaussianBlur stdDeviation="1" result="d"/><feFlood flood-opacity="0.161"/><feComposite operator="in" in2="d"/><feComposite in="SourceGraphic"/></filter><filter id="e" x="25.187" y="12.8" width="16" height="16" filterUnits="userSpaceOnUse"><feOffset input="SourceAlpha"/><feGaussianBlur stdDeviation="1" result="f"/><feFlood flood-opacity="0.161"/><feComposite operator="in" in2="f"/><feComposite in="SourceGraphic"/></filter></defs><g transform="translate(-164 -718.509)"><path class="a" d="M-6329-3147.424h0a20.789,20.789,0,0,1-11.849-5.94,20.868,20.868,0,0,1-6.152-14.85,20.979,20.979,0,0,1,5.184-13.813A20.987,20.987,0,0,1-6329-3189v2.491a3,3,0,0,0,3,3,3,3,0,0,0,3-3V-3189a20.98,20.98,0,0,1,12.816,6.972,20.972,20.972,0,0,1,5.184,13.813,20.868,20.868,0,0,1-6.15,14.85,20.775,20.775,0,0,1-11.849,5.939v-2.084a3,3,0,0,0-3-3,3,3,0,0,0-3,3v2.084Z" transform="translate(6511 3907.509)"/><g class="h" transform="matrix(1, 0, 0, 1, 164, 718.51)"><path class="b" d="M2,0A2,2,0,1,1,0,2,2,2,0,0,1,2,0Z" transform="translate(19 18.49)"/></g><g class="g" transform="matrix(1, 0, 0, 1, 164, 718.51)"><g class="c" transform="translate(4.19 15.8)"><path class="d" d="M 5 9.25 C 2.656539916992188 9.25 0.75 7.343460083007813 0.75 5 C 0.75 2.656539916992188 2.656539916992188 0.75 5 0.75 C 7.343460083007813 0.75 9.25 2.656539916992188 9.25 5 C 9.25 7.343460083007813 7.343460083007813 9.25 5 9.25 Z"/><path class="e" d="M 5 1.5 C 3.070089817047119 1.5 1.5 3.070089817047119 1.5 5 C 1.5 6.929909706115723 3.070089817047119 8.5 5 8.5 C 6.929909706115723 8.5 8.5 6.929909706115723 8.5 5 C 8.5 3.070089817047119 6.929909706115723 1.5 5 1.5 M 5 0 C 7.761420249938965 0 10 2.238580226898193 10 5 C 10 7.761420249938965 7.761420249938965 10 5 10 C 2.238580226898193 10 0 7.761420249938965 0 5 C 0 2.238580226898193 2.238580226898193 0 5 0 Z"/></g></g><g class="f" transform="matrix(1, 0, 0, 1, 164, 718.51)"><g class="c" transform="translate(28.19 15.8)"><path class="d" d="M 5 9.25 C 2.656539916992188 9.25 0.75 7.343460083007813 0.75 5 C 0.75 2.656539916992188 2.656539916992188 0.75 5 0.75 C 7.343460083007813 0.75 9.25 2.656539916992188 9.25 5 C 9.25 7.343460083007813 7.343460083007813 9.25 5 9.25 Z"/><path class="e" d="M 5 1.5 C 3.070089817047119 1.5 1.5 3.070089817047119 1.5 5 C 1.5 6.929909706115723 3.070089817047119 8.5 5 8.5 C 6.929909706115723 8.5 8.5 6.929909706115723 8.5 5 C 8.5 3.070089817047119 6.929909706115723 1.5 5 1.5 M 5 0 C 7.761420249938965 0 10 2.238580226898193 10 5 C 10 7.761420249938965 7.761420249938965 10 5 10 C 2.238580226898193 10 0 7.761420249938965 0 5 C 0 2.238580226898193 2.238580226898193 0 5 0 Z"/></g></g></g></svg>