<svg xmlns="http://www.w3.org/2000/svg" width="24.695" height="16.978" viewBox="0 0 24.695 16.978"><defs><style>.a{fill:#353841;}</style></defs><g transform="translate(0 -80)"><g transform="translate(16.37 83.13)"><path class="a" d="M339.392,150.381l8.325,5.263V144.9Z" transform="translate(-339.392 -144.896)"/></g><g transform="translate(0 83.13)"><path class="a" d="M0,144.9v10.749l8.325-5.263Z" transform="translate(0 -144.896)"/></g><g transform="translate(0.046 80)"><g transform="translate(0 0)"><path class="a" d="M24.065,80H2.457a1.524,1.524,0,0,0-1.5,1.313l12.3,8.1,12.3-8.1A1.524,1.524,0,0,0,24.065,80Z" transform="translate(-0.96 -80)"/></g></g><g transform="translate(0.049 89.546)"><g transform="translate(0 0)"><path class="a" d="M15.931,277.922l-2.184,1.438a.775.775,0,0,1-.849,0l-2.184-1.44-9.69,6.129a1.522,1.522,0,0,0,1.494,1.3H24.126a1.522,1.522,0,0,0,1.494-1.3Z" transform="translate(-1.024 -277.92)"/></g></g></g></svg>