<svg xmlns="http://www.w3.org/2000/svg" width="36.086" height="36.549" viewBox="0 0 36.086 36.549"><defs><style>.a,.b,.c,.e{fill:none;}.a,.b{stroke:#353841;}.a{stroke-width:3px;}.b{stroke-linecap:round;stroke-width:2px;}.d,.f{stroke:none;}.f{fill:#353841;}</style></defs><g transform="translate(-318.033 -524.61)"><g transform="translate(320.281 527.08)"><g transform="translate(0 0)"><g class="a" transform="translate(1.719 2.013)"><circle class="d" cx="14" cy="14" r="14"/><circle class="e" cx="14" cy="14" r="12.5"/></g><line class="b" x1="3.458" transform="translate(29.379 16.013)"/><line class="b" x1="3.458" transform="translate(-1.249 15.922)"/><line class="b" x1="3.752" transform="translate(15.922 29.327) rotate(90)"/><line class="b" x1="3.752" transform="translate(15.922 -1.47) rotate(90)"/></g></g><g class="c" transform="translate(329 550.093) rotate(-90)"><path class="d" d="M7,0A7,7,0,1,1,0,7,7,7,0,0,1,7,0Z"/><path class="f" d="M 7 3 C 4.794389724731445 3 3 4.794389724731445 3 7 C 3 9.205610275268555 4.794389724731445 11 7 11 C 9.205610275268555 11 11 9.205610275268555 11 7 C 11 4.794389724731445 9.205610275268555 3 7 3 M 7 0 C 10.86598968505859 0 14 3.134010314941406 14 7 C 14 10.86598968505859 10.86598968505859 14 7 14 C 3.134010314941406 14 0 10.86598968505859 0 7 C 0 3.134010314941406 3.134010314941406 0 7 0 Z"/></g></g></svg>