<svg xmlns="http://www.w3.org/2000/svg" width="74" height="74" viewBox="0 0 74 74"><defs><style>.a{fill:#f1f5ff;}.b,.c{fill:#c8d1ec;}.d,.f{fill:#fff;}.e,.f{stroke:none;}</style></defs><rect class="a" width="74" height="74" rx="12"/><g transform="translate(-335 -577)"><path class="b" d="M21,0A21,21,0,1,1,0,21,21,21,0,0,1,21,0Z" transform="translate(351 593)"/><g class="c" transform="translate(375 607.031)"><path class="e" d="M 7 13 C 3.691590070724487 13 1 10.30840969085693 1 7 C 1 3.691590070724487 3.691590070724487 1 7 1 C 10.30840969085693 1 13 3.691590070724487 13 7 C 13 10.30840969085693 10.30840969085693 13 7 13 Z"/><path class="f" d="M 7 2 C 4.242989540100098 2 2 4.242989540100098 2 7 C 2 9.757009506225586 4.242989540100098 12 7 12 C 9.757009506225586 12 12 9.757009506225586 12 7 C 12 4.242989540100098 9.757009506225586 2 7 2 M 7 0 C 10.86598968505859 0 14 3.134010314941406 14 7 C 14 10.86598968505859 10.86598968505859 14 7 14 C 3.134010314941406 14 0 10.86598968505859 0 7 C 0 3.134010314941406 3.134010314941406 0 7 0 Z"/></g><g class="c" transform="translate(367 598)"><path class="e" d="M 5 9 C 2.794389963150024 9 1 7.205609798431396 1 5 C 1 2.794389963150024 2.794389963150024 1 5 1 C 7.205609798431396 1 9 2.794389963150024 9 5 C 9 7.205609798431396 7.205609798431396 9 5 9 Z"/><path class="f" d="M 5 2 C 3.345789909362793 2 2 3.345789909362793 2 5 C 2 6.654210090637207 3.345789909362793 8 5 8 C 6.654210090637207 8 8 6.654210090637207 8 5 C 8 3.345789909362793 6.654210090637207 2 5 2 M 5 0 C 7.761420249938965 0 10 2.238580226898193 10 5 C 10 7.761420249938965 7.761420249938965 10 5 10 C 2.238580226898193 10 0 7.761420249938965 0 5 C 0 2.238580226898193 2.238580226898193 0 5 0 Z"/></g><g class="c" transform="translate(367 620)"><path class="e" d="M 5 9 C 2.794389963150024 9 1 7.205609798431396 1 5 C 1 2.794389963150024 2.794389963150024 1 5 1 C 7.205609798431396 1 9 2.794389963150024 9 5 C 9 7.205609798431396 7.205609798431396 9 5 9 Z"/><path class="f" d="M 5 2 C 3.345789909362793 2 2 3.345789909362793 2 5 C 2 6.654210090637207 3.345789909362793 8 5 8 C 6.654210090637207 8 8 6.654210090637207 8 5 C 8 3.345789909362793 6.654210090637207 2 5 2 M 5 0 C 7.761420249938965 0 10 2.238580226898193 10 5 C 10 7.761420249938965 7.761420249938965 10 5 10 C 2.238580226898193 10 0 7.761420249938965 0 5 C 0 2.238580226898193 2.238580226898193 0 5 0 Z"/></g><g class="c" transform="translate(355 607.031)"><path class="e" d="M 7 13 C 3.691590070724487 13 1 10.30840969085693 1 7 C 1 3.691590070724487 3.691590070724487 1 7 1 C 10.30840969085693 1 13 3.691590070724487 13 7 C 13 10.30840969085693 10.30840969085693 13 7 13 Z"/><path class="f" d="M 7 2 C 4.242989540100098 2 2 4.242989540100098 2 7 C 2 9.757009506225586 4.242989540100098 12 7 12 C 9.757009506225586 12 12 9.757009506225586 12 7 C 12 4.242989540100098 9.757009506225586 2 7 2 M 7 0 C 10.86598968505859 0 14 3.134010314941406 14 7 C 14 10.86598968505859 10.86598968505859 14 7 14 C 3.134010314941406 14 0 10.86598968505859 0 7 C 0 3.134010314941406 3.134010314941406 0 7 0 Z"/></g><g class="d" transform="translate(371 602)"><path class="e" d="M1,0A1,1,0,1,1,0,1,1,1,0,0,1,1,0Z"/><path class="f" d="M 1 0 C 1.552289962768555 0 2 0.4477200508117676 2 1 C 2 1.552289962768555 1.552289962768555 2 1 2 C 0.4477200508117676 2 0 1.552289962768555 0 1 C 0 0.4477200508117676 0.4477200508117676 0 1 0 Z"/></g><g class="d" transform="translate(371 624)"><path class="e" d="M1,0A1,1,0,1,1,0,1,1,1,0,0,1,1,0Z"/><path class="f" d="M 1 0 C 1.552289962768555 0 2 0.4477200508117676 2 1 C 2 1.552289962768555 1.552289962768555 2 1 2 C 0.4477200508117676 2 0 1.552289962768555 0 1 C 0 0.4477200508117676 0.4477200508117676 0 1 0 Z"/></g></g></svg>