<svg xmlns="http://www.w3.org/2000/svg" width="22.505" height="15.809" viewBox="0 0 22.505 15.809"><path d="M-425.074,15.809h-17.348A2.5,2.5,0,0,1-445,13.395V2.416A2.5,2.5,0,0,1-442.421,0h17.348A2.5,2.5,0,0,1-422.5,2.416V13.395A2.5,2.5,0,0,1-425.074,15.809Zm-4.962-4.61a.659.659,0,0,0-.659.658.66.66,0,0,0,.659.659h1.741a.66.66,0,0,0,.659-.659.659.659,0,0,0-.659-.658Zm-4.091,0a.659.659,0,0,0-.659.658.66.66,0,0,0,.659.659h1.742a.66.66,0,0,0,.659-.659.659.659,0,0,0-.659-.658Zm-7.845,0a.659.659,0,0,0-.659.658.66.66,0,0,0,.659.659h5.5a.66.66,0,0,0,.659-.659.659.659,0,0,0-.659-.658Zm14.316-7.97a.514.514,0,0,0-.378.132.513.513,0,0,0-.133.378V7.66a.537.537,0,0,0,.15.4.538.538,0,0,0,.4.151.518.518,0,0,0,.388-.148.54.54,0,0,0,.144-.4V6.085h1.7A.6.6,0,0,0-425,5.98a.393.393,0,0,0,.126-.321A.406.406,0,0,0-425,5.329a.6.6,0,0,0-.392-.105h-1.7V4.09h1.84a.612.612,0,0,0,.392-.1.4.4,0,0,0,.126-.322.408.408,0,0,0-.126-.329.612.612,0,0,0-.392-.1Zm-2.29-.035a.541.541,0,0,0-.4.147.533.533,0,0,0-.147.392V7.66a.534.534,0,0,0,.147.4.541.541,0,0,0,.4.148.542.542,0,0,0,.4-.148.534.534,0,0,0,.147-.4V3.733a.533.533,0,0,0-.147-.392A.542.542,0,0,0-429.944,3.194Zm-5.046,1.827,0,0,2.343,3a.508.508,0,0,0,.406.183.494.494,0,0,0,.374-.151.548.548,0,0,0,.144-.4V3.733a.539.539,0,0,0-.144-.389.494.494,0,0,0-.374-.15.469.469,0,0,0-.364.15.548.548,0,0,0-.14.389V6.358l-2.344-2.982a.477.477,0,0,0-.4-.182.49.49,0,0,0-.374.15.542.542,0,0,0-.143.389V7.66a.56.56,0,0,0,.139.4.485.485,0,0,0,.372.151.472.472,0,0,0,.367-.151.567.567,0,0,0,.137-.4V5.021Z" transform="translate(445.001)"/></svg>