<svg xmlns="http://www.w3.org/2000/svg" width="36" height="30" viewBox="0 0 36 30">
    <defs>
        <style>.a{fill:#353841;}</style>
    </defs>
    <g transform="translate(0 -39)">
        <g transform="translate(33.503 58.153)">
            <path class="a" d="M366.063,237.549a5.053,5.053,0,0,1-1.063.971v4.143h.518a1.977,1.977,0,0,0,1.979-1.96v-5Z" transform="translate(-365 -235.7)"/>
        </g>
        <g transform="translate(0 42.884)">
            <g transform="translate(0 0)">
                <path class="a" d="M25.874,88.585h5.294a2.162,2.162,0,0,0,.486-.058V83.036A1.994,1.994,0,0,0,29.7,81H1.963A2.008,2.008,0,0,0,0,83.036v22.016a2.034,2.034,0,0,0,1.963,2.064H29.7a2.02,2.02,0,0,0,1.954-2.064l-.009-5.578c-.156.019-.321.038-.486.048H25.874a5.474,5.474,0,0,1,0-10.936Z" transform="translate(0 -81)"/>
            </g>
        </g>
        <g transform="translate(4.346 39)">
            <g transform="translate(0 0)">
                <path class="a" d="M76.69,39H48.954A1.98,1.98,0,0,0,47,40.988v.046H72.387a3.8,3.8,0,0,1,3.789,3.81v3.865l2.477-3.218v-4.5A1.993,1.993,0,0,0,76.69,39Z" transform="translate(-47 -39)"/>
            </g>
        </g>
        <g transform="translate(22.416 49.007)">
            <g transform="translate(0 0)">
                <path class="a" d="M258.675,141.9l-1.433,1.849a4.3,4.3,0,0,1-1.563,1.258,4.218,4.218,0,0,1-1.84.416h-5.326a3.421,3.421,0,0,0,0,6.843h5.336a2.49,2.49,0,0,0,1.942-.962l2.894-3.754Zm-8.091,7.869h-2.219a.925.925,0,1,1,0-1.849h2.219a.925.925,0,0,1,0,1.849Z" transform="translate(-245.1 -141.9)"/>
            </g>
        </g>
    </g>
</svg>