<svg xmlns="http://www.w3.org/2000/svg" width="20.455" height="13.78" viewBox="0 0 20.455 13.78"><defs><style>.a{fill:#353841;}</style></defs><g transform="translate(-755.972 -111.796)"><path class="a" d="M766.214,111.8h8.734a1.316,1.316,0,0,1,1.479,1.35q0,5.548,0,11.1a1.314,1.314,0,0,1-1.454,1.334h-17.6a1.306,1.306,0,0,1-1.4-1.281q0-5.6,0-11.193a1.307,1.307,0,0,1,1.422-1.3q4.41,0,8.82,0Zm-2.74,11.274q2.014,0,4.027,0c.471,0,.769-.274.74-.7a3.7,3.7,0,0,0-.365-1.4,1.034,1.034,0,0,0-.617-.562c-.553-.184-1.108-.363-1.659-.55a.3.3,0,0,0-.322.061,2.884,2.884,0,0,1-1.849.645,3,3,0,0,1-1.768-.641.353.353,0,0,0-.253-.072c-.559.168-1.112.352-1.666.533a1.029,1.029,0,0,0-.7.662,8.3,8.3,0,0,0-.325,1.249c-.078.5.229.775.776.775Zm-2.043-6.636a4.058,4.058,0,0,0,.377,1.6,2.384,2.384,0,0,0,.893,1.048,1.4,1.4,0,0,0,1.57-.016,2.244,2.244,0,0,0,.73-.779,3.847,3.847,0,0,0,.5-2.27,1.964,1.964,0,0,0-1.963-1.709A2,2,0,0,0,761.43,116.434Zm9.521-.879h1.981c.454,0,.764-.253.767-.622s-.3-.629-.757-.63q-1.971,0-3.942,0c-.449,0-.759.26-.756.631s.315.621.767.621Zm.021,2.506c-.659,0-1.319,0-1.978,0-.449,0-.753.262-.748.635a.666.666,0,0,0,.748.616q1.978,0,3.956,0a.636.636,0,1,0,0-1.252C772.291,118.059,771.632,118.06,770.972,118.06Z" transform="translate(0)"/></g></svg>