<?xml version="1.0" encoding="utf-8"?>
<svg viewBox="247.366 96.992 37.251 35.331" width="37.251" height="35.331" xmlns="http://www.w3.org/2000/svg">
  <g transform="matrix(1, 0, 0, 1, -169, -323.333344)">
    <path class="b" d="M913.113,257.307v.053a3.841,3.841,0,0,0,1.234,2.776,11.519,11.519,0,0,1,3.471,8.4v.132c0,6.021-4.1,11.05-10.586,11.05-6.219,0-10.652-5.1-10.652-11.182v-.132a11.409,11.409,0,0,1,3.466-8.457,3.746,3.746,0,0,0,1.238-2.739h0a3.656,3.656,0,0,0-5.956-2.837,18.083,18.083,0,0,0-6.754,14.166v.132c0,9.925,7.874,18.063,18.526,18.063,10.785,0,18.724-8.271,18.724-18.2v-.132a17.893,17.893,0,0,0-6.627-14.017A3.741,3.741,0,0,0,913.113,257.307Z" transform="translate(-472.208 168.924)" style="fill: rgb(53, 56, 65);"/>
    <path class="c" d="M1016.17,238.907a3.4,3.4,0,1,1,3.4,3.4,3.4,3.4,0,0,1-3.4-3.4" transform="translate(-584.592 184.818)" style="fill-rule: evenodd; fill: rgb(53, 56, 65);"/>
  </g>
</svg>