<svg xmlns="http://www.w3.org/2000/svg" width="32.486" height="26.355" viewBox="0 0 32.486 26.355"><defs><style>.a{fill:#fff;}</style></defs><path class="a" d="M31.146,26.355H14.494a1.338,1.338,0,0,1-1.34-1.332v-2a.105.105,0,0,1,0-.015V22.99a1.342,1.342,0,0,1,1.339-1.3h.414a1.344,1.344,0,0,1,0-.19V12.686a4.016,4.016,0,0,0-2.7,4.986c.594,2.284.737,5.523-.811,7.132a3.107,3.107,0,0,1-2.2.907H9.106a5.216,5.216,0,0,1-1.182-.144A3.823,3.823,0,0,1,5.069,23.4c-1.432-3.288,1.777-8.9,1.914-9.133a12.539,12.539,0,0,0,1.427-3.1c.477-1.571.764-3.8-.577-5.506L7,6.7a1.346,1.346,0,0,1-.9.495H5.981a1.332,1.332,0,0,1-.828-.289L2.275,4.626l-.014-.011L2.246,4.6a1.33,1.33,0,0,1-.2-1.874L2.9,1.7A4.169,4.169,0,0,0,.922,1.2c-.086,0-.169,0-.248.007A.534.534,0,0,1,.6,1.214.595.595,0,0,1,.521.029,3.532,3.532,0,0,1,.975,0,8.294,8.294,0,0,1,5.6,1.983,20.989,20.989,0,0,1,8.086,4.162l.008.007A5.574,5.574,0,0,1,9.93,7.417a8.132,8.132,0,0,1-.191,3.419A14.107,14.107,0,0,1,8,14.826l-.016.029c-.5.9-2.924,5.522-1.814,8.069a2.661,2.661,0,0,0,2.013,1.522,2.393,2.393,0,0,0,2.4-.449c1.143-1.158,1.071-3.944.521-6.043a5.238,5.238,0,0,1,3.812-6.47V1.59A1.338,1.338,0,0,1,16.263.258H29.354a1.338,1.338,0,0,1,1.34,1.332V21.5a1.341,1.341,0,0,1,0,.19h.452a1.338,1.338,0,0,1,1.34,1.332v2A1.338,1.338,0,0,1,31.146,26.355ZM14.525,22.83a.191.191,0,0,0-.191.19v2a.191.191,0,0,0,.191.19H31.177a.191.191,0,0,0,.191-.19v-2a.244.244,0,0,0,0-.033.19.19,0,0,0-.189-.16l-.031,0Zm5.229-6.909a.571.571,0,1,0,0,1.142h6.125a.571.571,0,1,0,0-1.142Zm-.911-12.71A1.338,1.338,0,0,0,17.5,4.543v7.893a1.337,1.337,0,0,0,1.34,1.331h7.932a1.337,1.337,0,0,0,1.339-1.331V4.543a1.337,1.337,0,0,0-1.339-1.332ZM3.96,2.357H3.936a.188.188,0,0,0-.13.069l-.85,1.05a.188.188,0,0,0,0,.266L5.835,6.027a.183.183,0,0,0,.113.04h.024A.193.193,0,0,0,6.1,6l.849-1.043a.186.186,0,0,0,.069-.145.182.182,0,0,0-.069-.129L4.074,2.4A.185.185,0,0,0,3.96,2.357Z"/></svg>