<svg xmlns="http://www.w3.org/2000/svg" xmlns:xlink="http://www.w3.org/1999/xlink" width="42" height="57.013" viewBox="0 0 42 57.013"><defs><style>.a,.e{fill:#71778a;}.b{fill:#cad0e4;}.c{fill:#353841;}.d,.e{stroke:none;}.f{filter:url(#q);}.g{filter:url(#o);}.h{filter:url(#m);}.i{filter:url(#k);}.j{filter:url(#i);}.k{filter:url(#g);}.l{filter:url(#e);}.m{filter:url(#c);}.n{filter:url(#a);}</style><filter id="a" x="19.186" y="18.294" width="16" height="16" filterUnits="userSpaceOnUse"><feOffset input="SourceAlpha"/><feGaussianBlur stdDeviation="1" result="b"/><feFlood flood-opacity="0.161"/><feComposite operator="in" in2="b"/><feComposite in="SourceGraphic"/></filter><filter id="c" x="2" y="38.016" width="18.997" height="18.997" filterUnits="userSpaceOnUse"><feOffset input="SourceAlpha"/><feGaussianBlur stdDeviation="1" result="d"/><feFlood flood-opacity="0.161"/><feComposite operator="in" in2="d"/><feComposite in="SourceGraphic"/></filter><filter id="e" x="21" y="38.016" width="18.997" height="18.997" filterUnits="userSpaceOnUse"><feOffset input="SourceAlpha"/><feGaussianBlur stdDeviation="1" result="f"/><feFlood flood-opacity="0.161"/><feComposite operator="in" in2="f"/><feComposite in="SourceGraphic"/></filter><filter id="g" x="6.701" y="18.294" width="16" height="16" filterUnits="userSpaceOnUse"><feOffset input="SourceAlpha"/><feGaussianBlur stdDeviation="1" result="h"/><feFlood flood-opacity="0.161"/><feComposite operator="in" in2="h"/><feComposite in="SourceGraphic"/></filter><filter id="i" x="25.428" y="8.485" width="16" height="16" filterUnits="userSpaceOnUse"><feOffset input="SourceAlpha"/><feGaussianBlur stdDeviation="1" result="j"/><feFlood flood-opacity="0.161"/><feComposite operator="in" in2="j"/><feComposite in="SourceGraphic"/></filter><filter id="k" x="12.944" y="8.485" width="16" height="16" filterUnits="userSpaceOnUse"><feOffset input="SourceAlpha"/><feGaussianBlur stdDeviation="1" result="l"/><feFlood flood-opacity="0.161"/><feComposite operator="in" in2="l"/><feComposite in="SourceGraphic"/></filter><filter id="m" x="0.459" y="8.485" width="16" height="16" filterUnits="userSpaceOnUse"><feOffset input="SourceAlpha"/><feGaussianBlur stdDeviation="1" result="n"/><feFlood flood-opacity="0.161"/><feComposite operator="in" in2="n"/><feComposite in="SourceGraphic"/></filter><filter id="o" x="7.593" y="0.459" width="14" height="14" filterUnits="userSpaceOnUse"><feOffset input="SourceAlpha"/><feGaussianBlur stdDeviation="1" result="p"/><feFlood flood-opacity="0.161"/><feComposite operator="in" in2="p"/><feComposite in="SourceGraphic"/></filter><filter id="q" x="20.078" y="0.459" width="14" height="14" filterUnits="userSpaceOnUse"><feOffset input="SourceAlpha"/><feGaussianBlur stdDeviation="1" result="r"/><feFlood flood-opacity="0.161"/><feComposite operator="in" in2="r"/><feComposite in="SourceGraphic"/></filter></defs><g transform="translate(-259 -585.015)"><path class="a" d="M0,0H24V10H0Z" transform="translate(268 616.227)"/><path class="b" d="M-6326-3134.437a21.225,21.225,0,0,1-14.849-5.949,19.851,19.851,0,0,1-6.15-14.364,19.562,19.562,0,0,1,2.286-9.227A20.7,20.7,0,0,1-6338.6-3171h25.2a20.692,20.692,0,0,1,6.111,7.023,19.584,19.584,0,0,1,2.288,9.227,19.858,19.858,0,0,1-6.151,14.364A21.225,21.225,0,0,1-6326-3134.437Z" transform="translate(6606 3756.016)"/><g class="n" transform="matrix(1, 0, 0, 1, 259, 585.02)"><g class="c" transform="translate(22.19 21.29)"><path class="d" d="M 5 9.25 C 2.656539916992188 9.25 0.75 7.343460083007813 0.75 5 C 0.75 2.656539916992188 2.656539916992188 0.75 5 0.75 C 7.343460083007813 0.75 9.25 2.656539916992188 9.25 5 C 9.25 7.343460083007813 7.343460083007813 9.25 5 9.25 Z"/><path class="e" d="M 5 1.5 C 3.070089817047119 1.5 1.5 3.070089817047119 1.5 5 C 1.5 6.929909706115723 3.070089817047119 8.5 5 8.5 C 6.929909706115723 8.5 8.5 6.929909706115723 8.5 5 C 8.5 3.070089817047119 6.929909706115723 1.5 5 1.5 M 5 0 C 7.761420249938965 0 10 2.238580226898193 10 5 C 10 7.761420249938965 7.761420249938965 10 5 10 C 2.238580226898193 10 0 7.761420249938965 0 5 C 0 2.238580226898193 2.238580226898193 0 5 0 Z"/></g></g><rect class="b" width="36" height="17" rx="8.5" transform="translate(262 624)"/><g class="m" transform="matrix(1, 0, 0, 1, 259, 585.02)"><g class="c" transform="translate(5 41.02)"><path class="d" d="M 6.498535633087158 11.9970760345459 C 3.466625690460205 11.9970760345459 0.9999956488609314 9.53044605255127 0.9999956488609314 6.498535633087158 C 0.9999956488609314 3.466625690460205 3.466625690460205 0.9999956488609314 6.498535633087158 0.9999956488609314 C 9.53044605255127 0.9999956488609314 11.9970760345459 3.466625690460205 11.9970760345459 6.498535633087158 C 11.9970760345459 9.53044605255127 9.53044605255127 11.9970760345459 6.498535633087158 11.9970760345459 Z"/><path class="e" d="M 6.498535633087158 1.999995231628418 C 4.018035888671875 1.999995231628418 1.999995231628418 4.018035888671875 1.999995231628418 6.498535633087158 C 1.999995231628418 8.979036331176758 4.018035888671875 10.9970760345459 6.498535633087158 10.9970760345459 C 8.979036331176758 10.9970760345459 10.9970760345459 8.979036331176758 10.9970760345459 6.498535633087158 C 10.9970760345459 4.018035888671875 8.979036331176758 1.999995231628418 6.498535633087158 1.999995231628418 M 6.498535633087158 -4.76837158203125e-06 C 10.08757591247559 -4.76837158203125e-06 12.9970760345459 2.90949535369873 12.9970760345459 6.498535633087158 C 12.9970760345459 10.08757591247559 10.08757591247559 12.9970760345459 6.498535633087158 12.9970760345459 C 2.90949535369873 12.9970760345459 -4.76837158203125e-06 10.08757591247559 -4.76837158203125e-06 6.498535633087158 C -4.76837158203125e-06 2.90949535369873 2.90949535369873 -4.76837158203125e-06 6.498535633087158 -4.76837158203125e-06 Z"/></g></g><g class="l" transform="matrix(1, 0, 0, 1, 259, 585.02)"><g class="c" transform="translate(24 41.02)"><path class="d" d="M 6.498535633087158 11.9970760345459 C 3.466625690460205 11.9970760345459 0.9999956488609314 9.53044605255127 0.9999956488609314 6.498535633087158 C 0.9999956488609314 3.466625690460205 3.466625690460205 0.9999956488609314 6.498535633087158 0.9999956488609314 C 9.53044605255127 0.9999956488609314 11.9970760345459 3.466625690460205 11.9970760345459 6.498535633087158 C 11.9970760345459 9.53044605255127 9.53044605255127 11.9970760345459 6.498535633087158 11.9970760345459 Z"/><path class="e" d="M 6.498535633087158 1.999995231628418 C 4.018035888671875 1.999995231628418 1.999995231628418 4.018035888671875 1.999995231628418 6.498535633087158 C 1.999995231628418 8.979036331176758 4.018035888671875 10.9970760345459 6.498535633087158 10.9970760345459 C 8.979036331176758 10.9970760345459 10.9970760345459 8.979036331176758 10.9970760345459 6.498535633087158 C 10.9970760345459 4.018035888671875 8.979036331176758 1.999995231628418 6.498535633087158 1.999995231628418 M 6.498535633087158 -4.76837158203125e-06 C 10.08757591247559 -4.76837158203125e-06 12.9970760345459 2.90949535369873 12.9970760345459 6.498535633087158 C 12.9970760345459 10.08757591247559 10.08757591247559 12.9970760345459 6.498535633087158 12.9970760345459 C 2.90949535369873 12.9970760345459 -4.76837158203125e-06 10.08757591247559 -4.76837158203125e-06 6.498535633087158 C -4.76837158203125e-06 2.90949535369873 2.90949535369873 -4.76837158203125e-06 6.498535633087158 -4.76837158203125e-06 Z"/></g></g><g class="k" transform="matrix(1, 0, 0, 1, 259, 585.02)"><g class="c" transform="translate(9.7 21.29)"><path class="d" d="M 5 9.25 C 2.656539916992188 9.25 0.75 7.343460083007813 0.75 5 C 0.75 2.656539916992188 2.656539916992188 0.75 5 0.75 C 7.343460083007813 0.75 9.25 2.656539916992188 9.25 5 C 9.25 7.343460083007813 7.343460083007813 9.25 5 9.25 Z"/><path class="e" d="M 5 1.5 C 3.070089817047119 1.5 1.5 3.070089817047119 1.5 5 C 1.5 6.929909706115723 3.070089817047119 8.5 5 8.5 C 6.929909706115723 8.5 8.5 6.929909706115723 8.5 5 C 8.5 3.070089817047119 6.929909706115723 1.5 5 1.5 M 5 0 C 7.761420249938965 0 10 2.238580226898193 10 5 C 10 7.761420249938965 7.761420249938965 10 5 10 C 2.238580226898193 10 0 7.761420249938965 0 5 C 0 2.238580226898193 2.238580226898193 0 5 0 Z"/></g></g><g class="j" transform="matrix(1, 0, 0, 1, 259, 585.02)"><g class="c" transform="translate(28.43 11.48)"><path class="d" d="M 5 9.25 C 2.656539916992188 9.25 0.75 7.343460083007813 0.75 5 C 0.75 2.656539916992188 2.656539916992188 0.75 5 0.75 C 7.343460083007813 0.75 9.25 2.656539916992188 9.25 5 C 9.25 7.343460083007813 7.343460083007813 9.25 5 9.25 Z"/><path class="e" d="M 5 1.5 C 3.070089817047119 1.5 1.5 3.070089817047119 1.5 5 C 1.5 6.929909706115723 3.070089817047119 8.5 5 8.5 C 6.929909706115723 8.5 8.5 6.929909706115723 8.5 5 C 8.5 3.070089817047119 6.929909706115723 1.5 5 1.5 M 5 0 C 7.761420249938965 0 10 2.238580226898193 10 5 C 10 7.761420249938965 7.761420249938965 10 5 10 C 2.238580226898193 10 0 7.761420249938965 0 5 C 0 2.238580226898193 2.238580226898193 0 5 0 Z"/></g></g><g class="i" transform="matrix(1, 0, 0, 1, 259, 585.02)"><g class="c" transform="translate(15.94 11.48)"><path class="d" d="M 5 9.25 C 2.656539916992188 9.25 0.75 7.343460083007813 0.75 5 C 0.75 2.656539916992188 2.656539916992188 0.75 5 0.75 C 7.343460083007813 0.75 9.25 2.656539916992188 9.25 5 C 9.25 7.343460083007813 7.343460083007813 9.25 5 9.25 Z"/><path class="e" d="M 5 1.5 C 3.070089817047119 1.5 1.5 3.070089817047119 1.5 5 C 1.5 6.929909706115723 3.070089817047119 8.5 5 8.5 C 6.929909706115723 8.5 8.5 6.929909706115723 8.5 5 C 8.5 3.070089817047119 6.929909706115723 1.5 5 1.5 M 5 0 C 7.761420249938965 0 10 2.238580226898193 10 5 C 10 7.761420249938965 7.761420249938965 10 5 10 C 2.238580226898193 10 0 7.761420249938965 0 5 C 0 2.238580226898193 2.238580226898193 0 5 0 Z"/></g></g><g class="h" transform="matrix(1, 0, 0, 1, 259, 585.02)"><g class="c" transform="translate(3.46 11.48)"><path class="d" d="M 5 9.25 C 2.656539916992188 9.25 0.75 7.343460083007813 0.75 5 C 0.75 2.656539916992188 2.656539916992188 0.75 5 0.75 C 7.343460083007813 0.75 9.25 2.656539916992188 9.25 5 C 9.25 7.343460083007813 7.343460083007813 9.25 5 9.25 Z"/><path class="e" d="M 5 1.5 C 3.070089817047119 1.5 1.5 3.070089817047119 1.5 5 C 1.5 6.929909706115723 3.070089817047119 8.5 5 8.5 C 6.929909706115723 8.5 8.5 6.929909706115723 8.5 5 C 8.5 3.070089817047119 6.929909706115723 1.5 5 1.5 M 5 0 C 7.761420249938965 0 10 2.238580226898193 10 5 C 10 7.761420249938965 7.761420249938965 10 5 10 C 2.238580226898193 10 0 7.761420249938965 0 5 C 0 2.238580226898193 2.238580226898193 0 5 0 Z"/></g></g><g class="g" transform="matrix(1, 0, 0, 1, 259, 585.02)"><g class="c" transform="translate(10.59 3.46)"><path class="d" d="M 4 7.25 C 2.207940101623535 7.25 0.75 5.792059898376465 0.75 4 C 0.75 2.207940101623535 2.207940101623535 0.75 4 0.75 C 5.792059898376465 0.75 7.25 2.207940101623535 7.25 4 C 7.25 5.792059898376465 5.792059898376465 7.25 4 7.25 Z"/><path class="e" d="M 4 1.5 C 2.621500015258789 1.5 1.5 2.621500015258789 1.5 4 C 1.5 5.378499984741211 2.621500015258789 6.5 4 6.5 C 5.378499984741211 6.5 6.5 5.378499984741211 6.5 4 C 6.5 2.621500015258789 5.378499984741211 1.5 4 1.5 M 4 0 C 6.209139823913574 0 8 1.790860176086426 8 4 C 8 6.209139823913574 6.209139823913574 8 4 8 C 1.790860176086426 8 0 6.209139823913574 0 4 C 0 1.790860176086426 1.790860176086426 0 4 0 Z"/></g></g><g class="f" transform="matrix(1, 0, 0, 1, 259, 585.02)"><g class="c" transform="translate(23.08 3.46)"><path class="d" d="M 4 7.25 C 2.207940101623535 7.25 0.75 5.792059898376465 0.75 4 C 0.75 2.207940101623535 2.207940101623535 0.75 4 0.75 C 5.792059898376465 0.75 7.25 2.207940101623535 7.25 4 C 7.25 5.792059898376465 5.792059898376465 7.25 4 7.25 Z"/><path class="e" d="M 4 1.5 C 2.621500015258789 1.5 1.5 2.621500015258789 1.5 4 C 1.5 5.378499984741211 2.621500015258789 6.5 4 6.5 C 5.378499984741211 6.5 6.5 5.378499984741211 6.5 4 C 6.5 2.621500015258789 5.378499984741211 1.5 4 1.5 M 4 0 C 6.209139823913574 0 8 1.790860176086426 8 4 C 8 6.209139823913574 6.209139823913574 8 4 8 C 1.790860176086426 8 0 6.209139823913574 0 4 C 0 1.790860176086426 1.790860176086426 0 4 0 Z"/></g></g></g></svg>