<?xml version="1.0" encoding="UTF-8"?>
<!DOCTYPE svg PUBLIC "-//W3C//DTD SVG 1.1//EN" "http://www.w3.org/Graphics/SVG/1.1/DTD/svg11.dtd">
<svg version="1.1" xmlns="http://www.w3.org/2000/svg" xmlns:xlink="http://www.w3.org/1999/xlink" width="119" height="86"  xml:space="preserve" id="group12603Canvas">
    <!-- Generated by PaintCode - http://www.paintcodeapp.com -->
    <g id="group12603Canvas-group">
        <rect id="group12603Canvas-rectangle" stroke="none" fill="rgb(241, 245, 255)" x="0" y="55.75" width="59" height="20" rx="10" />
        <rect id="group12603Canvas-rectangle2" stroke="none" fill="rgb(241, 245, 255)" x="51" y="40.75" width="56" height="20" rx="10" />
        <rect id="group12603Canvas-rectangle3" stroke="none" fill="rgb(241, 245, 255)" x="60" y="65.75" width="59" height="20" rx="10" />
        <g id="group12603Canvas-group2">
            <circle id="group12603Canvas-oval" stroke="none" fill="rgb(255, 255, 255)" cx="22" cy="28.75" r="5" />
            <circle id="group12603Canvas-oval2" stroke="rgb(200, 209, 236)" stroke-width="2" stroke-miterlimit="10" fill="none" cx="22" cy="28.75" r="4" />
        </g>
        <circle id="group12603Canvas-oval3" stroke="none" fill="rgb(200, 209, 236)" cx="13" cy="20.75" r="2" />
        <circle id="group12603Canvas-oval4" stroke="none" fill="rgb(200, 209, 236)" cx="78" cy="41.75" r="2" />
        <g id="group12603Canvas-group3">
            <circle id="group12603Canvas-oval5" stroke="none" fill="rgb(255, 255, 255)" cx="74" cy="34.75" r="4" />
            <circle id="group12603Canvas-oval6" stroke="rgb(200, 209, 236)" stroke-width="2" stroke-miterlimit="10" fill="none" cx="74" cy="34.75" r="3" />
        </g>
        <g id="group12603Canvas-group4">
            <circle id="group12603Canvas-oval7" stroke="none" fill="rgb(255, 255, 255)" cx="13" cy="38.75" r="4" />
            <circle id="group12603Canvas-oval8" stroke="rgb(200, 209, 236)" stroke-width="2" stroke-miterlimit="10" fill="none" cx="13" cy="38.75" r="3" />
        </g>
        <g id="group12603Canvas-group5">
            <path id="group12603Canvas-bezier" stroke="none" fill="rgb(200, 209, 236)" d="M 60.63,66.8 L 36.25,66.8 36.25,66.8 C 33.9,66.8 32,64.9 32,62.55 L 32,8.48 32,8.49 C 32,6.15 33.9,4.25 36.25,4.25 L 38.36,4.25 38.36,3.42 C 38.36,1.53 39.31,-0 40.48,-0 L 56.38,-0 C 57.56,-0 58.51,1.53 58.51,3.42 L 58.51,4.25 60.64,4.25 60.63,4.25 C 62.97,4.25 64.87,6.15 64.87,8.49 L 64.87,62.55 64.87,62.56 C 64.87,64.9 62.97,66.8 60.63,66.8 L 60.63,66.8 Z M 44.8,39.46 L 44.8,39.46 43.14,51.69 43.14,51.69 C 43.05,52.3 43.48,52.87 44.1,52.96 44.15,52.97 44.2,52.97 44.25,52.97 L 44.25,52.97 C 44.34,52.97 44.42,52.96 44.51,52.94 L 44.51,52.94 C 44.79,52.87 45.04,52.7 45.2,52.46 L 58.61,31.68 58.61,31.68 C 58.95,31.16 58.8,30.46 58.28,30.12 58.03,29.96 57.71,29.9 57.42,29.97 L 52.69,31.06 54,18.89 54,18.88 C 54.07,18.27 53.62,17.71 53,17.65 52.57,17.6 52.16,17.81 51.93,18.17 L 38.91,38.84 38.92,38.84 C 38.58,39.36 38.73,40.05 39.25,40.39 39.51,40.56 39.82,40.61 40.12,40.55 L 44.8,39.46 Z M 44.8,39.46" />
        </g>
    </g>
</svg>
