<svg xmlns="http://www.w3.org/2000/svg" width="22.626" height="34.296" viewBox="0 0 22.626 34.296"><defs><style>.a{fill:#353841;}</style></defs><path class="a" d="M11.213,12.915a2.4,2.4,0,0,1-1.929-.81,3.42,3.42,0,0,1-.691-2.286A7.444,7.444,0,0,1,9.451,6.08a15.639,15.639,0,0,1,2.382-3.072A15.593,15.593,0,0,0,13.476.96a3.466,3.466,0,0,0,.548-1.905,2.036,2.036,0,0,0-.762-1.667,3.232,3.232,0,0,0-2.1-.619A6.09,6.09,0,0,0,9-2.827,17.2,17.2,0,0,0,6.593-1.66L5.45-1.089a5.818,5.818,0,0,1-2.62.905A2.526,2.526,0,0,1,.806-1.208a3.833,3.833,0,0,1-.834-2.5A3.5,3.5,0,0,1,.329-5.376,4.129,4.129,0,0,1,1.5-6.662,16.981,16.981,0,0,1,6.379-9.115,17.869,17.869,0,0,1,11.88-10a13.56,13.56,0,0,1,5.525,1.072,9.215,9.215,0,0,1,3.811,2.953A7.022,7.022,0,0,1,22.6-1.708a7.14,7.14,0,0,1-.738,3.239,9.612,9.612,0,0,1-1.786,2.525Q19.025,5.1,17.358,6.58A22.234,22.234,0,0,0,14.952,8.8a4.444,4.444,0,0,0-1.072,1.929,2.533,2.533,0,0,1-.929,1.62A2.757,2.757,0,0,1,11.213,12.915Zm.1,11.384a4.388,4.388,0,0,1-3.263-1.334,4.508,4.508,0,0,1-1.31-3.287,4.508,4.508,0,0,1,1.31-3.287,4.388,4.388,0,0,1,3.263-1.334,4.445,4.445,0,0,1,3.31,1.334,4.508,4.508,0,0,1,1.31,3.287,4.508,4.508,0,0,1-1.31,3.287A4.445,4.445,0,0,1,11.309,24.3Z" transform="translate(0.028 9.996)"/></svg>