<svg xmlns="http://www.w3.org/2000/svg" width="42.001" height="33.998" viewBox="0 0 42.001 33.998"><defs><style>.a{fill:#c8d1ec;}.b{fill:#fff;}</style></defs><g transform="translate(-16.001 -20)"><path class="a" d="M-16476,2854a20.877,20.877,0,0,1-14.854-6.15,21.49,21.49,0,0,1-2.148-2.513v-24.674a21.613,21.613,0,0,1,2.148-2.513A20.876,20.876,0,0,1-16476,2812a21.031,21.031,0,0,1,9.688,2.365,21.153,21.153,0,0,1,7.309,6.3v24.664a21.143,21.143,0,0,1-7.309,6.3A21.031,21.031,0,0,1-16476,2854Z" transform="translate(2870.002 16512.998) rotate(90)"/><rect class="b" width="2" height="12" rx="1" transform="translate(28 25)"/><rect class="b" width="2" height="12" rx="1" transform="translate(44 25)"/><path class="b" d="M5,0H5a5,5,0,0,1,5,5V9a1,1,0,0,1-1,1H1A1,1,0,0,1,0,9V5A5,5,0,0,1,5,0Z" transform="translate(32 41)"/><path class="a" d="M3,0H3A3,3,0,0,1,6,3V6A0,0,0,0,1,6,6H0A0,0,0,0,1,0,6V3A3,3,0,0,1,3,0Z" transform="translate(34 43)"/></g></svg>