<svg xmlns="http://www.w3.org/2000/svg" width="32" height="41.847" viewBox="0 0 32 41.847"><defs><style>.a{fill:#353841;}.b{fill:#fff;}</style></defs><g transform="translate(0.229 -1)"><g transform="translate(-0.229 1)"><path class="a" d="M-108-54.207A15.9,15.9,0,0,0-124-70a15.9,15.9,0,0,0-16,15.793c0,10.265,16,26.055,16,26.055s16-15.79,16-26.055" transform="translate(140 70)"/></g><g transform="translate(3.564 9.342)"><path class="b" d="M217.047,244.121c.131-.162.245-.312.365-.455.757-.9,1.514-1.788,2.265-2.688a.527.527,0,0,1,.513-.207,31.041,31.041,0,0,1,7.065,1.626,6.067,6.067,0,0,1,.59.267,1.476,1.476,0,0,1,.178.126,6.415,6.415,0,0,1-3.4,2.89,4.167,4.167,0,0,1-.184-.447.991.991,0,0,0-.634-.725,16.047,16.047,0,0,0-1.691-.433,5.742,5.742,0,0,0-.943-.058c-.4-.013-.439.021-.52.415q-.274,1.335-.541,2.673-.965,4.764-1.931,9.526-.519,2.552-1.049,5.1a.547.547,0,0,1-.121.253c-.1-.481-.2-.961-.3-1.442q-1.663-8.107-3.32-16.215c-.048-.234-.13-.345-.384-.314-.722.09-1.452.131-2.164.263a1.5,1.5,0,0,0-1.266,1.149,1.748,1.748,0,0,1-.108.24,6.552,6.552,0,0,1-3.43-2.873c.194-.072.341-.13.492-.182,1.048-.359,2.08-.772,3.147-1.058,1.093-.293,2.218-.466,3.331-.677.335-.064.681-.072,1.02-.12a.381.381,0,0,1,.389.162c.769.943,1.547,1.878,2.322,2.816C216.814,243.843,216.9,243.945,217.047,244.121Z" transform="translate(-204.842 -237.923)"/><path class="b" d="M184.948,192.41l-.878-1.943a37.466,37.466,0,0,1,24.43,0c-.162.333-.321.653-.48.974s-.315.626-.491.974c-.475-.14-.953-.262-1.419-.42a28.924,28.924,0,0,0-6.694-1.423,35.626,35.626,0,0,0-6.346.008,31.979,31.979,0,0,0-7.342,1.617C185.482,192.279,185.226,192.335,184.948,192.41Z" transform="translate(-184.07 -188.42)"/></g></g></svg>