<svg xmlns="http://www.w3.org/2000/svg" width="17.281" height="12.534" viewBox="0 0 17.281 12.534"><defs><style>.a{fill:#c8d1ec;}</style></defs><g transform="translate(0 -70.333)"><path class="a" d="M5.329,74.015a3.659,3.659,0,0,1,.849.1,5.3,5.3,0,0,1,4.267-2.135q.185,0,.366.013a3.367,3.367,0,0,0-5.832.048A2.122,2.122,0,0,0,2.013,73.58,2.2,2.2,0,0,0,.467,77.125a3.729,3.729,0,0,1,1.424-.691,3.669,3.669,0,0,1,3.438-2.419Z"/><path class="a" d="M245.472,320.04a.563.563,0,1,0,.5.559A.509.509,0,0,0,245.472,320.04Z" transform="translate(-236.702 -241.279)"/><path class="a" d="M14.791,152.478c0-.006,0-.011,0-.017a4.347,4.347,0,0,0-8.207-2,2.675,2.675,0,0,0-3.906,2,2.78,2.78,0,0,0,.1,5.558H14.5a2.78,2.78,0,0,0,.29-5.545Zm-8.623,2.559a.6.6,0,0,0,.489-.262l.476.425a1.209,1.209,0,0,1-1,.447,1.172,1.172,0,1,1,0-2.339,1.208,1.208,0,0,1,1,.447l-.476.425a.6.6,0,0,0-.489-.262.56.56,0,0,0,0,1.118Zm2.6.61a1.173,1.173,0,1,1,0-2.339,1.173,1.173,0,1,1,0,2.339ZM12.3,155.6H10.511v-.463l.809-.748c.153-.144.176-.23.176-.307,0-.109-.074-.176-.217-.176a.366.366,0,0,0-.329.208l-.569-.284a1.026,1.026,0,0,1,.968-.518c.531,0,.9.275.9.7a.881.881,0,0,1-.383.713l-.32.291H12.3v.585Z" transform="translate(0 -75.157)"/></g></svg>