<svg xmlns="http://www.w3.org/2000/svg" width="20" height="68.034" viewBox="0 0 20 68.034">
  <g id="Group_12485" data-name="Group 12485" transform="translate(-322 -646)">
    <g id="Group_9319" data-name="Group 9319">
      <path id="Path_9979" data-name="Path 9979" d="M902.4,255.668v.03a2.163,2.163,0,0,0,.695,1.563,6.489,6.489,0,0,1,1.955,4.733v.075a5.9,5.9,0,0,1-5.963,6.224,6.065,6.065,0,0,1-6-6.3v-.075a6.426,6.426,0,0,1,1.952-4.764,2.11,2.11,0,0,0,.7-1.543h0a2.059,2.059,0,0,0-3.355-1.6,10.186,10.186,0,0,0-3.8,7.98v.075a10.177,10.177,0,0,0,10.436,10.175,10.289,10.289,0,0,0,10.547-10.249v-.075a10.079,10.079,0,0,0-3.733-7.9A2.107,2.107,0,0,0,902.4,255.668Z" transform="translate(69.658 1555.556) rotate(-90)" fill="#fcfcfc"/>
      <path id="Path_9980" data-name="Path 9980" d="M1016.171,237.423a1.914,1.914,0,1,1,1.914,1.914,1.914,1.914,0,0,1-1.914-1.914" transform="translate(86.491 1674.584) rotate(-90)" fill="#2fffd1"/>
    </g>
    <g id="Group_9318" data-name="Group 9318" transform="translate(322.638 714.034) rotate(-90)">
      <path id="Path_4070" data-name="Path 4070" d="M197.523,264.373A9.257,9.257,0,0,1,188,254.745v-.07c0-5.306,3.76-9.663,9.066-9.663,5.9,0,8.82,4.849,8.82,9.136a1.988,1.988,0,0,1-2,2.038H192.252a5.179,5.179,0,0,0,5.341,4.709,6.668,6.668,0,0,0,4.392-1.616,1.584,1.584,0,0,1,1.089-.387,1.673,1.673,0,0,1,1.687,1.722,1.857,1.857,0,0,1-.562,1.3A9.527,9.527,0,0,1,197.523,264.373Zm4.217-11c-.281-2.741-1.9-4.884-4.709-4.884-2.6,0-4.428,2-4.814,4.884Z" transform="translate(-188 -245.011)" fill="#2fffd1"/>
      <path id="Path_4071" data-name="Path 4071" d="M475.938,266.743h-.211a2.64,2.64,0,0,1-2.425-1.862l-6.185-14.161a3.314,3.314,0,0,1-.246-1.054,2.154,2.154,0,0,1,4.217-.492l4.779,12.3,4.849-12.369a2.117,2.117,0,0,1,2-1.476,2.026,2.026,0,0,1,2.073,2.038,2.55,2.55,0,0,1-.246,1.019l-6.185,14.2A2.688,2.688,0,0,1,475.938,266.743Z" transform="translate(-448.143 -247.451)" fill="#2fffd1"/>
      <path id="Path_4072" data-name="Path 4072" d="M776.092,249.771a2.1,2.1,0,0,1,2.108-2.144,2.13,2.13,0,0,1,2.143,2.144v14.688a2.126,2.126,0,0,1-4.252,0Z" transform="translate(-736.595 -247.451)" fill="#fcfcfc"/>
    </g>
  </g>
</svg>
