<svg xmlns="http://www.w3.org/2000/svg" width="33.488" height="28.044" viewBox="0 0 33.488 28.044"><defs><style>.a,.b{fill:#fff;}.b,.c,.d{stroke:#fff;}.b{stroke-width:0.2px;font-size:12px;font-family:GothamRounded-Book, Gotham Rounded;}.c,.d{fill:none;}.c{stroke-linecap:round;}.d{stroke-width:2px;}</style></defs><g transform="translate(0 1.069)"><path class="a" d="M175.009-338.968h0a42.507,42.507,0,0,1-3.5-3.954c-1.6-2.056-3.5-4.987-3.5-7.273a6.917,6.917,0,0,1,7.008-6.8,6.917,6.917,0,0,1,7.008,6.8c0,2.285-1.906,5.216-3.5,7.273a42.507,42.507,0,0,1-3.5,3.954Zm-4.338-10.444a.56.56,0,0,0-.559.559.553.553,0,0,0,.559.559h.7a3.82,3.82,0,0,0,3.77,3.081,3.476,3.476,0,0,0,2.911-1.521.719.719,0,0,0,.156-.454.709.709,0,0,0-.715-.7.694.694,0,0,0-.559.26,2.158,2.158,0,0,1-1.781.988,2.2,2.2,0,0,1-2.132-1.651h2.34a.553.553,0,0,0,.546-.559.56.56,0,0,0-.546-.559h-2.574c-.013-.169-.013-.34-.013-.52a4.139,4.139,0,0,1,.026-.572h2.561a.546.546,0,0,0,.546-.545.553.553,0,0,0-.546-.559h-2.314a2.155,2.155,0,0,1,2-1.586,2.157,2.157,0,0,1,1.807.923.7.7,0,0,0,.559.26.762.762,0,0,0,.768-.754.773.773,0,0,0-.209-.533,3.539,3.539,0,0,0-2.885-1.326,3.849,3.849,0,0,0-3.692,3.016h-.728a.553.553,0,0,0-.559.559.553.553,0,0,0,.559.545h.519a4.734,4.734,0,0,0-.025.6c0,.166,0,.338.013.494Z" transform="translate(-168 357)"/><g transform="translate(19.473 0)"><path class="a" d="M7.008,18.031h0a42.548,42.548,0,0,1-3.5-3.954C1.906,12.02,0,9.089,0,6.8A6.916,6.916,0,0,1,7.008,0a6.916,6.916,0,0,1,7.008,6.8c0,2.285-1.906,5.216-3.5,7.272a42.549,42.549,0,0,1-3.5,3.954Zm0-17.049A5.911,5.911,0,0,0,1.1,6.883c0,3.791,5.85,9.676,5.909,9.735.058-.058,5.909-5.923,5.909-9.735A5.911,5.911,0,0,0,7.008.982Z" transform="translate(0 0)"/><text class="b" transform="translate(2.028 11.131)"><tspan x="0" y="0">€</tspan></text></g><path class="c" d="M-2973.657,16574.473h6.491" transform="translate(2977.443 -16554.49)"/><path class="c" d="M-2973.657,16574.473h6.491" transform="translate(2996.916 -16554.49)"/><path class="c" d="M-2973.657,16574.473h6.491" transform="translate(2987.179 -16547.998)"/><path class="c" d="M-2973.657,16574.473h19.473" transform="translate(2980.688 -16551.244)"/><path class="d" d="M-2960.955,16578.154v3.738" transform="translate(2977.723 -16554.926)"/></g></svg>