<?xml version="1.0" encoding="UTF-8"?>
<!DOCTYPE svg PUBLIC "-//W3C//DTD SVG 1.1//EN" "http://www.w3.org/Graphics/SVG/1.1/DTD/svg11.dtd">
<svg version="1.1" xmlns="http://www.w3.org/2000/svg" xmlns:xlink="http://www.w3.org/1999/xlink" width="195" height="74"  xml:space="preserve" id="group12831Canvas">
    <!-- Generated by PaintCode - http://www.paintcodeapp.com -->
    <g id="group12831Canvas-group_12831">
        <rect id="group12831Canvas-rectangle_5430" stroke="none" fill="rgb(241, 245, 255)" x="3.25" y="40.98" width="92" height="20" rx="10" />
        <rect id="group12831Canvas-rectangle_5431" stroke="none" fill="rgb(241, 245, 255)" x="104.25" y="29.98" width="76" height="20" rx="10" />
        <rect id="group12831Canvas-rectangle_5432" stroke="none" fill="rgb(241, 245, 255)" x="96.25" y="53.98" width="62" height="20" rx="10" />
        <g id="group12831Canvas-ellipse_1718">
            <circle id="group12831Canvas-oval" stroke="none" fill="rgb(255, 255, 255)" cx="179.25" cy="55.98" r="5" />
            <circle id="group12831Canvas-oval2" stroke="rgb(200, 209, 236)" stroke-width="2" stroke-miterlimit="10" fill="none" cx="179.25" cy="55.98" r="4" />
        </g>
        <circle id="group12831Canvas-ellipse_1719" stroke="none" fill="rgb(200, 209, 236)" cx="191.25" cy="48.98" r="3" />
        <g id="group12831Canvas-ellipse_1720">
            <circle id="group12831Canvas-oval4" stroke="none" fill="rgb(255, 255, 255)" cx="4.9" cy="25.6" r="4" />
            <circle id="group12831Canvas-oval5" stroke="rgb(200, 209, 236)" stroke-width="2" stroke-miterlimit="10" fill="none" cx="4.9" cy="25.6" r="3" />
        </g>
        <circle id="group12831Canvas-ellipse_1715" stroke="none" fill="rgb(200, 209, 236)" cx="13.55" cy="34.7" r="2" />
        <circle id="group12831Canvas-ellipse_1722" stroke="none" fill="rgb(200, 209, 236)" cx="177.25" cy="43.98" r="2" />
        <g id="group12831Canvas-group_12832">
            <g id="group12831Canvas-group_12830">
                <g id="group12831Canvas-car">
                    <path id="group12831Canvas-path_10000" stroke="none" fill="rgb(252, 252, 252)" d="M 64,24.51 L 64,24.51 C 63.87,24.19 63.56,23.97 63.21,23.95 L 59.07,23.95 59.07,23.95 C 58.72,23.96 58.41,24.17 58.27,24.49 L 58.26,24.5 C 58.13,24.88 58.03,25.26 57.98,25.66 56.16,22.15 54.15,18.26 54.15,18.26 L 54.15,18.25 C 53.95,17.7 53.47,17.3 52.89,17.19 L 52.5,17.12 C 45.01,15.8 37.34,15.87 29.88,17.32 L 30.56,17.19 C 29.98,17.3 29.5,17.7 29.3,18.25 29.3,18.26 27.28,22.15 25.47,25.65 L 25.47,25.66 C 25.41,25.26 25.32,24.88 25.18,24.5 L 25.19,24.51 C 25.05,24.19 24.74,23.97 24.39,23.95 L 20.25,23.95 20.26,23.95 C 19.9,23.96 19.59,24.17 19.45,24.49 L 19.45,24.48 C 19.03,25.48 19.02,26.6 19.43,27.6 L 19.44,27.63 C 19.58,27.96 19.89,28.18 20.24,28.19 L 24.37,28.19 C 24.37,28.25 24.37,28.29 24.38,28.35 L 24.38,28.35 C 23.49,28.62 22.88,29.44 22.88,30.37 L 22.88,44.36 22.88,44.36 C 22.88,44.92 23.34,45.38 23.9,45.38 L 27.83,45.38 27.83,45.38 C 28.39,45.38 28.85,44.92 28.85,44.36 L 28.85,41.9 54.6,41.9 54.6,44.36 54.6,44.36 C 54.6,44.92 55.06,45.38 55.62,45.38 L 59.55,45.38 59.55,45.38 C 60.11,45.38 60.57,44.92 60.57,44.36 L 60.57,30.37 60.57,30.37 C 60.57,29.44 59.96,28.62 59.07,28.35 59.07,28.3 59.08,28.25 59.08,28.19 L 63.2,28.19 63.19,28.19 C 63.54,28.18 63.86,27.97 64,27.65 L 63.99,27.66 C 64.42,26.67 64.43,25.55 64.02,24.55 L 64,24.51 Z M 64,24.51" />
                </g>
                <g id="group12831Canvas-car2">
                    <path id="group12831Canvas-path_100002" stroke="none" fill="rgb(252, 252, 252)" d="M 132.92,13.53 L 132.92,13.54 C 132.7,13.01 132.2,12.66 131.63,12.63 L 124.9,12.63 124.91,12.63 C 124.34,12.65 123.83,12.99 123.59,13.52 L 123.59,13.53 C 123.37,14.14 123.21,14.76 123.12,15.4 120.17,9.7 116.9,3.37 116.9,3.37 L 116.9,3.36 C 116.57,2.46 115.79,1.81 114.85,1.65 L 114.23,1.53 C 102.05,-0.61 89.58,-0.5 77.45,1.85 L 78.55,1.65 C 77.61,1.81 76.83,2.46 76.51,3.36 76.5,3.37 73.23,9.7 70.28,15.39 L 70.29,15.4 C 70.2,14.76 70.04,14.14 69.82,13.53 L 69.82,13.54 C 69.6,13.01 69.1,12.66 68.53,12.63 L 61.8,12.63 61.81,12.63 C 61.24,12.65 60.73,12.99 60.49,13.52 L 60.5,13.49 C 59.82,15.11 59.8,16.93 60.46,18.55 L 60.48,18.61 C 60.71,19.14 61.21,19.49 61.78,19.52 L 68.5,19.52 C 68.5,19.61 68.5,19.69 68.51,19.77 L 68.51,19.77 C 67.06,20.22 66.07,21.55 66.07,23.07 L 66.07,45.8 66.07,45.8 C 66.07,46.72 66.81,47.46 67.72,47.46 L 74.11,47.46 74.11,47.46 C 75.02,47.46 75.76,46.72 75.76,45.8 L 75.76,41.81 117.64,41.81 117.64,45.8 117.64,45.8 C 117.64,46.72 118.38,47.46 119.3,47.46 L 125.68,47.46 125.68,47.46 C 126.6,47.46 127.34,46.72 127.34,45.8 L 127.34,23.07 127.34,23.07 C 127.34,21.55 126.35,20.22 124.9,19.78 124.9,19.69 124.91,19.61 124.91,19.53 L 131.61,19.53 131.6,19.53 C 132.17,19.51 132.68,19.16 132.91,18.64 L 132.9,18.66 C 133.59,17.05 133.61,15.23 132.95,13.6 L 132.92,13.53 Z M 132.92,13.53" />
                </g>
                <g id="group12831Canvas-car3">
                    <path id="group12831Canvas-path_100003" stroke="none" fill="rgb(252, 252, 252)" d="M 173.94,24.51 L 173.94,24.51 C 173.81,24.19 173.5,23.97 173.15,23.95 L 169.01,23.95 169.01,23.95 C 168.66,23.96 168.35,24.17 168.21,24.49 L 168.2,24.5 C 168.07,24.88 167.97,25.26 167.92,25.66 166.1,22.15 164.09,18.26 164.09,18.26 L 164.09,18.25 C 163.89,17.7 163.41,17.3 162.83,17.19 L 162.44,17.12 C 154.95,15.8 147.28,15.87 139.82,17.32 L 140.5,17.19 C 139.92,17.3 139.44,17.7 139.24,18.25 139.24,18.26 137.22,22.15 135.41,25.65 L 135.41,25.66 C 135.35,25.26 135.26,24.88 135.12,24.5 L 135.13,24.51 C 134.99,24.19 134.68,23.97 134.33,23.95 L 130.19,23.95 130.2,23.95 C 129.84,23.96 129.53,24.17 129.39,24.49 L 129.39,24.48 C 128.97,25.48 128.96,26.6 129.37,27.6 L 129.38,27.63 C 129.52,27.96 129.83,28.18 130.18,28.19 L 134.31,28.19 C 134.31,28.25 134.31,28.29 134.32,28.35 L 134.32,28.35 C 133.43,28.62 132.82,29.44 132.82,30.37 L 132.82,44.36 132.82,44.36 C 132.82,44.92 133.28,45.38 133.84,45.38 L 137.77,45.38 137.77,45.38 C 138.33,45.38 138.79,44.92 138.79,44.36 L 138.79,41.9 164.54,41.9 164.54,44.36 164.54,44.36 C 164.54,44.92 165,45.38 165.56,45.38 L 169.49,45.38 169.49,45.38 C 170.05,45.38 170.51,44.92 170.51,44.36 L 170.51,30.37 170.51,30.37 C 170.51,29.44 169.9,28.62 169.01,28.35 169.01,28.3 169.02,28.25 169.02,28.19 L 173.14,28.19 173.13,28.19 C 173.48,28.18 173.8,27.97 173.94,27.65 L 173.93,27.66 C 174.36,26.67 174.37,25.55 173.96,24.55 L 173.94,24.51 Z M 173.94,24.51" />
                </g>
            </g>
            <g id="group12831Canvas-group_12544">
                <g id="group12831Canvas-group_11150">
                    <path id="group12831Canvas-subtraction_214" stroke="none" fill="rgb(200, 209, 236)" d="M 125.68,47.46 L 119.3,47.46 119.3,47.46 C 118.38,47.46 117.64,46.72 117.64,45.8 L 117.64,41.81 113.87,41.81 114.18,41.81 C 114.02,38.21 112.64,36.35 111.5,35.43 L 111.49,35.42 C 110.78,34.82 109.92,34.41 109,34.25 108.98,34.26 100.21,34.24 92.96,34.24 88.72,34.24 85.84,34.25 84.4,34.26 79.85,34.32 79.23,41.05 79.18,41.81 L 75.76,41.81 75.76,45.8 75.76,45.8 C 75.76,46.71 75.02,47.46 74.11,47.46 L 67.72,47.46 67.73,47.46 C 66.81,47.46 66.07,46.71 66.07,45.8 L 66.07,23.07 66.07,23.06 C 66.07,21.53 67.08,20.19 68.55,19.76 68.5,19.68 68.5,19.6 68.5,19.53 L 61.8,19.53 61.8,19.53 C 61.22,19.51 60.71,19.15 60.49,18.62 L 60.5,18.67 C 59.82,17.05 59.8,15.23 60.46,13.6 L 60.48,13.54 C 60.71,13.01 61.22,12.66 61.8,12.64 L 68.51,12.64 68.5,12.64 C 69.08,12.66 69.59,13.01 69.82,13.54 L 69.82,13.54 C 70.04,14.15 70.2,14.77 70.29,15.41 71.79,12.49 73.75,8.7 76.27,3.82 L 76.47,3.43 76.5,3.38 76.51,3.37 C 76.83,2.47 77.61,1.82 78.55,1.65 L 79.18,1.54 C 91.36,-0.61 103.82,-0.5 115.95,1.86 L 114.85,1.65 C 115.79,1.82 116.57,2.47 116.9,3.37 116.93,3.44 120.15,9.68 123.12,15.39 L 123.12,15.41 C 123.21,14.77 123.36,14.14 123.58,13.54 L 123.58,13.54 C 123.81,13.01 124.32,12.65 124.9,12.63 L 131.61,12.64 131.6,12.63 C 132.18,12.65 132.69,13.01 132.92,13.54 L 132.9,13.49 C 133.59,15.11 133.6,16.93 132.94,18.56 L 132.92,18.62 C 132.69,19.15 132.18,19.51 131.6,19.53 L 124.91,19.53 C 124.91,19.64 124.9,19.71 124.89,19.78 L 124.91,19.78 C 126.37,20.23 127.36,21.59 127.33,23.11 L 127.33,45.8 127.33,45.8 C 127.33,46.72 126.59,47.46 125.68,47.46 Z M 117.42,24 L 117.58,24 C 115.81,24.03 114.04,24.21 112.3,24.55 108.98,24.92 108.41,29.57 108.4,29.62 L 120.46,29.62 C 120.54,29.46 122.47,25.8 120.46,24.56 L 120.45,24.56 C 119.51,24.12 118.47,23.93 117.44,24 L 117.42,24 Z M 76.54,24 L 76.52,24 C 75.48,23.93 74.45,24.12 73.51,24.56 71.48,25.81 73.48,29.58 73.5,29.62 L 85.55,29.62 C 85.55,29.57 85.01,24.92 81.71,24.56 L 81.65,24.55 C 79.91,24.21 78.15,24.03 76.38,24 L 76.54,24 Z M 96.65,3.47 L 96.01,3.48 C 90.27,3.58 84.55,4.13 78.9,5.13 L 73.88,18.46 119.42,18.46 113.09,4.88 113.03,4.87 C 107.75,4.03 102.42,3.57 97.07,3.47 L 96.65,3.47 Z M 96.65,3.47" />
                    <path id="group12831Canvas-path_10005" stroke="none" fill="rgb(200, 209, 236)" d="M 80.73,41.7 C 80.73,41.7 81.1,35.82 84.58,35.74 88.06,35.66 108.85,35.74 108.85,35.74 108.85,35.74 112.36,36.22 112.64,41.7 107.98,41.75 80.73,41.7 80.73,41.7 Z M 80.73,41.7" />
                </g>
                <g id="group12831Canvas-group_12221">
                    <path id="group12831Canvas-subtraction_2142" stroke="none" fill="rgb(200, 209, 236)" d="M 59.55,45.38 L 55.62,45.38 55.62,45.38 C 55.06,45.38 54.6,44.93 54.6,44.36 L 54.6,41.9 52.47,41.9 52.47,41.9 C 52.53,40.4 51.91,38.95 50.8,37.95 L 50.82,37.97 C 50.39,37.61 49.89,37.37 49.34,37.26 49.28,37.26 43.84,37.25 39.42,37.25 36.81,37.25 35.04,37.25 34.16,37.26 31.35,37.29 30.98,41.43 30.94,41.9 L 28.84,41.9 28.84,44.36 28.84,44.36 C 28.84,44.93 28.39,45.38 27.83,45.38 L 23.89,45.38 23.9,45.38 C 23.33,45.38 22.88,44.93 22.88,44.36 L 22.88,30.38 22.88,30.36 C 22.88,29.42 23.5,28.6 24.4,28.34 24.37,28.3 24.37,28.25 24.37,28.2 L 20.25,28.2 20.25,28.2 C 19.9,28.18 19.58,27.97 19.44,27.64 L 19.45,27.67 C 19.03,26.67 19.02,25.55 19.43,24.54 L 19.44,24.51 C 19.58,24.18 19.9,23.96 20.25,23.95 L 24.38,23.95 24.37,23.95 C 24.73,23.96 25.05,24.18 25.18,24.51 L 25.18,24.5 C 25.32,24.88 25.42,25.27 25.47,25.66 26.7,23.28 28.03,20.72 28.74,19.34 L 29.13,18.58 29.14,18.56 29.3,18.26 29.3,18.25 C 29.5,17.7 29.98,17.3 30.56,17.2 L 30.94,17.13 C 38.43,15.81 46.1,15.87 53.57,17.32 L 52.89,17.2 C 53.47,17.3 53.95,17.7 54.15,18.25 54.17,18.3 56.21,22.25 57.98,25.65 L 57.98,25.66 C 58.03,25.26 58.13,24.88 58.26,24.51 L 58.26,24.51 C 58.4,24.18 58.72,23.96 59.07,23.95 L 63.2,23.95 63.19,23.95 C 63.55,23.96 63.86,24.18 64,24.51 L 63.99,24.48 C 64.41,25.48 64.42,26.6 64.02,27.6 L 64,27.64 C 63.86,27.97 63.55,28.18 63.19,28.2 L 59.08,28.2 C 59.08,28.25 59.08,28.3 59.07,28.35 L 59.08,28.35 C 59.98,28.63 60.58,29.46 60.57,30.4 L 60.57,44.36 60.57,44.36 C 60.57,44.93 60.11,45.38 59.55,45.38 L 59.55,45.38 Z M 54.47,30.95 L 54.57,30.95 C 53.48,30.97 52.39,31.08 51.32,31.29 49.28,31.52 48.92,34.38 48.92,34.41 L 56.34,34.41 C 56.35,34.39 57.57,32.06 56.34,31.3 L 56.32,31.29 C 55.74,31.02 55.11,30.9 54.47,30.95 L 54.47,30.95 Z M 29.32,30.95 L 29.31,30.95 C 28.67,30.91 28.03,31.03 27.46,31.3 26.2,32.07 27.43,34.39 27.45,34.41 L 34.86,34.41 C 34.86,34.38 34.54,31.52 32.5,31.3 L 32.43,31.29 C 31.37,31.08 30.28,30.96 29.19,30.95 L 29.32,30.95 Z M 41.69,18.32 L 41.29,18.32 C 37.76,18.38 34.23,18.72 30.75,19.34 L 27.68,27.54 55.7,27.54 51.81,19.18 51.8,19.18 51.72,19.17 C 48.51,18.66 45.26,18.38 42,18.32 L 41.69,18.32 Z M 41.69,18.32" />
                    <path id="group12831Canvas-path_100052" stroke="none" fill="rgb(200, 209, 236)" d="M 31.89,41.84 C 31.89,41.84 32.12,38.22 34.27,38.17 36.41,38.12 49.2,38.17 49.2,38.17 49.2,38.17 51.35,38.47 51.53,41.84 48.66,41.86 31.89,41.84 31.89,41.84 Z M 31.89,41.84" />
                </g>
                <g id="group12831Canvas-group_12232">
                    <path id="group12831Canvas-subtraction_2143" stroke="none" fill="rgb(200, 209, 236)" d="M 169.49,45.38 L 165.56,45.38 165.56,45.38 C 165,45.38 164.54,44.93 164.54,44.36 L 164.54,41.9 162.41,41.9 162.41,41.9 C 162.47,40.4 161.85,38.95 160.74,37.95 L 160.76,37.97 C 160.33,37.61 159.82,37.37 159.28,37.26 159.22,37.26 153.78,37.25 149.36,37.25 146.75,37.25 144.98,37.25 144.1,37.26 141.29,37.29 140.92,41.43 140.88,41.9 L 138.78,41.9 138.78,44.36 138.78,44.36 C 138.78,44.93 138.33,45.38 137.76,45.38 L 133.83,45.38 133.83,45.38 C 133.27,45.38 132.82,44.93 132.82,44.36 L 132.82,30.38 132.82,30.36 C 132.82,29.42 133.44,28.6 134.34,28.34 134.31,28.3 134.31,28.25 134.31,28.2 L 130.19,28.2 130.19,28.2 C 129.84,28.18 129.52,27.97 129.38,27.64 L 129.39,27.67 C 128.97,26.67 128.96,25.55 129.37,24.54 L 129.38,24.51 C 129.52,24.18 129.84,23.96 130.19,23.95 L 134.32,23.95 134.31,23.95 C 134.67,23.96 134.98,24.18 135.12,24.51 L 135.12,24.5 C 135.26,24.88 135.35,25.27 135.41,25.66 136.63,23.28 137.97,20.72 138.68,19.34 L 139.07,18.58 139.08,18.56 139.24,18.26 139.24,18.25 C 139.44,17.7 139.92,17.3 140.5,17.2 L 140.88,17.13 C 148.37,15.81 156.04,15.87 163.51,17.32 L 162.83,17.2 C 163.41,17.3 163.89,17.7 164.09,18.25 164.11,18.3 166.15,22.25 167.92,25.65 L 167.91,25.66 C 167.97,25.26 168.07,24.88 168.2,24.51 L 168.2,24.51 C 168.34,24.18 168.66,23.96 169.01,23.95 L 173.14,23.95 173.13,23.95 C 173.49,23.96 173.8,24.18 173.94,24.51 L 173.93,24.48 C 174.35,25.48 174.36,26.6 173.96,27.6 L 173.94,27.64 C 173.8,27.97 173.49,28.18 173.13,28.2 L 169.01,28.2 C 169.01,28.25 169.01,28.3 169,28.35 L 169.02,28.35 C 169.91,28.63 170.52,29.46 170.5,30.4 L 170.5,44.36 170.51,44.36 C 170.51,44.93 170.05,45.38 169.49,45.38 L 169.49,45.38 Z M 164.4,30.95 L 164.51,30.95 C 163.42,30.97 162.33,31.08 161.26,31.29 159.21,31.52 158.86,34.38 158.86,34.41 L 166.28,34.41 C 166.29,34.39 167.51,32.06 166.28,31.3 L 166.26,31.29 C 165.68,31.02 165.04,30.9 164.41,30.95 L 164.4,30.95 Z M 139.26,30.95 L 139.25,30.95 C 138.61,30.91 137.97,31.03 137.4,31.3 136.14,32.07 137.37,34.39 137.39,34.41 L 144.8,34.41 C 144.8,34.38 144.48,31.52 142.44,31.3 L 142.37,31.29 C 141.31,31.08 140.22,30.96 139.13,30.95 L 139.26,30.95 Z M 151.63,18.32 L 151.23,18.32 C 147.69,18.38 144.17,18.72 140.69,19.34 L 137.62,27.54 165.64,27.54 161.75,19.18 161.74,19.18 161.66,19.17 C 158.44,18.66 155.2,18.38 151.94,18.32 L 151.63,18.32 Z M 151.63,18.32" />
                    <path id="group12831Canvas-path_100053" stroke="none" fill="rgb(200, 209, 236)" d="M 141.83,41.84 C 141.83,41.84 142.06,38.22 144.2,38.17 146.35,38.12 159.14,38.17 159.14,38.17 159.14,38.17 161.29,38.47 161.47,41.84 158.6,41.86 141.83,41.84 141.83,41.84 Z M 141.83,41.84" />
                </g>
            </g>
        </g>
    </g>
</svg>
