<?xml version="1.0" encoding="UTF-8"?>
<!DOCTYPE svg PUBLIC "-//W3C//DTD SVG 1.1//EN" "http://www.w3.org/Graphics/SVG/1.1/DTD/svg11.dtd">
<svg version="1.1" xmlns="http://www.w3.org/2000/svg" xmlns:xlink="http://www.w3.org/1999/xlink" width="152" height="86"  xml:space="preserve" id="illustrationCanvas">
    <!-- Generated by PaintCode - http://www.paintcodeapp.com -->
    <g id="illustrationCanvas-group">
        <rect id="illustrationCanvas-rectangle" stroke="none" fill="rgb(241, 245, 255)" x="0" y="56" width="89" height="20" rx="10" />
        <rect id="illustrationCanvas-rectangle2" stroke="none" fill="rgb(241, 245, 255)" x="91" y="36" width="59" height="20" rx="10" />
        <rect id="illustrationCanvas-rectangle3" stroke="none" fill="rgb(241, 245, 255)" x="93" y="66" width="59" height="20" rx="10" />
        <path id="illustrationCanvas-bezier" stroke="none" fill="rgb(255, 255, 255)" d="M 60,66 L 60,57 68,57 68,6 102,6 102,57 106,57 106,66 60,66 Z M 60,66" />
        <g id="illustrationCanvas-group2">
            <path id="illustrationCanvas-bezier2" stroke="none" fill="rgb(200, 209, 236)" d="M 104.04,67.36 L 61.25,67.36 61.23,67.36 C 59.34,67.36 57.8,65.82 57.8,63.93 L 57.8,58.83 57.8,58.83 C 57.8,58.82 57.8,58.81 57.8,58.8 L 57.8,58.76 57.8,58.75 C 57.87,56.9 59.39,55.43 61.24,55.43 L 62.31,55.43 62.31,55.43 C 62.3,55.27 62.3,55.11 62.31,54.95 L 62.31,32.42 62.39,32.4 C 56.94,33.96 53.8,39.64 55.36,45.08 56.91,51 57.28,59.28 53.3,63.39 L 53.33,63.36 C 51.83,64.87 49.79,65.71 47.67,65.71 47.56,65.71 47.48,65.71 47.4,65.71 L 47.5,65.71 C 46.48,65.71 45.46,65.59 44.47,65.36 L 44.38,65.34 C 41.16,64.83 38.4,62.75 37.02,59.79 33.35,51.41 41.59,37.08 41.95,36.47 L 41.85,36.62 C 43.47,34.12 44.74,31.41 45.61,28.55 46.84,24.53 47.58,18.83 44.13,14.47 L 41.99,17.14 41.98,17.14 C 41.41,17.85 40.57,18.31 39.66,18.41 L 39.38,18.4 39.38,18.4 C 38.61,18.4 37.87,18.15 37.26,17.67 L 29.85,11.83 29.81,11.8 29.77,11.77 29.75,11.75 C 28.3,10.58 28.07,8.44 29.25,6.99 29.26,6.98 29.27,6.96 29.29,6.94 L 31.45,4.36 31.4,4.33 C 29.85,3.5 28.11,3.07 26.35,3.07 26.15,3.07 25.93,3.08 25.73,3.09 L 25.74,3.09 C 25.67,3.1 25.61,3.1 25.54,3.1 L 25.53,3.1 C 24.77,3.1 24.12,2.54 24.01,1.78 L 24.01,1.77 C 23.91,0.94 24.5,0.18 25.34,0.08 L 25.4,0.07 C 25.76,0.02 26.14,-0 26.51,-0 29.84,-0 33.84,1.71 38.4,5.07 L 38.7,5.29 C 40.95,6.99 43.07,8.86 45.03,10.89 L 44.8,10.66 44.84,10.69 C 47.3,12.83 48.95,15.75 49.52,18.96 L 49.52,18.96 C 49.97,21.82 49.82,24.74 49.07,27.54 L 48.98,27.86 C 48.01,31.5 46.46,34.97 44.41,38.14 44.56,37.89 44.55,37.93 44.52,37.97 43.24,40.27 37.01,52.08 39.86,58.59 L 39.87,58.61 C 40.85,60.71 42.82,62.17 45.11,62.49 L 45.04,62.48 C 47.15,63.25 49.51,62.81 51.2,61.34 54.15,58.37 53.97,51.25 52.55,45.89 L 52.54,45.83 C 50.62,38.69 54.86,31.36 62,29.44 62.15,29.4 62.3,29.36 62.45,29.33 L 62.35,4.06 62.35,4.09 C 62.35,2.2 63.89,0.66 65.78,0.66 L 99.44,0.66 99.45,0.66 C 101.35,0.66 102.88,2.2 102.88,4.09 L 102.88,54.94 102.88,54.95 C 102.89,55.11 102.89,55.27 102.88,55.42 L 104.04,55.43 104.06,55.43 C 105.95,55.43 107.49,56.96 107.49,58.86 L 107.49,63.95 107.49,63.93 C 107.49,65.82 105.95,67.36 104.06,67.36 L 104.04,67.36 Z M 61.33,58.35 L 61.32,58.35 C 61.05,58.35 60.83,58.57 60.83,58.84 L 60.84,63.95 60.83,63.95 C 60.83,64.22 61.05,64.44 61.32,64.44 L 104.12,64.44 104.12,64.44 C 104.39,64.44 104.61,64.22 104.61,63.95 L 104.61,58.83 104.61,58.84 C 104.61,58.81 104.61,58.78 104.61,58.75 L 104.61,58.75 C 104.57,58.52 104.37,58.34 104.13,58.34 L 104.13,58.34 C 104.1,58.34 104.07,58.34 104.04,58.35 L 61.33,58.35 Z M 74.77,40.69 L 74.77,40.69 C 73.96,40.69 73.31,41.34 73.31,42.15 73.31,42.95 73.96,43.61 74.77,43.61 L 90.51,43.61 90.51,43.61 C 91.31,43.61 91.97,42.95 91.97,42.15 91.97,41.34 91.31,40.69 90.51,40.69 L 74.77,40.69 Z M 72.42,8.21 L 72.41,8.21 C 70.51,8.21 68.98,9.74 68.98,11.63 L 68.98,31.78 68.98,31.76 C 68.98,33.65 70.51,35.18 72.41,35.18 L 92.81,35.18 92.82,35.18 C 94.72,35.18 96.25,33.65 96.25,31.76 L 96.25,11.61 96.25,11.64 C 96.25,9.74 94.72,8.21 92.82,8.21 L 72.42,8.21 Z M 34.18,6.02 L 34.18,6.02 C 34.16,6.02 34.14,6.02 34.12,6.02 L 34.11,6.02 C 33.98,6.03 33.86,6.1 33.78,6.2 L 31.6,8.89 31.6,8.89 C 31.41,9.08 31.41,9.38 31.6,9.57 L 39,15.4 39,15.4 C 39.08,15.46 39.19,15.5 39.29,15.5 L 39.29,15.5 C 39.31,15.5 39.33,15.5 39.35,15.5 L 39.35,15.5 C 39.48,15.49 39.6,15.43 39.69,15.33 L 41.87,12.66 41.87,12.66 C 41.98,12.57 42.05,12.43 42.05,12.29 L 42.05,12.29 C 42.04,12.16 41.97,12.04 41.87,11.96 L 34.47,6.12 34.47,6.12 C 34.39,6.06 34.28,6.02 34.18,6.02 Z M 34.18,6.02" />
            <path id="illustrationCanvas-bezier3" stroke="none" fill="rgb(200, 209, 236)" d="M 75.75,17.31 L 75.75,17.31 C 77.44,15.62 80.17,15.62 81.86,17.31 L 82.68,18.16 83.53,17.31 83.53,17.31 C 85.25,15.65 87.98,15.7 89.64,17.41 91.26,19.09 91.26,21.74 89.64,23.42 L 88.79,24.26 82.68,30.36 76.59,24.26 75.75,23.44 75.76,23.45 C 74.08,21.77 74.06,19.06 75.71,17.35 L 75.75,17.31 Z M 75.75,17.31" />
        </g>
        <g id="illustrationCanvas-group3">
            <circle id="illustrationCanvas-oval" stroke="none" fill="rgb(255, 255, 255)" cx="118" cy="18" r="5" />
            <circle id="illustrationCanvas-oval2" stroke="rgb(200, 209, 236)" stroke-width="2" stroke-miterlimit="10" fill="none" cx="118" cy="18" r="4" />
        </g>
        <circle id="illustrationCanvas-oval3" stroke="none" fill="rgb(200, 209, 236)" cx="130" cy="11" r="3" />
        <g id="illustrationCanvas-group4">
            <circle id="illustrationCanvas-oval4" stroke="none" fill="rgb(255, 255, 255)" cx="28" cy="63" r="4" />
            <circle id="illustrationCanvas-oval5" stroke="rgb(200, 209, 236)" stroke-width="2" stroke-miterlimit="10" fill="none" cx="28" cy="63" r="3" />
        </g>
        <circle id="illustrationCanvas-oval6" stroke="none" fill="rgb(200, 209, 236)" cx="22" cy="52" r="2" />
        <circle id="illustrationCanvas-oval7" stroke="none" fill="rgb(200, 209, 236)" cx="116" cy="6" r="2" />
    </g>
</svg>
