<svg xmlns="http://www.w3.org/2000/svg" width="32.693" height="21.124" viewBox="0 0 32.693 21.124"><defs><style>.a{fill:#fff;}</style></defs><g transform="translate(0)"><path class="a" d="M29.245,21.124H26.4a.737.737,0,0,1-.736-.736V18.609H24.125c-.135-3.068-2.257-3.357-2.279-3.36-.037,0-3.974-.01-7.168-.01-1.888,0-3.169,0-3.808.01-2.03.02-2.3,3.018-2.326,3.36H7.026v1.778a.737.737,0,0,1-.736.736H3.448a.737.737,0,0,1-.736-.736V10.267A1.522,1.522,0,0,1,3.8,8.8a.989.989,0,0,1-.007-.112H.81a.662.662,0,0,1-.583-.4,2.942,2.942,0,0,1,0-2.265.665.665,0,0,1,.584-.4H3.8a.666.666,0,0,1,.583.4,4.273,4.273,0,0,1,.206.824C5.526,5.037,6.551,3.056,7.044,2.1l0-.009L7.356,1.5A1.187,1.187,0,0,1,8.262.734a44.917,44.917,0,0,1,16.168,0,1.19,1.19,0,0,1,.906.769c.007.014,1.441,2.79,2.769,5.346a4.085,4.085,0,0,1,.206-.825.664.664,0,0,1,.583-.4h2.987a.664.664,0,0,1,.583.4,2.946,2.946,0,0,1,0,2.265.666.666,0,0,1-.583.4H28.9c0,.037,0,.07-.007.112a1.523,1.523,0,0,1,1.086,1.465V20.388A.737.737,0,0,1,29.245,21.124ZM25.565,10.682a13.5,13.5,0,0,0-2.3.25c-1.461.159-1.707,2.23-1.709,2.251H26.92c.09-.174.864-1.718,0-2.251A2.725,2.725,0,0,0,25.565,10.682Zm-18.194,0a2.718,2.718,0,0,0-1.354.25c-.9.557-.01,2.234,0,2.251h5.365c0-.02-.256-2.092-1.71-2.251A13.507,13.507,0,0,0,7.371,10.682Zm8.952-9.139a48.543,48.543,0,0,0-7.259.63L6.189,8.214H26.457L23.642,2.173h-.007A49.881,49.881,0,0,0,16.323,1.543Z" transform="translate(0 0)"/><path class="a" d="M1531.957,7869.565s.167-2.621,1.716-2.656,10.8,0,10.8,0,1.56.214,1.686,2.656C1544.089,7869.584,1531.957,7869.565,1531.957,7869.565Z" transform="translate(-1522.722 -7851.003)"/></g></svg>