<svg id="icon-notification" xmlns="http://www.w3.org/2000/svg" width="15.756" height="18.907" viewBox="0 0 15.756 18.907">
  <g id="Group_9372" data-name="Group 9372">
    <g id="Group_9371" data-name="Group 9371">
      <path id="Path_10019" data-name="Path 10019" d="M58.375,15.948l-1.353-2.255a6.7,6.7,0,0,1-.955-3.446V8.272A5.522,5.522,0,0,0,52.128,2.99V1.576a1.576,1.576,0,0,0-3.151,0V2.99a5.522,5.522,0,0,0-3.939,5.282v1.975a6.7,6.7,0,0,1-.954,3.445l-1.353,2.255a.395.395,0,0,0,.337.6H58.037a.394.394,0,0,0,.338-.6Z" transform="translate(-42.675 0)" fill="#353841"/>
    </g>
  </g>
  <g id="Group_9374" data-name="Group 9374" transform="translate(5.397 17.332)">
    <g id="Group_9373" data-name="Group 9373">
      <path id="Path_10020" data-name="Path 10020" d="M188.815,469.333a2.741,2.741,0,0,0,4.962,0Z" transform="translate(-188.815 -469.333)" fill="#353841"/>
    </g>
  </g>
</svg>
