<svg xmlns="http://www.w3.org/2000/svg" width="16.031" height="15.237" viewBox="0 0 16.031 15.237"><defs><style>.a{fill:#353841;}</style></defs><g transform="translate(0 -12.676)"><g transform="translate(0 12.675)"><g transform="translate(0 0)"><path class="a" d="M15.762,19.445,8.569,12.891a.818.818,0,0,0-1.107,0L.269,19.445a.822.822,0,0,0,.554,1.43H1.972v6.567a.471.471,0,0,0,.471.471H6.386a.471.471,0,0,0,.471-.471V23.454H9.174v3.987a.471.471,0,0,0,.471.471h3.942a.471.471,0,0,0,.471-.471V20.875h1.149a.822.822,0,0,0,.554-1.43Z" transform="translate(0 -12.675)"/></g></g><g transform="translate(10.77 13.617)"><path class="a" d="M347.139,42.73h-3.166l3.638,3.308V43.2A.471.471,0,0,0,347.139,42.73Z" transform="translate(-343.973 -42.73)"/></g></g></svg>