<svg xmlns="http://www.w3.org/2000/svg" width="27" height="19.678" viewBox="0 0 27 19.678"><defs><style>.a{fill:#c8d1ec;}</style></defs><path class="a" d="M-2664.841-3779.322h-.019a.862.862,0,0,1-.845-.878v-1.338a.865.865,0,0,1,.845-.857h.261a.882.882,0,0,1,0-.125v-5.8a2.666,2.666,0,0,0-1.7,3.284c.376,1.5.466,3.636-.511,4.7a1.913,1.913,0,0,1-1.389.6h-.057a3.185,3.185,0,0,1-.746-.1,2.425,2.425,0,0,1-1.8-1.423c-.877-2.1.99-5.619,1.206-6.014a8.437,8.437,0,0,0,.9-2.043,4.115,4.115,0,0,0-.363-3.626l-.526.687a.838.838,0,0,1-.566.326h-.073a.821.821,0,0,1-.525-.191l-1.815-1.5-.009-.007-.01-.008a.9.9,0,0,1-.127-1.233l.541-.677a2.546,2.546,0,0,0-1.249-.331c-.05,0-.1,0-.156,0a.384.384,0,0,1-.049,0,.384.384,0,0,1-.375-.34.391.391,0,0,1,.327-.439,2.194,2.194,0,0,1,.286-.019,5.109,5.109,0,0,1,2.917,1.307,13.583,13.583,0,0,1,1.567,1.434l0,0a3.723,3.723,0,0,1,1.157,2.138,5.577,5.577,0,0,1-.121,2.251,9.452,9.452,0,0,1-1.094,2.626l0,.008-.006.012c-.314.593-1.843,3.636-1.143,5.313a1.688,1.688,0,0,0,1.269,1,1.456,1.456,0,0,0,.521.1,1.469,1.469,0,0,0,1-.392c.721-.763.676-2.6.328-3.979a3.548,3.548,0,0,1,.474-2.876,3.274,3.274,0,0,1,1.931-1.384v-6.515a.863.863,0,0,1,.846-.878h4.685a6.957,6.957,0,0,0-.766,1.945h-2.293a.863.863,0,0,0-.845.877v5.2a.863.863,0,0,0,.845.877h4.649a7.036,7.036,0,0,0,2.825,1.417v3.675a.887.887,0,0,1,0,.125h.284a.863.863,0,0,1,.847.877v1.318a.863.863,0,0,1-.847.878Zm-.12-2.2v1.318a.123.123,0,0,0,.12.126h10.5a.123.123,0,0,0,.12-.126v-1.318a.165.165,0,0,0,0-.022.121.121,0,0,0-.119-.1l-.02,0h-10.481A.123.123,0,0,0-2664.961-3781.518Zm3.057-4.3a.369.369,0,0,0,.361.376h3.862a.37.37,0,0,0,.362-.376.37.37,0,0,0-.362-.375h-3.862A.369.369,0,0,0-2661.9-3785.817Zm-9.613-9.306a.111.111,0,0,0-.082.045l-.536.691a.128.128,0,0,0,0,.176l1.815,1.5a.107.107,0,0,0,.072.027h.014a.111.111,0,0,0,.082-.045l.537-.686a.126.126,0,0,0,.044-.1.122.122,0,0,0-.044-.084l-1.815-1.5a.11.11,0,0,0-.073-.027A.04.04,0,0,0-2671.518-3795.124ZM-2659-3793a6.007,6.007,0,0,1,6-6,6.007,6.007,0,0,1,6,6,6.007,6.007,0,0,1-6,6A6.006,6.006,0,0,1-2659-3793Zm3.676-.033a1.487,1.487,0,0,0-.486.307,1.857,1.857,0,0,0-.339.441,2.648,2.648,0,0,0-.226.511,4.185,4.185,0,0,0-.133.547,4.686,4.686,0,0,0-.071.545c-.011.165-.018.336-.018.509a1.425,1.425,0,0,0,.426,1.083,1.526,1.526,0,0,0,1.1.4h4.151a1.529,1.529,0,0,0,1.1-.4,1.431,1.431,0,0,0,.424-1.083c0-.191-.006-.356-.017-.509a4.726,4.726,0,0,0-.07-.545,3.966,3.966,0,0,0-.134-.547,2.68,2.68,0,0,0-.226-.511,1.9,1.9,0,0,0-.339-.441,1.464,1.464,0,0,0-.487-.307,1.69,1.69,0,0,0-.623-.113.621.621,0,0,0-.337.143l-.351.227a2,2,0,0,1-.456.2,1.774,1.774,0,0,1-.557.091,1.768,1.768,0,0,1-.556-.091,2,2,0,0,1-.456-.2l-.224-.145-.127-.082a.63.63,0,0,0-.338-.143A1.707,1.707,0,0,0-2655.325-3793.032Zm.8-3.67a2.019,2.019,0,0,0-.608,1.469,2.019,2.019,0,0,0,.608,1.468,2.015,2.015,0,0,0,1.469.608,2.006,2.006,0,0,0,1.468-.608,2.015,2.015,0,0,0,.608-1.468,2.015,2.015,0,0,0-.608-1.469,2.009,2.009,0,0,0-1.468-.608A2.015,2.015,0,0,0-2654.524-3796.7Z" transform="translate(2674.001 3799)"/></svg>