<svg xmlns="http://www.w3.org/2000/svg" width="17.519" height="21.981" viewBox="0 0 17.519 21.981"><defs><style>.a{fill:#2fffd1;stroke:#2fffd1;stroke-width:0.5px;}</style></defs><g transform="translate(-0.25 0.25)"><path class="a" d="M12.076.166A.52.52,0,0,0,11.7,0H3.323A2.835,2.835,0,0,0,.5,2.817V18.663a2.835,2.835,0,0,0,2.823,2.818H14.7a2.835,2.835,0,0,0,2.823-2.818V6.081a.558.558,0,0,0-.15-.363Zm.15,1.666,3.544,3.72h-2.3a1.236,1.236,0,0,1-1.24-1.235ZM14.7,20.443H3.323a1.8,1.8,0,0,1-1.785-1.78V2.817a1.8,1.8,0,0,1,1.785-1.78h7.866V4.317A2.27,2.27,0,0,0,13.466,6.59h3.015V18.663A1.794,1.794,0,0,1,14.7,20.443Zm0,0"/><path class="a" d="M98.231,401.934h-8.54a.519.519,0,1,0,0,1.038h8.546a.519.519,0,1,0-.005-1.038Zm0,0" transform="translate(-84.952 -385.071)"/><path class="a" d="M121.8,178.153a.515.515,0,0,0,.757,0l3.041-3.264a.518.518,0,1,0-.757-.706l-2.143,2.3v-5.666a.519.519,0,0,0-1.038,0v5.666l-2.138-2.3a.518.518,0,0,0-.757.706Zm0,0" transform="translate(-113.172 -163.152)"/></g></svg>