<svg xmlns="http://www.w3.org/2000/svg" width="39.275" height="23.615" viewBox="0 0 39.275 23.615"><defs><style>.a,.d,.e{fill:#71778a;}.b,.c,.g{fill:none;}.b{stroke:#fff;}.d,.e{stroke:#fcfcfc;}.d{stroke-linecap:round;stroke-linejoin:round;}.f,.h{stroke:none;}.h{fill:#fcfcfc;}</style></defs><g transform="translate(-291.345 -582.035)"><g transform="translate(291 582)"><rect class="a" width="36" height="21" rx="2" transform="translate(0.345 0.035)"/><g class="b" transform="translate(14.345 7.035)"><circle class="f" cx="4" cy="4" r="4"/><circle class="g" cx="4" cy="4" r="3.5"/></g><g class="c" transform="translate(2.345 2.035)"><path class="f" d="M27.567,17H4.434A8.343,8.343,0,0,0,0,11.759V5.244A8.344,8.344,0,0,0,4.434,0H27.567A8.343,8.343,0,0,0,32,5.244v6.515A8.349,8.349,0,0,0,27.567,17Z"/><path class="h" d="M 26.85039520263672 16 C 27.64554786682129 13.91729927062988 29.11556243896484 12.19734573364258 31 11.14732837677002 L 31 5.855759620666504 C 29.11413764953613 4.804873466491699 27.64395332336426 3.083813905715942 26.85010528564453 1 L 5.150750637054443 1 C 4.35654878616333 3.084052801132202 2.886078596115112 4.805239677429199 1 5.855861663818359 L 1 11.14722537994385 C 2.885852336883545 12.19756507873535 4.356245040893555 13.91772842407227 5.150537490844727 16 L 26.85039520263672 16 M 27.56723022460938 17 L 4.433710098266602 17 C 3.740530014038086 14.6560697555542 2.125 12.745849609375 0 11.75909042358398 L 0 5.244019985198975 C 2.125 4.257259845733643 3.740530014038086 2.346009969711304 4.433710098266602 0 L 27.56723022460938 0 C 28.26041030883789 2.347049951553345 29.87594032287598 4.257259845733643 32 5.244019985198975 L 32 11.75909042358398 C 29.87784004211426 12.74481010437012 28.26231002807617 14.65398979187012 27.56723022460938 16.99896049499512 L 27.56723022460938 17 Z"/></g></g><g transform="translate(316.845 594)"><g transform="translate(-0.422 1.846)"><path class="d" d="M0,3.187H0V-1.192L7.119.01a11.708,11.708,0,0,1,3.128.529l2.919.493V3.187h0c0,1.759-2.948,3.185-6.583,3.185S0,4.946,0,3.187Z" transform="translate(0.531 2.933)"/><g class="e" transform="translate(-0.078 0.189)"><ellipse class="f" cx="7" cy="3.5" rx="7" ry="3.5"/><ellipse class="g" cx="7" cy="3.5" rx="6.5" ry="3"/></g></g><g transform="translate(0)"><path class="d" d="M0,3.187H0V1.032H1.677A10.1,10.1,0,0,1,6.372,0a10.1,10.1,0,0,1,4.695,1.032h1.678V3.187h0c0,1.759-2.853,3.185-6.372,3.185S0,4.946,0,3.187Z" transform="translate(0.531 2.655)"/><g class="e" transform="translate(-0.5 0.035)"><ellipse class="f" cx="7" cy="3.5" rx="7" ry="3.5"/><ellipse class="g" cx="7" cy="3.5" rx="6.5" ry="3"/></g></g></g></g></svg>