<svg xmlns="http://www.w3.org/2000/svg" width="25.707" height="22.425" viewBox="0 0 25.707 22.425"><defs><style>.a{fill:#353841;}.b{fill:#e6eaf6;}</style></defs><g transform="translate(1.254 1.094)"><path class="a" d="M3.339,4.778a6.1,6.1,0,0,1,8.644,0l1.16,1.2,1.2-1.2a6.111,6.111,0,1,1,8.625,8.66L21.786,14.6l-8.644,8.624L4.535,14.6l-1.2-1.16A6.156,6.156,0,0,1,3.339,4.778Z" transform="translate(-1.559 -2.984)"/></g><g transform="translate(0 0)"><path class="b" d="M3.531,4.972a6.764,6.764,0,0,1,9.578,0L14.395,6.3,15.72,4.972a6.772,6.772,0,0,1,9.558,9.6l-1.305,1.285-9.578,9.556L4.857,15.853,3.531,14.568A6.821,6.821,0,0,1,3.531,4.972Z" transform="translate(-1.559 -2.984)"/></g></svg>