<svg xmlns="http://www.w3.org/2000/svg" width="20.455" height="13.106" viewBox="0 0 20.455 13.106"><defs><style>.a{fill:#353841;}</style></defs><g transform="translate(-201 -62.161)"><path class="a" d="M201,94.105l10.226,7.831,10.227-7.83v.233q0,4.893,0,9.786a1.676,1.676,0,0,1-.6,1.275.817.817,0,0,1-.583.215q-9.045,0-18.09,0c-.513,0-.762-.352-.992-.725a3.215,3.215,0,0,1-.19-.434Z" transform="translate(0 -30.346)"/><path class="a" d="M221.42,69.829l-2.07-1.575q-3.407-2.593-6.813-5.187c-.243-.185-.48-.38-.71-.581-.149-.131-.117-.245.08-.28a3.1,3.1,0,0,1,.536-.042q8.975,0,17.95,0a2.772,2.772,0,0,1,.5.042.284.284,0,0,1,.2.132c.017.048-.056.153-.115.2-1.466,1.137-2.931,2.277-4.406,3.4-1.682,1.284-3.373,2.555-5.061,3.831C221.484,69.785,221.462,69.8,221.42,69.829Z" transform="translate(-10.196)"/></g></svg>