<svg xmlns="http://www.w3.org/2000/svg" width="30.821" height="27.977" viewBox="0 0 30.821 27.977"><defs><style>.a{fill:#fff;stroke:rgba(0,0,0,0);stroke-miterlimit:10;}</style></defs><path class="a" d="M259.61,970.792h0c-1.7-1.753-10.209-10.8-10.209-16.717A10.156,10.156,0,0,1,259.548,944h.13a10.156,10.156,0,0,1,10.141,10.074c0,5.923-8.5,14.965-10.209,16.718Zm.09-11.922a.763.763,0,1,0,.763.763A.764.764,0,0,0,259.7,958.87Zm-.054-7.576a1.594,1.594,0,0,1,1.592,1.592,1.578,1.578,0,0,1-.518,1.175l-1.87,1.711v1.943h1.592v-1.242l1.353-1.237a3.184,3.184,0,1,0-5.332-2.35h1.592A1.594,1.594,0,0,1,259.646,951.294Zm-6.249,17.52h0a56.487,56.487,0,0,1-4.958-5.884c-2.481-3.436-3.739-6.252-3.739-8.37a8.653,8.653,0,0,1,7.232-8.464,10.987,10.987,0,0,0-3.471,7.976c0,4.08,3.568,9.315,6.561,12.988-.541.609-1.1,1.215-1.624,1.754Zm-6.322-2.121h0A46.455,46.455,0,0,1,243,961.835c-1.99-2.773-3-5.046-3-6.756a7.021,7.021,0,0,1,6.293-6.942,9.55,9.55,0,0,0-2.532,6.419c0,3.281,2.7,7.43,4.963,10.333-.745.857-1.352,1.5-1.647,1.8Z" transform="translate(-239.499 -943.5)"/></svg>