<svg xmlns="http://www.w3.org/2000/svg" width="56" height="56" viewBox="0 0 56 56"><defs><style>.a{fill:#f1f5ff;}.b{fill:#c8d1ec;}.c{fill:#fff;}</style></defs><g transform="translate(-201 -633)"><rect class="a" width="56" height="56" rx="10" transform="translate(201 633)"/><g transform="translate(214 641)"><g transform="translate(0 0)"><path class="b" d="M-109.3-54.847A15.253,15.253,0,0,0-124.648-70,15.253,15.253,0,0,0-140-54.847c0,9.849,15.352,25,15.352,25S-109.3-45-109.3-54.847" transform="translate(140 70)"/></g><g transform="translate(3.638 8.02)"><path class="c" d="M216.6,243.983c.126-.156.235-.3.35-.436.726-.859,1.452-1.715,2.172-2.577a.505.505,0,0,1,.492-.2,29.77,29.77,0,0,1,6.775,1.559,5.82,5.82,0,0,1,.565.256,1.415,1.415,0,0,1,.171.121,6.152,6.152,0,0,1-3.264,2.772,4,4,0,0,1-.176-.428.951.951,0,0,0-.608-.7,15.387,15.387,0,0,0-1.621-.415,5.508,5.508,0,0,0-.9-.055c-.381-.012-.421.02-.5.4q-.263,1.281-.519,2.563-.926,4.568-1.852,9.136-.5,2.448-1.006,4.895a.524.524,0,0,1-.116.242c-.1-.461-.2-.922-.291-1.383q-1.595-7.774-3.184-15.55c-.046-.225-.125-.331-.368-.3-.692.087-1.392.126-2.075.252a1.435,1.435,0,0,0-1.214,1.1,1.675,1.675,0,0,1-.1.23,6.284,6.284,0,0,1-3.29-2.755c.186-.069.327-.125.471-.174,1-.344,1.995-.741,3.018-1.015,1.048-.281,2.127-.447,3.195-.649.322-.061.653-.069.978-.115a.366.366,0,0,1,.373.156c.737.9,1.484,1.8,2.227,2.7C216.371,243.716,216.454,243.814,216.6,243.983Z" transform="translate(-204.891 -238.059)"/><path class="c" d="M184.912,192.247l-.842-1.863a35.93,35.93,0,0,1,23.429,0c-.156.319-.308.626-.461.934s-.3.6-.471.934c-.455-.134-.914-.252-1.361-.4a27.738,27.738,0,0,0-6.42-1.364,34.166,34.166,0,0,0-6.085.008,30.668,30.668,0,0,0-7.041,1.551C185.424,192.121,185.179,192.174,184.912,192.247Z" transform="translate(-184.07 -188.44)"/></g></g></g></svg>