<?xml version="1.0" encoding="utf-8"?>
<svg viewBox="223.661 123.799 11.79 23.964" width="11.79" height="23.964" xmlns="http://www.w3.org/2000/svg">
  <path class="b" d="M10.275,23.964H1.527A1.525,1.525,0,0,1,0,22.442V3.043a1.525,1.525,0,0,1,1.526-1.52h.756v-.3C2.283.55,2.626,0,3.046,0h5.7c.421,0,.763.551.763,1.228v.3h.762a1.521,1.521,0,0,1,1.519,1.52v19.4A1.522,1.522,0,0,1,10.275,23.964ZM4.594,14.157h0L4,18.546a.4.4,0,0,0,.26.432A.4.4,0,0,0,4.4,19a.383.383,0,0,0,.091-.01.4.4,0,0,0,.248-.175L9.55,11.364a.4.4,0,0,0-.43-.612l-1.695.391.469-4.369a.4.4,0,0,0-.743-.258L2.483,13.936a.4.4,0,0,0,.432.608l1.677-.387Z" transform="matrix(1, 0, 0, 1, 223.661171, 123.798767)" style="fill: rgb(255, 255, 255);"/>
</svg>