<svg xmlns="http://www.w3.org/2000/svg" width="14.669" height="21.258" viewBox="0 0 14.669 21.258">
  <g id="icon-privacy" transform="translate(0 1)">
    <path id="Subtraction_226" data-name="Subtraction 226" d="M7.334,12.224A7.342,7.342,0,0,1,0,4.89V.734A.734.734,0,0,1,.734,0h13.2a.734.734,0,0,1,.734.733V4.89A7.343,7.343,0,0,1,7.334,12.224Zm0-8.556a1.222,1.222,0,0,0-.675,2.241L6.035,7.871H8.7L7.987,5.923a1.222,1.222,0,0,0-.653-2.255Z" transform="translate(0 8.034)" fill="#353841"/>
    <path id="Path_10315" data-name="Path 10315" d="M6287.227,6637.337v-3.873s.47-5.086,5.548-5.036c4.777.037,5.068,5.036,5.068,5.036v4.222" transform="translate(-6285.414 -6628.427)" fill="none" stroke="#353841" stroke-linecap="round" stroke-linejoin="round" stroke-width="2"/>
  </g>
</svg>
