<svg xmlns="http://www.w3.org/2000/svg" width="42" height="42" viewBox="0 0 42 42"><defs><style>.a,.f{fill:#fff;}.b,.c,.e{fill:#c8d1ec;}.d,.e,.f{stroke:none;}</style></defs><g transform="translate(-386 -676)"><g class="a" transform="translate(386 676)"><path class="d" d="M 21 40.5 C 18.36685943603516 40.5 15.81326961517334 39.9846305847168 13.41018009185791 38.96820831298828 C 11.08831024169922 37.98614120483398 9.002750396728516 36.57991027832031 7.211420059204102 34.78858184814453 C 5.420090198516846 32.99724960327148 4.01386022567749 30.91168975830078 3.031790018081665 28.58982086181641 C 2.015369892120361 26.18672943115234 1.5 23.63314056396484 1.5 21 C 1.5 18.36685943603516 2.015369892120361 15.81326961517334 3.031790018081665 13.41018009185791 C 4.01386022567749 11.08831024169922 5.420090198516846 9.002750396728516 7.211420059204102 7.211420059204102 C 9.002750396728516 5.420090198516846 11.08831024169922 4.01386022567749 13.41018009185791 3.031790018081665 C 15.81326961517334 2.015369892120361 18.36685943603516 1.5 21 1.5 C 23.63314056396484 1.5 26.18672943115234 2.015369892120361 28.58982086181641 3.031790018081665 C 30.91168975830078 4.01386022567749 32.99724960327148 5.420090198516846 34.78858184814453 7.211420059204102 C 36.57991027832031 9.002750396728516 37.98614120483398 11.08831024169922 38.96820831298828 13.41018009185791 C 39.9846305847168 15.81326961517334 40.5 18.36685943603516 40.5 21 C 40.5 23.63314056396484 39.9846305847168 26.18672943115234 38.96820831298828 28.58982086181641 C 37.98614120483398 30.91168975830078 36.57991027832031 32.99724960327148 34.78858184814453 34.78858184814453 C 32.99724960327148 36.57991027832031 30.91168975830078 37.98614120483398 28.58982086181641 38.96820831298828 C 26.18672943115234 39.9846305847168 23.63314056396484 40.5 21 40.5 Z"/><path class="e" d="M 21 3 C 16.19202995300293 3 11.67182922363281 4.872329711914063 8.272079467773438 8.272079467773438 C 4.872329711914063 11.67182922363281 3 16.19202995300293 3 21 C 3 25.80797004699707 4.872329711914063 30.32817077636719 8.272079467773438 33.72792053222656 C 11.67182922363281 37.12767028808594 16.19202995300293 39 21 39 C 25.80797004699707 39 30.32817077636719 37.12767028808594 33.72792053222656 33.72792053222656 C 37.12767028808594 30.32817077636719 39 25.80797004699707 39 21 C 39 16.19202995300293 37.12767028808594 11.67182922363281 33.72792053222656 8.272079467773438 C 30.32817077636719 4.872329711914063 25.80797004699707 3 21 3 M 21 0 C 32.59798049926758 0 42 9.402019500732422 42 21 C 42 32.59798049926758 32.59798049926758 42 21 42 C 9.402019500732422 42 0 32.59798049926758 0 21 C 0 9.402019500732422 9.402019500732422 0 21 0 Z"/></g><path class="b" d="M16,0A16,16,0,1,1,0,16,16,16,0,0,1,16,0Z" transform="translate(391 681)"/><g class="c" transform="translate(402 700.5)"><path class="d" d="M 5 9.25 C 2.656539916992188 9.25 0.75 7.343460083007813 0.75 5 C 0.75 2.656539916992188 2.656539916992188 0.75 5 0.75 C 7.343460083007813 0.75 9.25 2.656539916992188 9.25 5 C 9.25 7.343460083007813 7.343460083007813 9.25 5 9.25 Z"/><path class="f" d="M 5 1.5 C 3.070089817047119 1.5 1.5 3.070089817047119 1.5 5 C 1.5 6.929909706115723 3.070089817047119 8.5 5 8.5 C 6.929909706115723 8.5 8.5 6.929909706115723 8.5 5 C 8.5 3.070089817047119 6.929909706115723 1.5 5 1.5 M 5 0 C 7.761420249938965 0 10 2.238580226898193 10 5 C 10 7.761420249938965 7.761420249938965 10 5 10 C 2.238580226898193 10 0 7.761420249938965 0 5 C 0 2.238580226898193 2.238580226898193 0 5 0 Z"/></g><g class="c" transform="translate(408 685.5)"><path class="d" d="M 5 9.25 C 2.656539916992188 9.25 0.75 7.343460083007813 0.75 5 C 0.75 2.656539916992188 2.656539916992188 0.75 5 0.75 C 7.343460083007813 0.75 9.25 2.656539916992188 9.25 5 C 9.25 7.343460083007813 7.343460083007813 9.25 5 9.25 Z"/><path class="f" d="M 5 1.5 C 3.070089817047119 1.5 1.5 3.070089817047119 1.5 5 C 1.5 6.929909706115723 3.070089817047119 8.5 5 8.5 C 6.929909706115723 8.5 8.5 6.929909706115723 8.5 5 C 8.5 3.070089817047119 6.929909706115723 1.5 5 1.5 M 5 0 C 7.761420249938965 0 10 2.238580226898193 10 5 C 10 7.761420249938965 7.761420249938965 10 5 10 C 2.238580226898193 10 0 7.761420249938965 0 5 C 0 2.238580226898193 2.238580226898193 0 5 0 Z"/></g><g class="c" transform="translate(413 696.5)"><path class="d" d="M 4 7.25 C 2.207940101623535 7.25 0.75 5.792059898376465 0.75 4 C 0.75 2.207940101623535 2.207940101623535 0.75 4 0.75 C 5.792059898376465 0.75 7.25 2.207940101623535 7.25 4 C 7.25 5.792059898376465 5.792059898376465 7.25 4 7.25 Z"/><path class="f" d="M 4 1.5 C 2.621500015258789 1.5 1.5 2.621500015258789 1.5 4 C 1.5 5.378499984741211 2.621500015258789 6.5 4 6.5 C 5.378499984741211 6.5 6.5 5.378499984741211 6.5 4 C 6.5 2.621500015258789 5.378499984741211 1.5 4 1.5 M 4 0 C 6.209139823913574 0 8 1.790860176086426 8 4 C 8 6.209139823913574 6.209139823913574 8 4 8 C 1.790860176086426 8 0 6.209139823913574 0 4 C 0 1.790860176086426 1.790860176086426 0 4 0 Z"/></g><g class="c" transform="translate(393 696.5)"><path class="d" d="M 4 7.25 C 2.207940101623535 7.25 0.75 5.792059898376465 0.75 4 C 0.75 2.207940101623535 2.207940101623535 0.75 4 0.75 C 5.792059898376465 0.75 7.25 2.207940101623535 7.25 4 C 7.25 5.792059898376465 5.792059898376465 7.25 4 7.25 Z"/><path class="f" d="M 4 1.5 C 2.621500015258789 1.5 1.5 2.621500015258789 1.5 4 C 1.5 5.378499984741211 2.621500015258789 6.5 4 6.5 C 5.378499984741211 6.5 6.5 5.378499984741211 6.5 4 C 6.5 2.621500015258789 5.378499984741211 1.5 4 1.5 M 4 0 C 6.209139823913574 0 8 1.790860176086426 8 4 C 8 6.209139823913574 6.209139823913574 8 4 8 C 1.790860176086426 8 0 6.209139823913574 0 4 C 0 1.790860176086426 1.790860176086426 0 4 0 Z"/></g><g class="c" transform="translate(396 685.5)"><path class="d" d="M 5 9.25 C 2.656539916992188 9.25 0.75 7.343460083007813 0.75 5 C 0.75 2.656539916992188 2.656539916992188 0.75 5 0.75 C 7.343460083007813 0.75 9.25 2.656539916992188 9.25 5 C 9.25 7.343460083007813 7.343460083007813 9.25 5 9.25 Z"/><path class="f" d="M 5 1.5 C 3.070089817047119 1.5 1.5 3.070089817047119 1.5 5 C 1.5 6.929909706115723 3.070089817047119 8.5 5 8.5 C 6.929909706115723 8.5 8.5 6.929909706115723 8.5 5 C 8.5 3.070089817047119 6.929909706115723 1.5 5 1.5 M 5 0 C 7.761420249938965 0 10 2.238580226898193 10 5 C 10 7.761420249938965 7.761420249938965 10 5 10 C 2.238580226898193 10 0 7.761420249938965 0 5 C 0 2.238580226898193 2.238580226898193 0 5 0 Z"/></g></g></svg>