<svg xmlns="http://www.w3.org/2000/svg" width="43.373" height="35.416" viewBox="0 0 43.373 35.416"><defs><style>.a{fill:#353841;}</style></defs><path class="a" d="M41.584,35.416H19.351a1.792,1.792,0,0,1-1.789-1.79v-2.69a.142.142,0,0,1,0-.021v-.021a1.8,1.8,0,0,1,1.787-1.749H19.9a1.818,1.818,0,0,1,0-.256V17.048a5.4,5.4,0,0,0-3.6,6.7c.792,3.07.984,7.421-1.083,9.584a4.134,4.134,0,0,1-2.941,1.219l-.122,0a6.922,6.922,0,0,1-1.578-.194,5.108,5.108,0,0,1-3.813-2.905C4.855,27.031,9.14,19.494,9.323,19.175a16.9,16.9,0,0,0,1.905-4.168c.637-2.111,1.021-5.109-.77-7.4l-1.114,1.4a1.794,1.794,0,0,1-1.2.665H7.986a1.772,1.772,0,0,1-1.1-.389L3.037,6.217,3.018,6.2,3,6.188A1.8,1.8,0,0,1,2.731,3.67L3.876,2.29a5.538,5.538,0,0,0-2.645-.675c-.115,0-.226,0-.331.01a.709.709,0,0,1-.1.007A.8.8,0,0,1,.7.039,4.686,4.686,0,0,1,1.3,0C3.036,0,5.115.9,7.481,2.665A28.084,28.084,0,0,1,10.8,5.593l.01.01a7.5,7.5,0,0,1,2.451,4.364A11,11,0,0,1,13,14.562a19.016,19.016,0,0,1-2.319,5.361s-.009.017-.021.038c-.664,1.21-3.9,7.421-2.421,10.844a3.555,3.555,0,0,0,2.688,2.046,3.178,3.178,0,0,0,3.21-.6c1.527-1.557,1.43-5.3.7-8.12a7.014,7.014,0,0,1,1-5.871,6.929,6.929,0,0,1,4.088-2.824V2.136A1.792,1.792,0,0,1,21.712.346H39.191a1.792,1.792,0,0,1,1.789,1.79V28.89a1.814,1.814,0,0,1,0,.256h.6a1.792,1.792,0,0,1,1.789,1.79v2.69A1.792,1.792,0,0,1,41.584,35.416ZM19.392,30.68a.256.256,0,0,0-.255.256v2.69a.256.256,0,0,0,.255.256H41.625a.256.256,0,0,0,.255-.256v-2.69a.331.331,0,0,0,0-.044.255.255,0,0,0-.252-.214l-.041,0ZM26.374,21.4a.767.767,0,0,0,0,1.534h8.178a.767.767,0,0,0,0-1.534ZM25.158,4.315A1.792,1.792,0,0,0,23.368,6.1V16.712A1.791,1.791,0,0,0,25.158,18.5h10.59a1.791,1.791,0,0,0,1.788-1.789V6.1a1.791,1.791,0,0,0-1.788-1.79ZM5.287,3.167a.176.176,0,0,0-.032,0,.25.25,0,0,0-.173.092L3.947,4.673a.254.254,0,0,0,0,.358L7.791,8.1a.243.243,0,0,0,.151.053.175.175,0,0,0,.032,0,.256.256,0,0,0,.174-.091l1.134-1.4a.25.25,0,0,0,.092-.195.246.246,0,0,0-.092-.173L5.439,3.22A.246.246,0,0,0,5.287,3.167Z"/></svg>