<svg xmlns="http://www.w3.org/2000/svg" width="16" height="16" viewBox="0 0 16 16"><defs><style>.a{fill:#c8d1ec;}</style></defs><path class="a" d="M14,19a8,8,0,1,1,8-8A8.009,8.009,0,0,1,14,19Zm-3.425-7.791a.5.5,0,0,0-.347.131.433.433,0,0,0-.144.337.452.452,0,0,0,.144.342.485.485,0,0,0,.347.138h.78A4.024,4.024,0,0,0,12.43,14.34a2.815,2.815,0,0,0,2.022.768,3.456,3.456,0,0,0,1.236-.234A4.156,4.156,0,0,0,16.84,14.2a.685.685,0,0,0,.276-.564.715.715,0,0,0-.144-.45.441.441,0,0,0-.36-.186.586.586,0,0,0-.222.042,1.464,1.464,0,0,0-.257.15,6.053,6.053,0,0,1-.882.509,1.816,1.816,0,0,1-.738.162,1.435,1.435,0,0,1-1.075-.414,2.449,2.449,0,0,1-.558-1.29h1.536a.481.481,0,0,0,.354-.138.461.461,0,0,0,.139-.342.441.441,0,0,0-.139-.337.491.491,0,0,0-.354-.131H12.784c-.009-.1-.013-.256-.013-.445s0-.344.013-.444h1.632a.492.492,0,0,0,.354-.132.445.445,0,0,0,.139-.336.464.464,0,0,0-.139-.342.481.481,0,0,0-.354-.138H12.88a2.435,2.435,0,0,1,.558-1.278,1.435,1.435,0,0,1,1.075-.414,2.013,2.013,0,0,1,.774.156,3.87,3.87,0,0,1,.846.516,1.465,1.465,0,0,0,.257.15.586.586,0,0,0,.222.042.441.441,0,0,0,.36-.186.715.715,0,0,0,.144-.45.682.682,0,0,0-.066-.318.831.831,0,0,0-.211-.247,3.919,3.919,0,0,0-1.152-.678,3.522,3.522,0,0,0-1.236-.234,2.816,2.816,0,0,0-2.016.768,4,4,0,0,0-1.08,2.173h-.78a.485.485,0,0,0-.347.138.455.455,0,0,0-.144.342.445.445,0,0,0,.144.33.485.485,0,0,0,.347.138h.672c-.008.091-.012.232-.012.444s0,.351.012.445Z" transform="translate(-6 -2.999)"/></svg>