<svg xmlns="http://www.w3.org/2000/svg" width="27.171" height="27.171" viewBox="0 0 27.171 27.171"><defs><style>.a{fill:#fff;}</style></defs><g transform="translate(-0.001)"><path class="a" d="M215.307,206.524a8.809,8.809,0,0,0-4.831-7.844,11.98,11.98,0,0,1-11.8,11.8,8.785,8.785,0,0,0,12.313,3.61l4.275,1.183-1.183-4.275A8.752,8.752,0,0,0,215.307,206.524Zm0,0" transform="translate(-188.136 -188.136)"/><path class="a" d="M10.374,20.75A10.364,10.364,0,0,1,5.1,19.311L.038,20.71l1.4-5.061a10.376,10.376,0,1,1,8.935,5.1Zm.054-6.806a.764.764,0,1,0,.763.765A.764.764,0,0,0,10.428,13.944Zm-.054-7.575a1.593,1.593,0,0,1,1.075,2.767L9.578,10.847v1.942H11.17V11.547l1.353-1.238A3.184,3.184,0,1,0,7.19,7.961H8.782A1.6,1.6,0,0,1,10.374,6.369Z" transform="translate(0.001 0)"/></g></svg>