<svg xmlns="http://www.w3.org/2000/svg" width="14.706" height="13.858" viewBox="0 0 14.706 13.858"><defs><style>.a{fill:#353841;}</style></defs><g transform="translate(0 -14.759)"><g transform="translate(0 14.759)"><path class="a" d="M14.4,25.363l-5.2-9.55a2.154,2.154,0,0,0-3.705,0L.306,25.363a2.153,2.153,0,0,0,1.852,3.254h10.39A2.154,2.154,0,0,0,14.4,25.363ZM7.353,26.894a.862.862,0,1,1,.862-.862A.863.863,0,0,1,7.353,26.894Zm.862-3.447a.862.862,0,1,1-1.723,0V19.139a.862.862,0,0,1,1.723,0Z" transform="translate(0 -14.759)"/></g></g></svg>