<svg xmlns="http://www.w3.org/2000/svg" width="50" height="50" viewBox="0 0 50 50">
  <g id="Qrcode" transform="translate(-1823.865 -6444.843)">
    <path id="Path_601" data-name="Path 601" d="M18.381,0H0V18.381H18.381ZM15.318,15.318H3.064V3.064H15.318Z" transform="translate(1823.865 6444.843)" fill="#353841"/>
    <path id="Path_602" data-name="Path 602" d="M2,2H8.127V8.127H2Z" transform="translate(1827.992 6448.969)" fill="#353841"/>
    <path id="Path_603" data-name="Path 603" d="M0,28.381H18.381V10H0ZM3.064,13.064H15.318V25.318H3.064Z" transform="translate(1823.865 6466.461)" fill="#353841"/>
    <path id="Path_604" data-name="Path 604" d="M2,12H8.127v6.127H2Z" transform="translate(1827.992 6470.588)" fill="#353841"/>
    <path id="Path_605" data-name="Path 605" d="M10,0V18.381H28.381V0ZM25.318,15.318H13.064V3.064H25.318Z" transform="translate(1845.483 6444.843)" fill="#353841"/>
    <path id="Path_606" data-name="Path 606" d="M12,2h6.127V8.127H12Z" transform="translate(1849.61 6448.969)" fill="#353841"/>
    <path id="Path_607" data-name="Path 607" d="M6.127,7H0v6.127H9.191V10.064H6.127Z" transform="translate(1823.865 6459.779)" fill="#353841"/>
    <path id="Path_608" data-name="Path 608" d="M7,9h6.127v6.127H7Z" transform="translate(1838.801 6464.046)" fill="#353841"/>
    <path id="Path_609" data-name="Path 609" d="M3,7H9.127v3.064H3Z" transform="translate(1830.266 6459.746)" fill="#353841"/>
    <path id="Path_610" data-name="Path 610" d="M13.127,12H7v3.064h3.064v3.064h3.064V12Z" transform="translate(1838.801 6470.588)" fill="#353841"/>
    <path id="Path_611" data-name="Path 611" d="M8.064,7v3.064H5v3.064h6.127V7Z" transform="translate(1834.534 6459.779)" fill="#353841"/>
    <path id="Path_612" data-name="Path 612" d="M8,4h3.064v6.127H8Z" transform="translate(1840.898 6453.378)" fill="#353841"/>
    <path id="Path_613" data-name="Path 613" d="M11.064,10.064v3.064h6.127V7H8v3.064Z" transform="translate(1840.978 6459.779)" fill="#353841"/>
    <path id="Path_614" data-name="Path 614" d="M7,6h3.064V9.064H7Z" transform="translate(1838.768 6457.617)" fill="#353841"/>
    <path id="Path_615" data-name="Path 615" d="M9,14h6.127v6.127H9Z" transform="translate(1843.069 6474.715)" fill="#353841"/>
    <path id="Path_616" data-name="Path 616" d="M7,14h3.064v6.127H7Z" transform="translate(1838.768 6474.715)" fill="#353841"/>
    <path id="Path_617" data-name="Path 617" d="M9,11h3.064v3.064H9Z" transform="translate(1843.026 6468.262)" fill="#353841"/>
    <path id="Path_618" data-name="Path 618" d="M13.127,9.191V3.064H10.064V0H7V12.254h3.064V9.191Z" transform="translate(1838.801 6444.843)" fill="#353841"/>
    <path id="Path_619" data-name="Path 619" d="M12,14h3.064v6.127H12Z" transform="translate(1849.414 6474.715)" fill="#353841"/>
    <path id="Path_620" data-name="Path 620" d="M12,12h6.127v3.064H12Z" transform="translate(1849.61 6470.392)" fill="#353841"/>
    <path id="Path_621" data-name="Path 621" d="M11,13h3.064v3.064H11Z" transform="translate(1847.285 6472.652)" fill="#353841"/>
    <path id="Path_622" data-name="Path 622" d="M10,12h3.064v3.064H10Z" transform="translate(1845.156 6470.392)" fill="#353841"/>
    <path id="Path_623" data-name="Path 623" d="M14,10v3.064h3.064v3.064h3.064V10H14Z" transform="translate(1853.738 6466.18)" fill="#353841"/>
    <path id="Path_624" data-name="Path 624" d="M17.064,13H14v9.191h6.127V16.064H17.064Z" transform="translate(1853.738 6472.652)" fill="#353841"/>
    <path id="Path_625" data-name="Path 625" d="M10,12.064v3.064h9.191V9H13.064v3.064Z" transform="translate(1845.256 6464.046)" fill="#353841"/>
    <path id="Path_626" data-name="Path 626" d="M12,7v3.064h6.127v3.064h6.127V7H12Z" transform="translate(1849.61 6459.779)" fill="#353841"/>
  </g>
</svg>
