<svg xmlns="http://www.w3.org/2000/svg" xmlns:xlink="http://www.w3.org/1999/xlink" width="56" height="56" viewBox="0 0 56 56"><defs><style>.a{fill:#f1f5ff;}.b{fill:#fff;}.c,.d{fill:#dfe7fc;}.d{fill-rule:evenodd;}.e{filter:url(#a);}</style><filter id="a" x="11.5" y="6.5" width="33.704" height="43.152" filterUnits="userSpaceOnUse"><feOffset input="SourceAlpha"/><feGaussianBlur stdDeviation="0.5" result="b"/><feFlood flood-color="#8e96ae" flood-opacity="0.322"/><feComposite operator="in" in2="b"/><feComposite in="SourceGraphic"/></filter></defs><rect class="a" width="56" height="56" rx="10"/><g transform="translate(13 8)"><g transform="translate(0 0)"><g class="e" transform="matrix(1, 0, 0, 1, -13, -8)"><path class="b" d="M-109.3-54.847A15.253,15.253,0,0,0-124.648-70,15.253,15.253,0,0,0-140-54.847c0,9.849,15.352,25,15.352,25S-109.3-45-109.3-54.847" transform="translate(153 78)"/></g></g><g transform="translate(4.581 3.977)"><path class="c" d="M902.75,255.722v.031a2.219,2.219,0,0,0,.713,1.6,6.655,6.655,0,0,1,2.005,4.854v.077a6.055,6.055,0,0,1-6.116,6.383,6.221,6.221,0,0,1-6.154-6.46v-.076a6.591,6.591,0,0,1,2-4.886,2.164,2.164,0,0,0,.715-1.583h0a2.112,2.112,0,0,0-3.441-1.639,10.447,10.447,0,0,0-3.9,8.184v.077a10.438,10.438,0,0,0,10.7,10.435,10.552,10.552,0,0,0,10.817-10.512v-.076a10.337,10.337,0,0,0-3.828-8.1A2.161,2.161,0,0,0,902.75,255.722Z" transform="translate(-888.573 -252.311)"/><path class="d" d="M1016.17,237.472a1.963,1.963,0,1,1,1.963,1.963,1.963,1.963,0,0,1-1.963-1.963" transform="translate(-1007.381 -235.509)"/></g></g></svg>