<svg xmlns="http://www.w3.org/2000/svg" xmlns:xlink="http://www.w3.org/1999/xlink" width="74" height="74" viewBox="0 0 74 74"><defs><style>.a{fill:#f1f5ff;stroke:#353841;stroke-width:1.5px;}.b{fill:#cad0e4;}.c,.i{fill:#71778a;}.d,.e{fill:#353841;}.f{fill:#c8d1ec;}.g,.i{stroke:none;}.h{fill:none;}.j{filter:url(#g);}.k{filter:url(#e);}.l{filter:url(#c);}.m{filter:url(#a);}</style><filter id="a" x="24.078" y="23.474" width="14" height="14" filterUnits="userSpaceOnUse"><feOffset input="SourceAlpha"/><feGaussianBlur stdDeviation="1" result="b"/><feFlood flood-opacity="0.161"/><feComposite operator="in" in2="b"/><feComposite in="SourceGraphic"/></filter><filter id="c" x="24.078" y="36.474" width="14" height="14" filterUnits="userSpaceOnUse"><feOffset input="SourceAlpha"/><feGaussianBlur stdDeviation="1" result="d"/><feFlood flood-opacity="0.161"/><feComposite operator="in" in2="d"/><feComposite in="SourceGraphic"/></filter><filter id="e" x="36.078" y="23.474" width="14" height="14" filterUnits="userSpaceOnUse"><feOffset input="SourceAlpha"/><feGaussianBlur stdDeviation="1" result="f"/><feFlood flood-opacity="0.161"/><feComposite operator="in" in2="f"/><feComposite in="SourceGraphic"/></filter><filter id="g" x="36.078" y="36.474" width="14" height="14" filterUnits="userSpaceOnUse"><feOffset input="SourceAlpha"/><feGaussianBlur stdDeviation="1" result="h"/><feFlood flood-opacity="0.161"/><feComposite operator="in" in2="h"/><feComposite in="SourceGraphic"/></filter></defs><g class="a"><rect class="g" width="74" height="74" rx="12"/><rect class="h" x="0.75" y="0.75" width="72.5" height="72.5" rx="11.25"/></g><g transform="translate(21 11)"><rect class="b" width="32" height="52" rx="16"/><rect class="c" width="28" height="48" rx="14" transform="translate(2 2)"/><rect class="b" width="24" height="44" rx="12" transform="translate(4 4)"/><g class="m" transform="matrix(1, 0, 0, 1, -21, -11)"><g class="d" transform="translate(27.08 26.47)"><path class="g" d="M 4 7.25 C 2.207940101623535 7.25 0.75 5.792059898376465 0.75 4 C 0.75 2.207940101623535 2.207940101623535 0.75 4 0.75 C 5.792059898376465 0.75 7.25 2.207940101623535 7.25 4 C 7.25 5.792059898376465 5.792059898376465 7.25 4 7.25 Z"/><path class="i" d="M 4 1.5 C 2.621500015258789 1.5 1.5 2.621500015258789 1.5 4 C 1.5 5.378499984741211 2.621500015258789 6.5 4 6.5 C 5.378499984741211 6.5 6.5 5.378499984741211 6.5 4 C 6.5 2.621500015258789 5.378499984741211 1.5 4 1.5 M 4 0 C 6.209139823913574 0 8 1.790860176086426 8 4 C 8 6.209139823913574 6.209139823913574 8 4 8 C 1.790860176086426 8 0 6.209139823913574 0 4 C 0 1.790860176086426 1.790860176086426 0 4 0 Z"/></g></g><g class="l" transform="matrix(1, 0, 0, 1, -21, -11)"><g class="d" transform="translate(27.08 39.47)"><path class="g" d="M 4 7.25 C 2.207940101623535 7.25 0.75 5.792059898376465 0.75 4 C 0.75 2.207940101623535 2.207940101623535 0.75 4 0.75 C 5.792059898376465 0.75 7.25 2.207940101623535 7.25 4 C 7.25 5.792059898376465 5.792059898376465 7.25 4 7.25 Z"/><path class="i" d="M 4 1.5 C 2.621500015258789 1.5 1.5 2.621500015258789 1.5 4 C 1.5 5.378499984741211 2.621500015258789 6.5 4 6.5 C 5.378499984741211 6.5 6.5 5.378499984741211 6.5 4 C 6.5 2.621500015258789 5.378499984741211 1.5 4 1.5 M 4 0 C 6.209139823913574 0 8 1.790860176086426 8 4 C 8 6.209139823913574 6.209139823913574 8 4 8 C 1.790860176086426 8 0 6.209139823913574 0 4 C 0 1.790860176086426 1.790860176086426 0 4 0 Z"/></g></g><g class="k" transform="matrix(1, 0, 0, 1, -21, -11)"><g class="d" transform="translate(39.08 26.47)"><path class="g" d="M 4 7.25 C 2.207940101623535 7.25 0.75 5.792059898376465 0.75 4 C 0.75 2.207940101623535 2.207940101623535 0.75 4 0.75 C 5.792059898376465 0.75 7.25 2.207940101623535 7.25 4 C 7.25 5.792059898376465 5.792059898376465 7.25 4 7.25 Z"/><path class="i" d="M 4 1.5 C 2.621500015258789 1.5 1.5 2.621500015258789 1.5 4 C 1.5 5.378499984741211 2.621500015258789 6.5 4 6.5 C 5.378499984741211 6.5 6.5 5.378499984741211 6.5 4 C 6.5 2.621500015258789 5.378499984741211 1.5 4 1.5 M 4 0 C 6.209139823913574 0 8 1.790860176086426 8 4 C 8 6.209139823913574 6.209139823913574 8 4 8 C 1.790860176086426 8 0 6.209139823913574 0 4 C 0 1.790860176086426 1.790860176086426 0 4 0 Z"/></g></g><g class="j" transform="matrix(1, 0, 0, 1, -21, -11)"><g class="d" transform="translate(39.08 39.47)"><path class="g" d="M 4 7.25 C 2.207940101623535 7.25 0.75 5.792059898376465 0.75 4 C 0.75 2.207940101623535 2.207940101623535 0.75 4 0.75 C 5.792059898376465 0.75 7.25 2.207940101623535 7.25 4 C 7.25 5.792059898376465 5.792059898376465 7.25 4 7.25 Z"/><path class="i" d="M 4 1.5 C 2.621500015258789 1.5 1.5 2.621500015258789 1.5 4 C 1.5 5.378499984741211 2.621500015258789 6.5 4 6.5 C 5.378499984741211 6.5 6.5 5.378499984741211 6.5 4 C 6.5 2.621500015258789 5.378499984741211 1.5 4 1.5 M 4 0 C 6.209139823913574 0 8 1.790860176086426 8 4 C 8 6.209139823913574 6.209139823913574 8 4 8 C 1.790860176086426 8 0 6.209139823913574 0 4 C 0 1.790860176086426 1.790860176086426 0 4 0 Z"/></g></g><path class="e" d="M2.384,0A2.384,2.384,0,1,1,0,2.384,2.384,2.384,0,0,1,2.384,0Z" transform="translate(13.616 39.616)"/><path class="c" d="M1.587,0A1.587,1.587,0,1,1,0,1.587,1.587,1.587,0,0,1,1.587,0Z" transform="translate(19.413 8.413)"/><path class="f" d="M.84,0A.84.84,0,1,1,0,.84.84.84,0,0,1,.84,0Z" transform="translate(15.16 41.16)"/><path class="c" d="M1.587,0A1.587,1.587,0,1,1,0,1.587,1.587,1.587,0,0,1,1.587,0Z" transform="translate(9.413 8.413)"/><rect class="c" width="2" height="3" rx="1" transform="translate(19 24)"/><rect class="c" width="2" height="3" rx="1" transform="translate(12 24)"/></g></svg>