<svg xmlns="http://www.w3.org/2000/svg" width="85" height="85" viewBox="0 0 85 85"><defs><style>.a{fill:#f1f5ff;}.b{fill:#c8d1ec;}</style></defs><g transform="translate(-145 -220)"><circle class="a" cx="42.5" cy="42.5" r="42.5" transform="translate(145 220)"/><path class="b" d="M7022.716,724.789a5.782,5.782,0,1,0,5.782,5.782A5.782,5.782,0,0,0,7022.716,724.789Zm0,9.744a3.962,3.962,0,1,1,3.961-3.962A3.963,3.963,0,0,1,7022.716,734.533Zm9.22,4.437H7013.5a2.62,2.62,0,0,1-2.616-2.617V724.789a2.62,2.62,0,0,1,2.616-2.617h18.44a2.621,2.621,0,0,1,2.617,2.617v11.565A2.62,2.62,0,0,1,7031.936,738.97Zm-12.806-17.224H7013.4a.714.714,0,1,1,0-1.427h5.734a.714.714,0,0,1,0,1.427Z" transform="translate(-6834.879 -467.319)"/></g></svg>