<svg xmlns="http://www.w3.org/2000/svg" width="46.577" height="41.847" viewBox="0 0 46.577 41.847"><defs><style>.a{fill:#353841;}.b,.c{fill:#fff;}.c{fill-rule:evenodd;}</style></defs><g transform="translate(-70.712 -276.005)"><g transform="translate(-382.288 -214.993)"><path class="a" d="M549.063,491h-.2a15.862,15.862,0,0,0-15.849,15.735c0,9.223,13.153,23.24,15.946,26.112,2.792-2.871,15.942-16.886,15.946-26.114A15.861,15.861,0,0,0,549.063,491Z" transform="translate(-65.326 0)"/><g transform="translate(453 497.459)"><path class="a" d="M458.874,536.231a14.911,14.911,0,0,1,3.955-10.027A11,11,0,0,0,453,537.047c0,6.281,8.806,15.812,11.052,18.14.545-.565,1.476-1.554,2.574-2.818C462.836,547.51,458.874,541.233,458.874,536.231Z" transform="translate(-453 -526.204)"/></g><path class="a" d="M498.88,521.285a17.269,17.269,0,0,1,5.422-12.458,13.515,13.515,0,0,0-11.3,13.221c0,7.8,11.043,19.643,13.584,22.264.532-.549,1.438-1.5,2.537-2.741C504.394,535.762,498.88,527.633,498.88,521.285Z" transform="translate(-32.664 -14.557)"/></g><g transform="translate(90.2 280)"><path class="b" d="M903.348,255.814v.032a2.313,2.313,0,0,0,.743,1.671,6.935,6.935,0,0,1,2.09,5.059v.08c0,3.625-2.47,6.653-6.374,6.653a6.484,6.484,0,0,1-6.414-6.733v-.08a6.869,6.869,0,0,1,2.087-5.092,2.255,2.255,0,0,0,.745-1.649h0a2.2,2.2,0,0,0-3.586-1.708,10.888,10.888,0,0,0-4.066,8.529v.08a10.879,10.879,0,0,0,11.155,10.876A11,11,0,0,0,911,262.576v-.08a10.774,10.774,0,0,0-3.99-8.44A2.252,2.252,0,0,0,903.348,255.814Z" transform="translate(-888.573 -252.259)"/><path class="c" d="M1016.17,237.555a2.046,2.046,0,1,1,2.046,2.046,2.046,2.046,0,0,1-2.046-2.046" transform="translate(-1007.01 -235.509)"/></g></g></svg>