<?xml version="1.0" encoding="utf-8"?>
<svg viewBox="9 6 32 41.848" width="32px" height="41.848px" xmlns="http://www.w3.org/2000/svg">
  <defs>
    <filter id="a" x="0" y="0" width="50" height="59.847" filterUnits="userSpaceOnUse">
      <feOffset dy="3" input="SourceAlpha"/>
      <feGaussianBlur stdDeviation="3" result="b"/>
      <feFlood flood-opacity="0.251"/>
      <feComposite operator="in" in2="b"/>
      <feComposite in="SourceGraphic"/>
    </filter>
    <style>.a{fill:#353841;}.b{fill:#fff;}.c{filter:url(#a);}</style>
  </defs>
  <g transform="matrix(1, 0, 0, 1, 9.229, 5)">
    <g transform="translate(-0.229 1)">
      <g class="c" transform="matrix(1, 0, 0, 1, -9, -6)">
        <path class="a" d="M-108-54.207A15.9,15.9,0,0,0-124-70a15.9,15.9,0,0,0-16,15.793c0,10.265,16,26.055,16,26.055s16-15.79,16-26.055" transform="translate(149 76)"/>
      </g>
    </g>
    <path class="b" d="M12.508,25.016A12.507,12.507,0,0,1,3.664,3.664,12.507,12.507,0,1,1,21.352,21.352,12.425,12.425,0,0,1,12.508,25.016Zm0-20.25a7.744,7.744,0,1,0,7.745,7.744A7.753,7.753,0,0,0,12.509,4.766Z" transform="translate(3.344 3.538)"/>
  </g>
</svg>