<svg xmlns="http://www.w3.org/2000/svg" width="56" height="56" viewBox="0 0 56 56"><defs><style>.a{fill:#f1f5ff;}.b{fill:#353841;}.c{fill:#fff;}</style></defs><rect class="a" width="56" height="56" rx="10"/><g transform="translate(13 8)"><g transform="translate(0 0)"><path class="b" d="M-109.3-54.847A15.253,15.253,0,0,0-124.648-70,15.253,15.253,0,0,0-140-54.847c0,9.849,15.352,25,15.352,25S-109.3-45-109.3-54.847" transform="translate(140 70)"/></g><path class="c" d="M12,24A12,12,0,0,1,3.515,3.515,12,12,0,1,1,20.486,20.486,11.922,11.922,0,0,1,12,24Zm0-19.43A7.43,7.43,0,1,0,19.432,12,7.439,7.439,0,0,0,12,4.572Z" transform="translate(3.429 2.436)"/></g></svg>