<svg xmlns="http://www.w3.org/2000/svg" xmlns:xlink="http://www.w3.org/1999/xlink" width="38" height="42.001" viewBox="0 0 38 42.001"><defs><style>.a{fill:#cad0e4;}.b,.d{fill:#353841;}.c,.f{fill:#71778a;}.e,.f{stroke:none;}.g{filter:url(#g);}.h{filter:url(#e);}.i{filter:url(#c);}.j{filter:url(#a);}</style><filter id="a" x="20.998" y="13.032" width="16" height="16" filterUnits="userSpaceOnUse"><feOffset input="SourceAlpha"/><feGaussianBlur stdDeviation="1" result="b"/><feFlood flood-opacity="0.161"/><feComposite operator="in" in2="b"/><feComposite in="SourceGraphic"/></filter><filter id="c" x="12.1" y="3.103" width="13.797" height="13.797" filterUnits="userSpaceOnUse"><feOffset input="SourceAlpha"/><feGaussianBlur stdDeviation="1" result="d"/><feFlood flood-opacity="0.161"/><feComposite operator="in" in2="d"/><feComposite in="SourceGraphic"/></filter><filter id="e" x="10.998" y="24.001" width="16" height="16" filterUnits="userSpaceOnUse"><feOffset input="SourceAlpha"/><feGaussianBlur stdDeviation="1" result="f"/><feFlood flood-opacity="0.161"/><feComposite operator="in" in2="f"/><feComposite in="SourceGraphic"/></filter><filter id="g" x="0.998" y="13.032" width="16" height="16" filterUnits="userSpaceOnUse"><feOffset input="SourceAlpha"/><feGaussianBlur stdDeviation="1" result="h"/><feFlood flood-opacity="0.161"/><feComposite operator="in" in2="h"/><feComposite in="SourceGraphic"/></filter></defs><path class="a" d="M-16476,2854a20.877,20.877,0,0,1-14.854-6.15,21.027,21.027,0,0,1-4.148-5.881v-17.938a21.049,21.049,0,0,1,4.148-5.881A20.876,20.876,0,0,1-16476,2812a20.885,20.885,0,0,1,11.381,3.355,21.028,21.028,0,0,1,7.617,8.689v17.913a21.063,21.063,0,0,1-7.617,8.693A20.913,20.913,0,0,1-16476,2854Z" transform="translate(16494.998 -2812)"/><g class="j" transform="matrix(1, 0, 0, 1, 0, 0)"><g class="b" transform="translate(24 16.03)"><path class="e" d="M 5 9 C 2.794389963150024 9 1 7.205609798431396 1 5 C 1 2.794389963150024 2.794389963150024 1 5 1 C 7.205609798431396 1 9 2.794389963150024 9 5 C 9 7.205609798431396 7.205609798431396 9 5 9 Z"/><path class="f" d="M 5 2 C 3.345789909362793 2 2 3.345789909362793 2 5 C 2 6.654210090637207 3.345789909362793 8 5 8 C 6.654210090637207 8 8 6.654210090637207 8 5 C 8 3.345789909362793 6.654210090637207 2 5 2 M 5 0 C 7.761420249938965 0 10 2.238580226898193 10 5 C 10 7.761420249938965 7.761420249938965 10 5 10 C 2.238580226898193 10 0 7.761420249938965 0 5 C 0 2.238580226898193 2.238580226898193 0 5 0 Z"/></g></g><g class="i" transform="matrix(1, 0, 0, 1, 0, 0)"><g class="b" transform="translate(15.1 6.1)"><path class="e" d="M 3.8984375 6.796877384185791 C 2.300227403640747 6.796877384185791 0.9999974966049194 5.496647357940674 0.9999974966049194 3.8984375 C 0.9999974966049194 2.300227403640747 2.300227403640747 0.9999974966049194 3.8984375 0.9999974966049194 C 5.496647357940674 0.9999974966049194 6.796877384185791 2.300227403640747 6.796877384185791 3.8984375 C 6.796877384185791 5.496647357940674 5.496647357940674 6.796877384185791 3.8984375 6.796877384185791 Z"/><path class="f" d="M 3.8984375 1.999997615814209 C 2.851637363433838 1.999997615814209 1.999997615814209 2.851637363433838 1.999997615814209 3.8984375 C 1.999997615814209 4.945237159729004 2.851637363433838 5.796877384185791 3.8984375 5.796877384185791 C 4.945237159729004 5.796877384185791 5.796877384185791 4.945237159729004 5.796877384185791 3.8984375 C 5.796877384185791 2.851637363433838 4.945237159729004 1.999997615814209 3.8984375 1.999997615814209 M 3.8984375 -2.384185791015625e-06 C 6.051487445831299 -2.384185791015625e-06 7.796877384185791 1.745387554168701 7.796877384185791 3.8984375 C 7.796877384185791 6.051487445831299 6.051487445831299 7.796877384185791 3.8984375 7.796877384185791 C 1.745387554168701 7.796877384185791 -2.384185791015625e-06 6.051487445831299 -2.384185791015625e-06 3.8984375 C -2.384185791015625e-06 1.745387554168701 1.745387554168701 -2.384185791015625e-06 3.8984375 -2.384185791015625e-06 Z"/></g></g><g class="h" transform="matrix(1, 0, 0, 1, 0, 0)"><path class="c" d="M5,0A5,5,0,1,1,0,5,5,5,0,0,1,5,0Z" transform="translate(14 27)"/></g><g class="g" transform="matrix(1, 0, 0, 1, 0, 0)"><g class="b" transform="translate(4 16.03)"><path class="e" d="M 5 9 C 2.794389963150024 9 1 7.205609798431396 1 5 C 1 2.794389963150024 2.794389963150024 1 5 1 C 7.205609798431396 1 9 2.794389963150024 9 5 C 9 7.205609798431396 7.205609798431396 9 5 9 Z"/><path class="f" d="M 5 2 C 3.345789909362793 2 2 3.345789909362793 2 5 C 2 6.654210090637207 3.345789909362793 8 5 8 C 6.654210090637207 8 8 6.654210090637207 8 5 C 8 3.345789909362793 6.654210090637207 2 5 2 M 5 0 C 7.761420249938965 0 10 2.238580226898193 10 5 C 10 7.761420249938965 7.761420249938965 10 5 10 C 2.238580226898193 10 0 7.761420249938965 0 5 C 0 2.238580226898193 2.238580226898193 0 5 0 Z"/></g></g><path class="d" d="M1.551,0A1.551,1.551,0,1,1,0,1.551,1.551,1.551,0,0,1,1.551,0Z" transform="translate(17.447 30.45)"/></svg>