<svg xmlns="http://www.w3.org/2000/svg" width="42" height="41.576" viewBox="0 0 42 41.576"><defs><style>.a,.c{fill:#c8d1ec;}.b,.e{fill:#fff;}.d,.e{stroke:none;}</style></defs><g transform="translate(-164 -718.509)"><path class="a" d="M-6329-3147.424h0a20.789,20.789,0,0,1-11.849-5.94,20.868,20.868,0,0,1-6.152-14.85,20.979,20.979,0,0,1,5.184-13.813A20.987,20.987,0,0,1-6329-3189v2.491a3,3,0,0,0,3,3,3,3,0,0,0,3-3V-3189a20.98,20.98,0,0,1,12.816,6.972,20.972,20.972,0,0,1,5.184,13.813,20.868,20.868,0,0,1-6.15,14.85,20.775,20.775,0,0,1-11.849,5.939v-2.084a3,3,0,0,0-3-3,3,3,0,0,0-3,3v2.084Z" transform="translate(6511 3907.509)"/><path class="b" d="M2,0A2,2,0,1,1,0,2,2,2,0,0,1,2,0Z" transform="translate(183 737)"/><g class="c" transform="translate(168.186 734.309)"><path class="d" d="M 5 9.25 C 2.656539916992188 9.25 0.75 7.343460083007813 0.75 5 C 0.75 2.656539916992188 2.656539916992188 0.75 5 0.75 C 7.343460083007813 0.75 9.25 2.656539916992188 9.25 5 C 9.25 7.343460083007813 7.343460083007813 9.25 5 9.25 Z"/><path class="e" d="M 5 1.5 C 3.070089817047119 1.5 1.5 3.070089817047119 1.5 5 C 1.5 6.929909706115723 3.070089817047119 8.5 5 8.5 C 6.929909706115723 8.5 8.5 6.929909706115723 8.5 5 C 8.5 3.070089817047119 6.929909706115723 1.5 5 1.5 M 5 0 C 7.761420249938965 0 10 2.238580226898193 10 5 C 10 7.761420249938965 7.761420249938965 10 5 10 C 2.238580226898193 10 0 7.761420249938965 0 5 C 0 2.238580226898193 2.238580226898193 0 5 0 Z"/></g><g class="c" transform="translate(192.186 734.309)"><path class="d" d="M 5 9.25 C 2.656539916992188 9.25 0.75 7.343460083007813 0.75 5 C 0.75 2.656539916992188 2.656539916992188 0.75 5 0.75 C 7.343460083007813 0.75 9.25 2.656539916992188 9.25 5 C 9.25 7.343460083007813 7.343460083007813 9.25 5 9.25 Z"/><path class="e" d="M 5 1.5 C 3.070089817047119 1.5 1.5 3.070089817047119 1.5 5 C 1.5 6.929909706115723 3.070089817047119 8.5 5 8.5 C 6.929909706115723 8.5 8.5 6.929909706115723 8.5 5 C 8.5 3.070089817047119 6.929909706115723 1.5 5 1.5 M 5 0 C 7.761420249938965 0 10 2.238580226898193 10 5 C 10 7.761420249938965 7.761420249938965 10 5 10 C 2.238580226898193 10 0 7.761420249938965 0 5 C 0 2.238580226898193 2.238580226898193 0 5 0 Z"/></g></g></svg>