<svg xmlns="http://www.w3.org/2000/svg" width="74" height="74" viewBox="0 0 74 74"><defs><style>.a{fill:#f1f5ff;}.b,.c{fill:#c8d1ec;}.d,.f{fill:#fff;}.e,.f{stroke:none;}</style></defs><rect class="a" width="74" height="74" rx="12"/><g transform="translate(18.002 15.999)"><path class="b" d="M-16476,2854a20.877,20.877,0,0,1-14.854-6.15,21.027,21.027,0,0,1-4.148-5.881v-17.938a21.049,21.049,0,0,1,4.148-5.881A20.876,20.876,0,0,1-16476,2812a20.885,20.885,0,0,1,11.381,3.355,21.028,21.028,0,0,1,7.617,8.689v17.913a21.063,21.063,0,0,1-7.617,8.693A20.913,20.913,0,0,1-16476,2854Z" transform="translate(16494.998 -2812)"/><g class="c" transform="translate(23.998 16.032)"><path class="e" d="M 5 9 C 2.794389963150024 9 1 7.205609798431396 1 5 C 1 2.794389963150024 2.794389963150024 1 5 1 C 7.205609798431396 1 9 2.794389963150024 9 5 C 9 7.205609798431396 7.205609798431396 9 5 9 Z"/><path class="f" d="M 5 2 C 3.345789909362793 2 2 3.345789909362793 2 5 C 2 6.654210090637207 3.345789909362793 8 5 8 C 6.654210090637207 8 8 6.654210090637207 8 5 C 8 3.345789909362793 6.654210090637207 2 5 2 M 5 0 C 7.761420249938965 0 10 2.238580226898193 10 5 C 10 7.761420249938965 7.761420249938965 10 5 10 C 2.238580226898193 10 0 7.761420249938965 0 5 C 0 2.238580226898193 2.238580226898193 0 5 0 Z"/></g><g class="c" transform="translate(15.1 6.103)"><path class="e" d="M 3.8984375 6.796877384185791 C 2.300227403640747 6.796877384185791 0.9999974966049194 5.496647357940674 0.9999974966049194 3.8984375 C 0.9999974966049194 2.300227403640747 2.300227403640747 0.9999974966049194 3.8984375 0.9999974966049194 C 5.496647357940674 0.9999974966049194 6.796877384185791 2.300227403640747 6.796877384185791 3.8984375 C 6.796877384185791 5.496647357940674 5.496647357940674 6.796877384185791 3.8984375 6.796877384185791 Z"/><path class="f" d="M 3.8984375 1.999997615814209 C 2.851637363433838 1.999997615814209 1.999997615814209 2.851637363433838 1.999997615814209 3.8984375 C 1.999997615814209 4.945237159729004 2.851637363433838 5.796877384185791 3.8984375 5.796877384185791 C 4.945237159729004 5.796877384185791 5.796877384185791 4.945237159729004 5.796877384185791 3.8984375 C 5.796877384185791 2.851637363433838 4.945237159729004 1.999997615814209 3.8984375 1.999997615814209 M 3.8984375 -2.384185791015625e-06 C 6.051487445831299 -2.384185791015625e-06 7.796877384185791 1.745387554168701 7.796877384185791 3.8984375 C 7.796877384185791 6.051487445831299 6.051487445831299 7.796877384185791 3.8984375 7.796877384185791 C 1.745387554168701 7.796877384185791 -2.384185791015625e-06 6.051487445831299 -2.384185791015625e-06 3.8984375 C -2.384185791015625e-06 1.745387554168701 1.745387554168701 -2.384185791015625e-06 3.8984375 -2.384185791015625e-06 Z"/></g><path class="d" d="M5,0A5,5,0,1,1,0,5,5,5,0,0,1,5,0Z" transform="translate(13.998 27.001)"/><g class="c" transform="translate(3.998 16.032)"><path class="e" d="M 5 9 C 2.794389963150024 9 1 7.205609798431396 1 5 C 1 2.794389963150024 2.794389963150024 1 5 1 C 7.205609798431396 1 9 2.794389963150024 9 5 C 9 7.205609798431396 7.205609798431396 9 5 9 Z"/><path class="f" d="M 5 2 C 3.345789909362793 2 2 3.345789909362793 2 5 C 2 6.654210090637207 3.345789909362793 8 5 8 C 6.654210090637207 8 8 6.654210090637207 8 5 C 8 3.345789909362793 6.654210090637207 2 5 2 M 5 0 C 7.761420249938965 0 10 2.238580226898193 10 5 C 10 7.761420249938965 7.761420249938965 10 5 10 C 2.238580226898193 10 0 7.761420249938965 0 5 C 0 2.238580226898193 2.238580226898193 0 5 0 Z"/></g><path class="b" d="M1.551,0A1.551,1.551,0,1,1,0,1.551,1.551,1.551,0,0,1,1.551,0Z" transform="translate(17.447 30.45)"/></g></svg>