<svg xmlns="http://www.w3.org/2000/svg" width="62" height="62" viewBox="0 0 62 62"><defs><style>.a{fill:#e1e6f3;}.b{fill:#fff;}</style></defs><g transform="translate(-20 -517)"><circle class="a" cx="31" cy="31" r="31" transform="translate(20 517)"/><path class="b" d="M25.854,23.407H12.031a1.151,1.151,0,0,1-1.112-1.183V20.446a.1.1,0,0,1,0-.014v-.014a1.153,1.153,0,0,1,1.111-1.156h.344a1.277,1.277,0,0,1,0-.169V11.267A3.613,3.613,0,0,0,10.137,15.7c.493,2.029.612,4.905-.673,6.334a2.5,2.5,0,0,1-1.829.805H7.559a4.062,4.062,0,0,1-.981-.128,3.209,3.209,0,0,1-2.371-1.92c-1.189-2.92,1.475-7.9,1.589-8.112A11.489,11.489,0,0,0,6.981,9.919,5.67,5.67,0,0,0,6.5,5.028l-.693.926a1.1,1.1,0,0,1-.744.439h-.1a1.061,1.061,0,0,1-.687-.257L1.889,4.109,1.877,4.1l-.012-.01A1.238,1.238,0,0,1,1.7,2.425l.712-.912A3.283,3.283,0,0,0,.766,1.067c-.071,0-.141,0-.206.007a.415.415,0,0,1-.064,0A.509.509,0,0,1,0,.618.523.523,0,0,1,.433.026,2.743,2.743,0,0,1,.81,0,6.653,6.653,0,0,1,4.651,1.762,17.873,17.873,0,0,1,6.712,3.7l.006.007A5.045,5.045,0,0,1,8.243,6.588a7.713,7.713,0,0,1-.159,3.036,12.96,12.96,0,0,1-1.442,3.543l-.013.025c-.413.8-2.427,4.9-1.505,7.167a2.233,2.233,0,0,0,1.671,1.352,1.863,1.863,0,0,0,.684.13,1.908,1.908,0,0,0,1.311-.529c.949-1.029.889-3.5.432-5.367a4.879,4.879,0,0,1,.623-3.88A4.316,4.316,0,0,1,12.387,10.2V1.412A1.151,1.151,0,0,1,13.5.229H24.367a1.151,1.151,0,0,1,1.112,1.183V19.094a1.274,1.274,0,0,1,0,.169h.375a1.151,1.151,0,0,1,1.112,1.183v1.778A1.151,1.151,0,0,1,25.854,23.407Zm-13.8-3.13a.164.164,0,0,0-.159.169v1.778a.164.164,0,0,0,.159.169H25.88a.164.164,0,0,0,.159-.169V20.446a.232.232,0,0,0,0-.029.161.161,0,0,0-.157-.142l-.026,0ZM16.4,14.141a.508.508,0,0,0,0,1.014h5.084a.508.508,0,0,0,0-1.014ZM15.641,2.852a1.151,1.151,0,0,0-1.112,1.183v7.01a1.15,1.15,0,0,0,1.112,1.182h6.584a1.15,1.15,0,0,0,1.112-1.182V4.035a1.15,1.15,0,0,0-1.112-1.183ZM3.287,2.093h-.02a.153.153,0,0,0-.108.061l-.706.933a.176.176,0,0,0,0,.237l2.39,2.028a.146.146,0,0,0,.094.035h.02a.157.157,0,0,0,.108-.06L5.771,4.4a.169.169,0,0,0,.057-.129.166.166,0,0,0-.057-.114L3.382,2.128A.147.147,0,0,0,3.287,2.093Z" transform="translate(34 536)"/></g></svg>