<svg xmlns="http://www.w3.org/2000/svg" width="14.756" height="14.756" viewBox="0 0 14.756 14.756">
  <g id="icon-password" transform="translate(-0.001 0)">
    <g id="Group_12700" data-name="Group 12700" transform="translate(0.001 0)">
      <path id="Path_15977" data-name="Path 15977" d="M13.366,1.39A4.753,4.753,0,0,0,5.483,6.216L.128,11.572A.432.432,0,0,0,0,11.877v2.446a.432.432,0,0,0,.432.432H2.879a.432.432,0,0,0,.306-.127l.611-.612a.432.432,0,0,0,.124-.355L3.844,13l.91-.086a.432.432,0,0,0,.39-.39l.086-.91.657.076a.425.425,0,0,0,.337-.106.433.433,0,0,0,.145-.323v-.8h.79a.432.432,0,0,0,.306-.127L8.573,9.24a4.682,4.682,0,0,0,4.793-1.125A4.761,4.761,0,0,0,13.366,1.39ZM12.143,4.447a1.3,1.3,0,1,1,0-1.834A1.3,1.3,0,0,1,12.143,4.447Z" transform="translate(-0.001 0)" fill="#353841"/>
    </g>
  </g>
</svg>
