<svg xmlns="http://www.w3.org/2000/svg" width="36.61" height="23.655" viewBox="0 0 36.61 23.655"><defs><style>.a{fill:#3f424a;}</style></defs><path class="a" d="M32.75,23.655H29.567a.826.826,0,0,1-.824-.825V20.84H26.779l.238,0c-.151-3.432-2.528-3.756-2.552-3.759-.039,0-4.456-.011-8.027-.011-2.115,0-3.549,0-4.264.011C9.9,17.1,9.6,20.457,9.568,20.84h-1.7v1.99a.826.826,0,0,1-.824.825H3.862a.826.826,0,0,1-.824-.825V11.5A1.7,1.7,0,0,1,4.254,9.857a1.006,1.006,0,0,1-.008-.124H.907a.739.739,0,0,1-.653-.451,3.288,3.288,0,0,1,0-2.538.739.739,0,0,1,.653-.45H4.252a.741.741,0,0,1,.654.45,4.661,4.661,0,0,1,.231.924C6.324,5.381,7.645,2.826,8.022,2.1l.216-.416A1.332,1.332,0,0,1,9.253.821a50.293,50.293,0,0,1,18.1,0,1.335,1.335,0,0,1,1.016.86c.01.022,1.623,3.143,3.1,5.987a4.478,4.478,0,0,1,.231-.924.739.739,0,0,1,.653-.45H35.7a.741.741,0,0,1,.654.45,3.315,3.315,0,0,1,0,2.538.741.741,0,0,1-.653.451H32.365v.019c0,.041,0,.073-.007.105A1.7,1.7,0,0,1,33.574,11.5V22.83A.826.826,0,0,1,32.75,23.655ZM28.63,11.962a15.236,15.236,0,0,0-2.576.28c-1.627.177-1.913,2.5-1.914,2.52h6.007c.009-.018,1-1.9,0-2.52A3.053,3.053,0,0,0,28.63,11.962Zm-20.375,0a3.051,3.051,0,0,0-1.516.28c-1.007.621-.01,2.5,0,2.52h6.008c0-.022-.282-2.342-1.915-2.52A15.175,15.175,0,0,0,8.255,11.962ZM18.28,1.728a55.076,55.076,0,0,0-8.125.7H10.15L6.932,9.2h22.7L26.476,2.432A56.653,56.653,0,0,0,18.28,1.728Z" transform="translate(0 0)"/><path class="a" d="M1531.957,7869.886s.187-2.935,1.922-2.975,12.1,0,12.1,0,1.747.239,1.888,2.975C1545.543,7869.906,1531.957,7869.886,1531.957,7869.886Z" transform="translate(-1521.615 -7849.098)"/></svg>