<?xml version="1.0" encoding="UTF-8"?>
<!DOCTYPE svg PUBLIC "-//W3C//DTD SVG 1.1//EN" "http://www.w3.org/Graphics/SVG/1.1/DTD/svg11.dtd">
<svg version="1.1" xmlns="http://www.w3.org/2000/svg" xmlns:xlink="http://www.w3.org/1999/xlink" width="56" height="56"  xml:space="preserve" id="hyundai_filterCanvas">
    <!-- Generated by PaintCode - http://www.paintcodeapp.com -->
    <rect id="hyundai_filterCanvas-go_charge_filter_selectedCanvasevio_filter_selectedCanvasrectangle" stroke="none" fill="rgb(241, 245, 255)" x="0" y="0" width="56" height="56" rx="10" />
    <g id="hyundai_filterCanvas-iconOfflineCanvasiconOffline">
        <path id="hyundai_filterCanvas-iconOfflineCanvaspath_137" stroke="none" fill="rgb(53, 56, 65)" d="M 43.88,22.85 L 43.88,22.95 C 43.88,14.14 36.79,7 28.04,7 L 27.84,7 C 19.09,7 12,14.14 12,22.95 12,33.15 27.94,49 27.94,49 27.94,49 43.88,33.15 43.88,22.85 Z M 43.88,22.85" />
        <path id="hyundai_filterCanvas-iconOfflineCanvaspath_16036" stroke="none" fill="rgb(255, 255, 255)" d="M 27.95,26.71 C 34.85,26.71 40.43,23.83 40.43,20.27 40.43,16.72 34.85,13.84 27.95,13.84 21.06,13.84 15.47,16.72 15.47,20.27 15.47,23.83 21.06,26.71 27.95,26.71 Z M 30.3,23.56 C 30.09,24.05 29.74,25.08 28.91,25.49 L 28.92,25.49 C 28.66,25.61 28.37,25.68 28.08,25.69 28.02,25.69 27.97,25.69 27.95,25.69 L 27.79,25.69 C 25.63,25.69 23.49,25.36 21.44,24.73 21.7,24.81 21.66,24.79 21.64,24.79 21.48,24.73 21.39,24.66 21.39,24.56 L 21.39,24.56 C 21.4,24.48 21.44,24.41 21.5,24.36 21.52,24.33 21.56,24.3 21.61,24.25 L 21.63,24.24 C 22.86,23.31 24.22,22.58 25.67,22.07 L 25.68,22.07 C 26.63,21.68 27.61,21.37 28.61,21.13 29.19,21.01 31.54,20.65 30.3,23.56 Z M 36.61,17.07 L 36.61,17.07 C 36.64,16.98 36.72,16.93 36.81,16.92 L 36.82,16.92 C 36.91,16.92 37,16.95 37.08,17.01 38.54,17.91 39.41,19.05 39.41,20.28 39.41,22.5 36.57,24.41 32.52,25.24 32.26,25.29 32.09,25.29 32.03,25.22 L 32.03,25.22 C 31.99,25.17 31.98,25.08 32.03,25.02 L 32.03,25.03 C 32.06,24.98 32.09,24.93 32.13,24.88 34.35,22.25 36.03,18.39 36.51,17.27 36.54,17.19 36.58,17.11 36.61,17.06 M 25.64,16.98 C 25.85,16.5 26.21,15.46 27.03,15.05 L 27.03,15.05 C 27.29,14.93 27.57,14.86 27.86,14.85 27.93,14.85 27.97,14.85 27.99,14.85 L 28.16,14.85 C 30.31,14.85 32.44,15.18 34.5,15.81 34.24,15.73 34.29,15.75 34.3,15.75 34.47,15.81 34.55,15.89 34.55,15.98 L 34.55,15.98 C 34.55,16.06 34.51,16.13 34.45,16.18 34.42,16.21 34.39,16.24 34.34,16.29 L 34.3,16.31 C 33.08,17.24 31.72,17.97 30.27,18.47 L 30.28,18.47 C 29.32,18.86 28.33,19.18 27.31,19.41 26.75,19.53 24.4,19.89 25.64,16.98 Z M 23.38,15.31 C 23.64,15.26 23.81,15.26 23.87,15.33 L 23.87,15.33 C 23.91,15.39 23.91,15.47 23.87,15.53 L 23.87,15.53 C 23.83,15.59 23.8,15.64 23.76,15.68 21.55,18.3 19.87,22.16 19.4,23.28 19.36,23.36 19.33,23.43 19.29,23.48 L 19.29,23.48 C 19.26,23.57 19.17,23.63 19.08,23.63 L 19.09,23.63 C 18.99,23.63 18.9,23.6 18.82,23.55 17.36,22.64 16.49,21.5 16.49,20.27 16.49,18.05 19.32,16.14 23.38,15.31 Z M 23.38,15.31" />
    </g>
</svg>
