<svg xmlns="http://www.w3.org/2000/svg" width="16.252" height="14.284" viewBox="0 0 16.252 14.284">
  <g id="icon-work" transform="translate(0)">
    <path id="Path_15626" data-name="Path 15626" d="M13.185,83.524H3.067a1.427,1.427,0,0,1-1.355-.976L0,77.41v10.4a1.43,1.43,0,0,0,1.428,1.428h13.4a1.43,1.43,0,0,0,1.428-1.428v-10.4L14.54,82.547a1.427,1.427,0,0,1-1.355.976Zm0,0" transform="translate(0 -74.953)" fill="#c8d1ec"/>
    <path id="Path_15627" data-name="Path 15627" d="M35.021,0H31.211a1.43,1.43,0,0,0-1.428,1.428V1.9H25.809l1.8,5.388a.476.476,0,0,0,.452.325H38.175a.476.476,0,0,0,.452-.325l1.8-5.388H36.449V1.428A1.43,1.43,0,0,0,35.021,0ZM30.735,1.9V1.428a.476.476,0,0,1,.476-.476h3.809a.476.476,0,0,1,.476.476V1.9Zm0,0" transform="translate(-24.99)" fill="#c8d1ec"/>
  </g>
</svg>
