<svg xmlns="http://www.w3.org/2000/svg" width="36.151" height="33.347" viewBox="0 0 36.151 33.347"><defs><style>.a{fill:#fff;}.b,.c{fill:none;}.b{stroke:#fff;}.d,.e{stroke:none;}.e{fill:#fff;}</style></defs><g transform="translate(-0.001 -3.719)"><g transform="translate(0.001 15.368)"><g transform="translate(0 0)"><path class="a" d="M15.672,163.36h-.066c-.324-1.291-1.919-2.35-4.363-2.881,1.988-3.657-8.8-3.657-6.812,0C1.681,161.076,0,162.34,0,163.852c0,2.125,3.369,3.727,7.836,3.727,3.951,0,7.037-1.254,7.7-3.014h.136C16,164.565,16,163.36,15.672,163.36Zm-7.836,3.014c-3.795,0-6.63-1.331-6.63-2.522,0-.781,1.326-1.79,3.844-2.263.271.47,1.963,2.374,2.787,2.374a2.4,2.4,0,0,0,2.03-1.117c.229-.36.486-.787.756-1.257,2.518.474,3.844,1.483,3.844,2.263C14.466,165.042,11.631,166.373,7.836,166.373Z" transform="translate(-0.001 -145.881)"/><path class="a" d="M271.7,281.423a.6.6,0,0,0-.6-.6h-.616a2.131,2.131,0,0,1-.441-.046.6.6,0,1,0-.251,1.179,3.324,3.324,0,0,0,.692.072h.616A.6.6,0,0,0,271.7,281.423Z" transform="translate(-250.291 -275.396)"/><path class="a" d="M422.689,283.34a.6.6,0,0,0-.373-.762h0a6.568,6.568,0,0,0-1.271-.293.6.6,0,1,0-.152,1.2,5.359,5.359,0,0,1,1.036.238A.6.6,0,0,0,422.689,283.34Z" transform="translate(-390.674 -276.807)"/><path class="a" d="M467.139,304.776a.6.6,0,0,0,.4-.968,6.7,6.7,0,0,0-.892-.947.6.6,0,0,0-.793.908,5.472,5.472,0,0,1,.732.777A.6.6,0,0,0,467.139,304.776Z" transform="translate(-432.754 -295.797)"/><path class="a" d="M322.035,282.2a.6.6,0,0,0-.6-.6h-1.187a.6.6,0,1,0,0,1.205h1.187A.6.6,0,0,0,322.035,282.2Z" transform="translate(-297.066 -276.176)"/><path class="a" d="M493.185,345.21a.6.6,0,1,0-1.163.315,5.4,5.4,0,0,1,.174,1.05.6.6,0,0,0,.6.563h.041a.6.6,0,0,0,.562-.641A6.588,6.588,0,0,0,493.185,345.21Z" transform="translate(-457.249 -334.878)"/><path class="a" d="M484.7,394.414a.6.6,0,0,0-.765.374,5.442,5.442,0,0,1-.444.969.6.6,0,0,0,1.042.607,6.618,6.618,0,0,0,.542-1.185A.6.6,0,0,0,484.7,394.414Z" transform="translate(-449.261 -380.991)"/><path class="a" d="M248.715,452.267h-1.186a.6.6,0,1,0,0,1.205h1.186a.6.6,0,0,0,0-1.205Z" transform="translate(-229.485 -434.788)"/><path class="a" d="M399.836,452.1q-.167.01-.335.01h-.813a.6.6,0,1,0,0,1.205h.813q.206,0,.41-.013a.6.6,0,1,0-.074-1.2Z" transform="translate(-369.966 -434.636)"/><path class="a" d="M372.418,282.2a.6.6,0,0,0-.6-.6h-1.187a.6.6,0,0,0,0,1.205h1.187A.6.6,0,0,0,372.418,282.2Z" transform="translate(-343.89 -276.176)"/><path class="a" d="M448.348,434.793a5.456,5.456,0,0,1-.906.563.6.6,0,1,0,.533,1.081,6.671,6.671,0,0,0,1.106-.688.6.6,0,0,0-.733-.956Z" transform="translate(-415.525 -418.432)"/><path class="a" d="M299.1,452.267h-1.187a.6.6,0,0,0,0,1.205H299.1a.6.6,0,0,0,0-1.205Z" transform="translate(-276.309 -434.788)"/><path class="a" d="M349.481,452.267h-1.187a.6.6,0,1,0,0,1.206h1.187a.6.6,0,1,0,0-1.206Z" transform="translate(-323.133 -434.788)"/><path class="a" d="M251.895,208.394a.6.6,0,0,0,.409-.16,2.12,2.12,0,0,1,.79-.461.6.6,0,1,0-.366-1.148,3.331,3.331,0,0,0-1.243.724.6.6,0,0,0,.409,1.045Z" transform="translate(-233.543 -206.47)"/><path class="a" d="M299.687,206.006h1.186a.6.6,0,0,0,0-1.205h-1.186a.6.6,0,0,0,0,1.205Z" transform="translate(-277.959 -204.801)"/><path class="a" d="M240.4,247.126a.6.6,0,0,0,.016-.593,2.094,2.094,0,0,1-.241-.882.609.609,0,0,0-.632-.573.6.6,0,0,0-.573.632,3.287,3.287,0,0,0,.38,1.387.6.6,0,0,0,1.049.029Z" transform="translate(-222.095 -242.233)"/><g transform="translate(0.977 1.196)"><path class="a" d="M6.981,18.256h0a42.865,42.865,0,0,1-3.489-4C1.9,12.17,0,9.2,0,6.89A6.943,6.943,0,0,1,6.981,0a6.943,6.943,0,0,1,6.981,6.89c0,2.313-1.9,5.28-3.49,7.362a42.865,42.865,0,0,1-3.489,4ZM7.034,3.3a3.285,3.285,0,1,0,3.285,3.285A3.289,3.289,0,0,0,7.034,3.3Z" transform="translate(0 0)"/></g></g></g><g transform="translate(20.632 4.219)"><path class="b" d="M-131.629-65.869A4.159,4.159,0,0,0-135.814-70,4.159,4.159,0,0,0-140-65.869c0,2.685,4.186,6.816,4.186,6.816s4.186-4.13,4.186-6.816" transform="translate(140 70)"/><g class="c" transform="translate(2.248 1.977)"><path class="d" d="M1.97,0A1.97,1.97,0,1,1,0,1.97,1.97,1.97,0,0,1,1.97,0Z"/><path class="e" d="M 1.969663023948669 4.291534423828125e-06 C 3.057472944259644 4.291534423828125e-06 3.939322948455811 0.8818743228912354 3.939322948455811 1.969714403152466 C 3.939322948455811 3.057554483413696 3.057472944259644 3.939424514770508 1.969663023948669 3.939424514770508 C 0.8818531036376953 3.939424514770508 3.099441528320313e-06 3.057554483413696 3.099441528320313e-06 1.969714403152466 C 3.099441528320313e-06 0.8818743228912354 0.8818531036376953 4.291534423828125e-06 1.969663023948669 4.291534423828125e-06 Z"/></g></g></g></svg>