<?xml version="1.0" encoding="UTF-8"?>
<!DOCTYPE svg PUBLIC "-//W3C//DTD SVG 1.1//EN" "http://www.w3.org/Graphics/SVG/1.1/DTD/svg11.dtd">
<svg version="1.1" xmlns="http://www.w3.org/2000/svg" xmlns:xlink="http://www.w3.org/1999/xlink" width="128" height="60"  xml:space="preserve" id="no_internet_iconCanvas">
    <!-- Generated by PaintCode - http://www.paintcodeapp.com -->
    <g id="no_internet_iconCanvas-group">
        <rect id="no_internet_iconCanvas-rectangle" stroke="none" fill="rgb(241, 245, 255)" x="9" y="29.21" width="59" height="20" rx="10" />
        <rect id="no_internet_iconCanvas-rectangle2" stroke="none" fill="rgb(241, 245, 255)" x="60" y="14.21" width="56" height="20" rx="10" />
        <rect id="no_internet_iconCanvas-rectangle3" stroke="none" fill="rgb(241, 245, 255)" x="69" y="39.21" width="59" height="20" rx="10" />
        <g id="no_internet_iconCanvas-group2">
            <circle id="no_internet_iconCanvas-oval" stroke="none" fill="rgb(255, 255, 255)" cx="13" cy="15.21" r="5" />
            <circle id="no_internet_iconCanvas-oval2" stroke="rgb(200, 209, 236)" stroke-width="2" stroke-miterlimit="10" fill="none" cx="13" cy="15.21" r="4" />
        </g>
        <circle id="no_internet_iconCanvas-oval3" stroke="none" fill="rgb(200, 209, 236)" cx="4" cy="7.21" r="2" />
        <circle id="no_internet_iconCanvas-oval4" stroke="none" fill="rgb(200, 209, 236)" cx="97.2" cy="30.25" r="2" />
        <g id="no_internet_iconCanvas-group3">
            <circle id="no_internet_iconCanvas-oval5" stroke="none" fill="rgb(255, 255, 255)" cx="102.9" cy="36" r="4" />
            <path id="no_internet_iconCanvas-bezier" stroke="rgb(200, 209, 236)" stroke-width="2" stroke-miterlimit="4" fill="none" d="M 101.38,38.58 C 99.95,37.75 99.46,35.92 100.28,34.48 101.11,33.05 102.95,32.56 104.38,33.39 105.82,34.21 106.31,36.05 105.48,37.48 104.65,38.92 102.82,39.41 101.38,38.58 Z M 101.38,38.58" />
        </g>
        <g id="no_internet_iconCanvas-group4">
            <circle id="no_internet_iconCanvas-oval6" stroke="none" fill="rgb(255, 255, 255)" cx="4" cy="25.21" r="4" />
            <circle id="no_internet_iconCanvas-oval7" stroke="rgb(200, 209, 236)" stroke-width="2" stroke-miterlimit="10" fill="none" cx="4" cy="25.21" r="3" />
        </g>
        <g id="no_internet_iconCanvas-group5">
            <g id="no_internet_iconCanvas-group6">
                <path id="no_internet_iconCanvas-bezier2" stroke="none" fill="rgb(200, 209, 236)" d="M 57.18,42.57 L 57.2,42.57 C 53.75,42.57 50.95,45.37 50.95,48.82 50.95,52.27 53.75,55.07 57.2,55.07 60.66,55.07 63.46,52.27 63.46,48.82 L 63.46,48.84 C 63.46,45.37 60.65,42.57 57.19,42.57 L 57.18,42.57 Z M 57.18,42.57" />
            </g>
            <g id="no_internet_iconCanvas-group7">
                <g id="no_internet_iconCanvas-group8">
                    <path id="no_internet_iconCanvas-bezier3" stroke="none" fill="rgb(200, 209, 236)" d="M 72.49,34.05 L 72.51,34.07 C 64.04,25.6 50.32,25.6 41.85,34.07 L 41.91,34.01 C 40.26,35.66 40.26,38.33 41.91,39.98 43.56,41.63 46.24,41.63 47.89,39.98 L 47.85,40.01 C 53.01,34.86 61.36,34.86 66.51,40.01 L 66.51,40.01 C 68.16,41.66 70.83,41.66 72.48,40.01 74.13,38.36 74.13,35.69 72.48,34.04 L 72.49,34.05 Z M 72.49,34.05" />
                </g>
            </g>
            <g id="no_internet_iconCanvas-group9">
                <g id="no_internet_iconCanvas-group10">
                    <path id="no_internet_iconCanvas-bezier4" stroke="none" fill="rgb(200, 209, 236)" d="M 92.16,14.45 L 92.23,14.52 C 72.87,-4.84 41.49,-4.84 22.13,14.52 L 22.24,14.41 C 20.59,16.06 20.59,18.73 22.24,20.38 23.89,22.03 26.56,22.03 28.21,20.38 L 28.13,20.46 C 44.18,4.42 70.19,4.42 86.23,20.46 L 86.18,20.41 C 87.83,22.06 90.5,22.06 92.15,20.41 93.8,18.76 93.8,16.09 92.15,14.44 L 92.16,14.45 Z M 92.16,14.45" />
                </g>
            </g>
            <g id="no_internet_iconCanvas-group11">
                <g id="no_internet_iconCanvas-group12">
                    <path id="no_internet_iconCanvas-bezier5" stroke="none" fill="rgb(200, 209, 236)" d="M 82.08,24.49 L 82.12,24.54 C 68.35,10.76 46.02,10.76 32.24,24.54 L 32.32,24.46 C 30.7,26.14 30.75,28.81 32.42,30.43 34.06,32.01 36.66,32.01 38.29,30.43 L 38.24,30.48 C 48.7,20.02 65.66,20.02 76.12,30.48 L 76.09,30.45 C 77.71,32.13 80.38,32.18 82.06,30.56 83.74,28.94 83.78,26.26 82.16,24.58 82.13,24.55 82.1,24.51 82.06,24.48 L 82.08,24.49 Z M 82.08,24.49" />
                </g>
            </g>
        </g>
    </g>
</svg>
