<svg xmlns="http://www.w3.org/2000/svg" width="18.071" height="16.962" viewBox="0 0 18.071 16.962"><defs><style>.a{fill:#c8d1ec;}</style></defs><g transform="translate(0 -14.229)"><path class="a" d="M15.425,16.876A9.037,9.037,0,0,0,1.243,27.841a9.086,9.086,0,0,0,3.262,3.243.784.784,0,0,0,.787-1.355A7.469,7.469,0,1,1,16.5,23.265a6.217,6.217,0,0,1-1.363,4.2,3.629,3.629,0,0,1-2.674,1.289,2.516,2.516,0,0,1-2.487-1.872,3.464,3.464,0,0,0,2.757-3.386V21.212a.2.2,0,0,0-.2-.2H11.494V18.878a.784.784,0,0,0-1.567,0v2.138H8.145V18.878a.784.784,0,0,0-1.567,0v2.138H5.529a.2.2,0,0,0-.2.2v2.283a3.463,3.463,0,0,0,3.044,3.433,4.374,4.374,0,0,0,1.137,2.187,4.09,4.09,0,0,0,2.953,1.205A5.194,5.194,0,0,0,16.314,28.5a7.64,7.64,0,0,0,1.757-5.239A8.977,8.977,0,0,0,15.425,16.876Z" transform="translate(0)"/></g></svg>