<svg xmlns="http://www.w3.org/2000/svg" width="74" height="74" viewBox="0 0 74 74"><defs><style>.a{fill:#f1f5ff;}.b{fill:#c8d1ec;}.c{fill:none;stroke:#c8d1ec;stroke-linecap:round;stroke-linejoin:round;stroke-width:2px;}</style></defs><rect class="a" width="74" height="74" rx="12"/><path class="b" d="M4.2.18A1.886,1.886,0,0,1,2.805-.345,1.926,1.926,0,0,1,2.28-1.77V-19.32a1.793,1.793,0,0,1,.495-1.35,1.878,1.878,0,0,1,1.365-.48h7.38a7.632,7.632,0,0,1,5.28,1.7A6.057,6.057,0,0,1,18.69-14.7,6.1,6.1,0,0,1,16.8-9.93a7.589,7.589,0,0,1-5.28,1.71H6.15v6.45A1.926,1.926,0,0,1,5.625-.345,1.926,1.926,0,0,1,4.2.18Zm6.84-11.37q3.99,0,3.99-3.48t-3.99-3.48H6.15v6.96Z" transform="translate(27 50)"/><path class="c" d="M6381,9219.3l7.276-6.11,7.277,6.11" transform="translate(-6351.5 -9197.366)"/></svg>